<svg width="20" height="20" viewBox="0 0 20 20" fill="none" xmlns="http://www.w3.org/2000/svg">
<path fill-rule="evenodd" clip-rule="evenodd" d="M17 2.875C15.125 1 12.625 0 10 0C4.5 0 0 4.5 0 10C0 11.75 0.500008 13.5 1.37501 15L0 20L5.25002 18.625C6.75002 19.375 8.375 19.875 10 19.875C15.5 19.875 20 15.375 20 9.875C20 7.25 18.875 4.75 17 2.875ZM10 18.25C8.5 18.25 7.00001 17.875 5.75001 17.125L5.49999 17L2.37499 17.875L3.25001 14.875L2.99999 14.5C2.12499 13.125 1.74999 11.625 1.74999 10.125C1.74999 5.625 5.5 1.875 10 1.875C12.25 1.875 14.25 2.75 15.875 4.25C17.5 5.875 18.25 7.875 18.25 10.125C18.25 14.5 14.625 18.25 10 18.25ZM14.5 12C14.25 11.875 13 11.25 12.75 11.25C12.5 11.125 12.375 11.125 12.25 11.375C12.125 11.625 11.625 12.125 11.5 12.375C11.375 12.5 11.25 12.5 11 12.5C10.75 12.375 10 12.125 9.00002 11.25C8.25002 10.625 7.75001 9.75 7.62501 9.5C7.50001 9.25 7.62502 9.125 7.75002 9C7.87502 8.875 8 8.75 8.125 8.625C8.25 8.5 8.25002 8.375 8.37502 8.25C8.50002 8.125 8.37502 8 8.37502 7.875C8.37502 7.75 7.87501 6.5 7.62501 6C7.50001 5.625 7.25002 5.625 7.12502 5.625C7.00002 5.625 6.87498 5.625 6.62498 5.625C6.49998 5.625 6.24998 5.625 5.99998 5.875C5.74998 6.125 5.12501 6.75 5.12501 8C5.12501 9.25 5.99999 10.375 6.12499 10.625C6.24999 10.75 7.87498 13.375 10.375 14.375C12.5 15.25 12.875 15 13.375 15C13.875 15 14.875 14.375 15 13.875C15.25 13.25 15.25 12.75 15.125 12.75C15 12.125 14.75 12.125 14.5 12Z" fill="white"/>
</svg>
