<svg width="569" height="368" viewBox="0 0 569 368" fill="none" xmlns="http://www.w3.org/2000/svg">
<path d="M59.7379 150.317L59.738 150.316C62.992 139.244 59.2245 127.168 53.251 115.037L52.8025 115.258L53.251 115.037C50.1209 108.684 46.3714 102.284 42.6766 95.9776C42.3804 95.472 42.0845 94.9669 41.7894 94.4626C37.8076 87.6591 33.9533 80.9785 31.0459 74.5576L31.0457 74.5572C25.2242 61.7261 23.5539 49.627 26.8161 39.0928C30.0749 28.5698 38.2848 19.5157 52.4172 12.8221L52.4173 12.8221C68.6727 5.121 89.3415 0.781003 111.876 0.6892C148.525 0.541171 188.248 11.507 223.273 26.7116C247.784 37.3513 269.682 50.3408 291.578 63.329C293.01 64.1787 294.443 65.0284 295.876 65.8774C319.208 79.6997 342.726 93.343 369.538 103.917C387.324 110.931 406.298 115.805 425.344 120.609C426.071 120.792 426.799 120.975 427.527 121.159C445.859 125.779 464.218 130.406 481.667 136.884C499.043 143.335 516.115 151.531 530.372 161.05C544.635 170.573 556.041 181.393 562.136 193.076C567.907 204.143 568.534 215.255 566.522 225.583C564.47 236.163 559.651 246.161 550.65 254.077C542.892 260.898 532.481 266.041 521.28 270.675C516.543 272.636 511.674 274.501 506.812 276.364C505.929 276.703 505.047 277.041 504.166 277.379C498.433 279.581 492.746 281.803 487.353 284.189C466.434 293.446 450.953 305.65 444.374 322.7C437.346 340.877 422.834 358.796 394.631 364.783C362.182 371.673 323.986 361.844 290.657 346.926C279.01 341.712 266.318 337.479 253.49 333.459C250.359 332.478 247.221 331.51 244.088 330.543C234.374 327.546 224.708 324.564 215.461 321.26C193.917 313.555 173.963 309.899 152.221 305.914C149.183 305.357 146.11 304.794 142.992 304.213L142.905 304.682L142.992 304.213C132.32 302.225 121.96 298.503 111.609 294.516C109.881 293.851 108.154 293.178 106.424 292.505C97.8089 289.149 89.1656 285.783 80.3603 283.28C59.3002 277.292 38.4781 268.592 23.4413 256.613L23.1297 257.004L23.4412 256.613C3.94539 241.084 -3.49569 220.928 3.99606 205.861C6.67981 200.47 11.0409 195.765 16.2174 191.369C20.7401 187.529 25.8576 183.947 30.9887 180.355C31.7325 179.834 32.4765 179.314 33.219 178.792C39.0726 174.678 44.8311 170.504 49.5542 165.898C54.2793 161.29 57.9968 156.225 59.7379 150.317Z" stroke="#003570" stroke-opacity="0.3"/>
</svg>
