<svg width="21" height="18" viewBox="0 0 21 18" fill="none" xmlns="http://www.w3.org/2000/svg">
<path d="M2.1249 7.63537C7.49359 5.29631 11.0736 3.75426 12.8648 3.00922C17.9792 0.881975 19.0419 0.51245 19.7346 0.500118C19.8869 0.497565 20.2276 0.53532 20.4482 0.714361C20.6345 0.86554 20.6858 1.06976 20.7103 1.2131C20.7348 1.35643 20.7654 1.68295 20.7411 1.93808C20.464 4.85012 19.2647 11.9169 18.6546 15.1784C18.3965 16.5585 17.8882 17.0212 17.3961 17.0665C16.3266 17.1649 15.5145 16.3597 14.4787 15.6807C12.8578 14.6182 11.9421 13.9568 10.3688 12.92C8.55053 11.7218 9.72923 11.0633 10.7654 9.98699C11.0366 9.70533 15.7487 5.41933 15.8399 5.03052C15.8513 4.98189 15.8619 4.80063 15.7542 4.70492C15.6465 4.60921 15.4876 4.64194 15.3729 4.66797C15.2104 4.70487 12.621 6.41634 7.60486 9.80237C6.86988 10.3071 6.20416 10.553 5.6077 10.5401C4.95015 10.5259 3.68528 10.1683 2.74498 9.86264C1.59166 9.48774 0.675027 9.28953 0.754845 8.65284C0.796419 8.32121 1.2531 7.98205 2.1249 7.63537Z" fill="white"/>
</svg>
