<svg width="25" height="14" viewBox="0 0 25 14" fill="none" xmlns="http://www.w3.org/2000/svg">
<path d="M19.2882 8.37572C17.3275 8.37572 16.0259 7.00506 15.6634 6.47399C16.1303 3.11561 17.4868 2.05853 19.2882 2.05853C21.0896 2.05853 22.4462 3.33815 22.4462 5.2146C22.4462 7.09104 21.0677 8.37572 19.2882 8.37572ZM19.2882 0C16.0863 0 14.3014 1.8815 13.7797 3.81864C13.1975 2.83237 12.7691 1.51228 12.4341 0.283237H8.00747V5.25C8.00747 7.05058 7.09578 8.38078 5.32184 8.38078C3.54789 8.38078 2.52636 7.05058 2.52636 5.25L2.54833 0.283237H0V5.25C0 6.70159 0.521749 8.01156 1.47188 8.95231C2.44947 9.92341 3.78405 10.4241 5.32733 10.4241C8.40839 10.4241 10.5558 8.2948 10.5558 5.25V1.91185C10.8743 3.00939 11.6432 5.1185 13.1041 6.96965L11.7366 14H14.3289L15.2296 9.02312C15.5261 9.24566 15.8392 9.44798 16.1742 9.61994C17.042 10.1156 18.0415 10.3887 19.063 10.4191C19.063 10.4191 19.2223 10.4241 19.3047 10.4241C22.4791 10.4241 25 8.20881 25 5.21965C25 2.23049 22.4627 0 19.2882 0Z" fill="white"/>
</svg>
