<svg width="133" height="133" viewBox="0 0 133 133" fill="none" xmlns="http://www.w3.org/2000/svg">
<path d="M79.7576 111.576V116.879H85.0606V111.576H79.7576ZM42.6364 0.211914V5.51494H47.9394V0.211914H42.6364ZM100.97 0.211914V5.51494H106.273V0.211914H100.97ZM0.212158 26.7271V32.0301H5.51519V26.7271H0.212158ZM42.6364 95.6665V100.969H47.9394V95.6665H42.6364ZM0.212158 74.4543V79.7574H5.51519V74.4543H0.212158ZM0.212158 122.182V127.485H5.51519V122.182H0.212158ZM58.5455 122.182V127.485H63.8485V122.182H58.5455ZM21.4243 10.818V16.121H26.7273V10.818H21.4243ZM116.879 53.2422V58.5452H122.182V53.2422H116.879ZM16.1213 32.0301V37.3331H21.4243V32.0301H16.1213ZM16.1213 79.7574V85.0604H21.4243V79.7574H16.1213ZM16.1213 127.485V132.788H21.4243V127.485H16.1213ZM74.4546 127.485V132.788H79.7576V127.485H74.4546ZM95.6667 16.121V21.424H100.97V16.121H95.6667ZM79.7576 85.0604V90.3634H85.0606V85.0604H79.7576ZM95.6667 63.8483V69.1513H100.97V63.8483H95.6667ZM0.212158 0.211914V5.51494H5.51519V0.211914H0.212158ZM58.5455 0.211914V5.51494H63.8485V0.211914H58.5455ZM0.212158 47.9392V53.2422H5.51519V47.9392H0.212158ZM58.5455 47.9392V53.2422H63.8485V47.9392H58.5455ZM53.2425 116.879V122.182H58.5455V116.879H53.2425ZM116.879 74.4543V79.7574H122.182V74.4543H116.879ZM16.1213 53.2422V58.5452H21.4243V53.2422H16.1213ZM74.4546 53.2422V58.5452H79.7576V53.2422H74.4546ZM79.7576 10.818V16.121H85.0606V10.818H79.7576ZM79.7576 58.5452V63.8483H85.0606V58.5452H79.7576ZM37.3334 85.0604V90.3634H42.6364V85.0604H37.3334ZM95.6667 85.0604V90.3634H100.97V85.0604H95.6667ZM58.5455 21.424V26.7271H63.8485V21.424H58.5455ZM53.2425 42.6362V47.9392H58.5455V42.6362H53.2425ZM53.2425 90.3634V95.6665H58.5455V90.3634H53.2425ZM10.8182 69.1513V74.4543H16.1213V69.1513H10.8182ZM10.8182 116.879V122.182H16.1213V116.879H10.8182ZM116.879 0.211914V5.51494H122.182V0.211914H116.879ZM74.4546 26.7271V32.0301H79.7576V26.7271H74.4546ZM16.1213 74.4543V79.7574H21.4243V74.4543H16.1213ZM74.4546 122.182V127.485H79.7576V122.182H74.4546ZM95.6667 10.818V16.121H100.97V10.818H95.6667ZM37.3334 58.5452V63.8483H42.6364V58.5452H37.3334ZM95.6667 58.5452V63.8483H100.97V58.5452H95.6667ZM32.0303 127.485V132.788H37.3334V127.485H32.0303ZM111.576 116.879V122.182H116.879V116.879H111.576ZM10.8182 42.6362V47.9392H16.1213V42.6362H10.8182ZM53.2425 111.576V116.879H58.5455V111.576H53.2425ZM116.879 21.424V26.7271H122.182V21.424H116.879ZM16.1213 0.211914V5.51494H21.4243V0.211914H16.1213ZM74.4546 0.211914V5.51494H79.7576V0.211914H74.4546ZM16.1213 47.9392V53.2422H21.4243V47.9392H16.1213ZM16.1213 95.6665V100.969H21.4243V95.6665H16.1213ZM90.3637 106.273V111.576H95.6667V106.273H90.3637ZM32.0303 53.2422V58.5452H37.3334V53.2422H32.0303ZM32.0303 100.969V106.273H37.3334V100.969H32.0303ZM53.2425 37.3331V42.6362H58.5455V37.3331H53.2425ZM10.8182 16.121V21.424H16.1213V16.121H10.8182ZM53.2425 85.0604V90.3634H58.5455V85.0604H53.2425ZM10.8182 111.576V116.879H16.1213V111.576H10.8182ZM116.879 42.6362V47.9392H122.182V42.6362H116.879ZM16.1213 21.424V26.7271H21.4243V21.424H16.1213ZM74.4546 21.424V26.7271H79.7576V21.424H74.4546ZM90.3637 79.7574V85.0604H95.6667V79.7574H90.3637ZM47.9394 106.273V111.576H53.2425V106.273H47.9394ZM32.0303 26.7271V32.0301H37.3334V26.7271H32.0303ZM111.576 16.121V21.424H116.879V16.121H111.576ZM32.0303 74.4543V79.7574H37.3334V74.4543H32.0303ZM32.0303 122.182V127.485H37.3334V122.182H32.0303ZM53.2425 10.818V16.121H58.5455V10.818H53.2425ZM53.2425 58.5452V63.8483H58.5455V58.5452H53.2425ZM127.485 69.1513V74.4543H132.788V69.1513H127.485ZM69.1516 116.879V122.182H74.4546V116.879H69.1516ZM127.485 116.879V122.182H132.788V116.879H127.485ZM85.0606 95.6665V100.969H90.3637V95.6665H85.0606ZM47.9394 79.7574V85.0604H53.2425V79.7574H47.9394ZM47.9394 127.485V132.788H53.2425V127.485H47.9394ZM32.0303 0.211914V5.51494H37.3334V0.211914H32.0303ZM32.0303 95.6665V100.969H37.3334V95.6665H32.0303ZM106.273 106.273V111.576H111.576V106.273H106.273ZM53.2425 32.0301V37.3331H58.5455V32.0301H53.2425ZM10.8182 10.818V16.121H16.1213V10.818H10.8182ZM127.485 42.6362V47.9392H132.788V42.6362H127.485ZM69.1516 90.3634V95.6665H74.4546V90.3634H69.1516ZM127.485 90.3634V95.6665H132.788V90.3634H127.485ZM85.0606 69.1513V74.4543H90.3637V69.1513H85.0606ZM5.51519 127.485V132.788H10.8182V127.485H5.51519ZM47.9394 5.51494V10.818H53.2425V5.51494H47.9394ZM26.7273 63.8483V69.1513H32.0303V63.8483H26.7273ZM47.9394 53.2422V58.5452H53.2425V53.2422H47.9394ZM90.3637 122.182V127.485H95.6667V122.182H90.3637ZM47.9394 100.969V106.273H53.2425V100.969H47.9394ZM32.0303 21.424V26.7271H37.3334V21.424H32.0303ZM111.576 10.818V16.121H116.879V10.818H111.576ZM106.273 79.7574V85.0604H111.576V79.7574H106.273ZM63.8485 106.273V111.576H69.1516V106.273H63.8485ZM69.1516 16.121V21.424H74.4546V16.121H69.1516ZM127.485 16.121V21.424H132.788V16.121H127.485ZM5.51519 53.2422V58.5452H10.8182V53.2422H5.51519ZM127.485 63.8483V69.1513H132.788V63.8483H127.485ZM85.0606 42.6362V47.9392H90.3637V42.6362H85.0606ZM85.0606 90.3634V95.6665H90.3637V90.3634H85.0606ZM47.9394 26.7271V32.0301H53.2425V26.7271H47.9394ZM26.7273 85.0604V90.3634H32.0303V85.0604H26.7273ZM106.273 53.2422V58.5452H111.576V53.2422H106.273ZM63.8485 32.0301V37.3331H69.1516V32.0301H63.8485ZM122.182 32.0301V37.3331H127.485V32.0301H122.182ZM106.273 100.969V106.273H111.576V100.969H106.273ZM63.8485 79.7574V85.0604H69.1516V79.7574H63.8485ZM21.4243 58.5452V63.8483H26.7273V58.5452H21.4243ZM21.4243 106.273V111.576H26.7273V106.273H21.4243ZM5.51519 74.4543V79.7574H10.8182V74.4543H5.51519ZM69.1516 85.0604V90.3634H74.4546V85.0604H69.1516ZM85.0606 63.8483V69.1513H90.3637V63.8483H85.0606ZM85.0606 111.576V116.879H90.3637V111.576H85.0606ZM47.9394 0.211914V5.51494H53.2425V0.211914H47.9394ZM26.7273 58.5452V63.8483H32.0303V58.5452H26.7273ZM100.97 69.1513V74.4543H106.273V69.1513H100.97ZM100.97 116.879V122.182H106.273V116.879H100.97ZM42.6364 116.879V122.182H47.9394V116.879H42.6364ZM0.212158 95.6665V100.969H5.51519V95.6665H0.212158ZM58.5455 95.6665V100.969H63.8485V95.6665H58.5455ZM63.8485 53.2422V58.5452H69.1516V53.2422H63.8485ZM106.273 122.182V127.485H111.576V122.182H106.273ZM21.4243 32.0301V37.3331H26.7273V32.0301H21.4243ZM122.182 100.969V106.273H127.485V100.969H122.182ZM21.4243 79.7574V85.0604H26.7273V79.7574H21.4243ZM21.4243 127.485V132.788H26.7273V127.485H21.4243ZM5.51519 0.211914V5.51494H10.8182V0.211914H5.51519ZM69.1516 10.818V16.121H74.4546V10.818H69.1516ZM127.485 10.818V16.121H132.788V10.818H127.485ZM85.0606 37.3331V42.6362H90.3637V37.3331H85.0606ZM5.51519 95.6665V100.969H10.8182V95.6665H5.51519ZM85.0606 85.0604V90.3634H90.3637V85.0604H85.0606ZM79.7576 106.273V111.576H85.0606V106.273H79.7576ZM26.7273 32.0301V37.3331H32.0303V32.0301H26.7273ZM100.97 42.6362V47.9392H106.273V42.6362H100.97ZM0.212158 21.424V26.7271H5.51519V21.424H0.212158ZM42.6364 90.3634V95.6665H47.9394V90.3634H42.6364ZM0.212158 116.879V122.182H5.51519V116.879H0.212158ZM106.273 0.211914V5.51494H111.576V0.211914H106.273ZM106.273 95.6665V100.969H111.576V95.6665H106.273ZM63.8485 74.4543V79.7574H69.1516V74.4543H63.8485ZM63.8485 122.182V127.485H69.1516V122.182H63.8485ZM127.485 32.0301V37.3331H132.788V32.0301H127.485ZM5.51519 69.1513V74.4543H10.8182V69.1513H5.51519ZM79.7576 79.7574V85.0604H85.0606V79.7574H79.7576ZM79.7576 127.485V132.788H85.0606V127.485H79.7576ZM95.6667 106.273V111.576H100.97V106.273H95.6667ZM42.6364 63.8483V69.1513H47.9394V63.8483H42.6364ZM0.212158 42.6362V47.9392H5.51519V42.6362H0.212158ZM106.273 21.424V26.7271H111.576V21.424H106.273ZM122.182 0.211914V5.51494H127.485V0.211914H122.182ZM122.182 47.9392V53.2422H127.485V47.9392H122.182ZM79.7576 53.2422V58.5452H85.0606V53.2422H79.7576ZM95.6667 32.0301V37.3331H100.97V32.0301H95.6667ZM79.7576 100.969V106.273H85.0606V100.969H79.7576ZM37.3334 79.7574V85.0604H42.6364V79.7574H37.3334ZM95.6667 127.485V132.788H100.97V127.485H95.6667ZM0.212158 16.121V21.424H5.51519V16.121H0.212158ZM42.6364 85.0604V90.3634H47.9394V85.0604H42.6364ZM100.97 85.0604V90.3634H106.273V85.0604H100.97ZM0.212158 63.8483V69.1513H5.51519V63.8483H0.212158ZM0.212158 111.576V116.879H5.51519V111.576H0.212158ZM21.4243 0.211914V5.51494H26.7273V0.211914H21.4243ZM21.4243 47.9392V53.2422H26.7273V47.9392H21.4243ZM16.1213 116.879V122.182H21.4243V116.879H16.1213ZM74.4546 116.879V122.182H79.7576V116.879H74.4546ZM95.6667 5.51494V10.818H100.97V5.51494H95.6667ZM79.7576 74.4543V79.7574H85.0606V74.4543H79.7576ZM37.3334 53.2422V58.5452H42.6364V53.2422H37.3334ZM42.6364 10.818V16.121H47.9394V10.818H42.6364ZM42.6364 58.5452V63.8483H47.9394V58.5452H42.6364ZM100.97 58.5452V63.8483H106.273V58.5452H100.97ZM58.5455 37.3331V42.6362H63.8485V37.3331H58.5455ZM0.212158 85.0604V90.3634H5.51519V85.0604H0.212158ZM116.879 16.121V21.424H122.182V16.121H116.879ZM116.879 111.576V116.879H122.182V111.576H116.879ZM79.7576 47.9392V53.2422H85.0606V47.9392H79.7576ZM95.6667 26.7271V32.0301H100.97V26.7271H95.6667ZM100.97 32.0301V37.3331H106.273V32.0301H100.97ZM0.212158 10.818V16.121H5.51519V10.818H0.212158ZM53.2425 79.7574V85.0604H58.5455V79.7574H53.2425ZM53.2425 127.485V132.788H58.5455V127.485H53.2425ZM10.8182 106.273V111.576H16.1213V106.273H10.8182ZM16.1213 16.121V21.424H21.4243V16.121H16.1213ZM74.4546 16.121V21.424H79.7576V16.121H74.4546ZM16.1213 111.576V116.879H21.4243V111.576H16.1213ZM95.6667 0.211914V5.51494H100.97V0.211914H95.6667ZM79.7576 69.1513V74.4543H85.0606V69.1513H79.7576ZM95.6667 47.9392V53.2422H100.97V47.9392H95.6667ZM95.6667 95.6665V100.969H100.97V95.6665H95.6667ZM111.576 58.5452V63.8483H116.879V58.5452H111.576ZM32.0303 116.879V122.182H37.3334V116.879H32.0303ZM53.2425 53.2422V58.5452H58.5455V53.2422H53.2425ZM10.8182 32.0301V37.3331H16.1213V32.0301H10.8182ZM53.2425 100.969V106.273H58.5455V100.969H53.2425ZM10.8182 79.7574V85.0604H16.1213V79.7574H10.8182ZM10.8182 127.485V132.788H16.1213V127.485H10.8182ZM116.879 10.818V16.121H122.182V10.818H116.879ZM16.1213 85.0604V90.3634H21.4243V85.0604H16.1213ZM74.4546 85.0604V90.3634H79.7576V85.0604H74.4546ZM95.6667 21.424V26.7271H100.97V21.424H95.6667ZM32.0303 42.6362V47.9392H37.3334V42.6362H32.0303ZM111.576 32.0301V37.3331H116.879V32.0301H111.576ZM111.576 79.7574V85.0604H116.879V79.7574H111.576ZM111.576 127.485V132.788H116.879V127.485H111.576ZM53.2425 26.7271V32.0301H58.5455V26.7271H53.2425ZM53.2425 74.4543V79.7574H58.5455V74.4543H53.2425ZM53.2425 122.182V127.485H58.5455V122.182H53.2425ZM116.879 32.0301V37.3331H122.182V32.0301H116.879ZM16.1213 10.818V16.121H21.4243V10.818H16.1213ZM16.1213 58.5452V63.8483H21.4243V58.5452H16.1213ZM74.4546 58.5452V63.8483H79.7576V58.5452H74.4546ZM90.3637 116.879V122.182H95.6667V116.879H90.3637ZM47.9394 95.6665V100.969H53.2425V95.6665H47.9394ZM32.0303 16.121V21.424H37.3334V16.121H32.0303ZM32.0303 63.8483V69.1513H37.3334V63.8483H32.0303ZM111.576 53.2422V58.5452H116.879V53.2422H111.576ZM32.0303 111.576V116.879H37.3334V111.576H32.0303ZM53.2425 47.9392V53.2422H58.5455V47.9392H53.2425ZM53.2425 95.6665V100.969H58.5455V95.6665H53.2425ZM10.8182 74.4543V79.7574H16.1213V74.4543H10.8182ZM69.1516 106.273V111.576H74.4546V106.273H69.1516ZM127.485 106.273V111.576H132.788V106.273H127.485ZM74.4546 32.0301V37.3331H79.7576V32.0301H74.4546ZM47.9394 21.424V26.7271H53.2425V21.424H47.9394ZM47.9394 69.1513V74.4543H53.2425V69.1513H47.9394ZM26.7273 127.485V132.788H32.0303V127.485H26.7273ZM47.9394 116.879V122.182H53.2425V116.879H47.9394ZM32.0303 85.0604V90.3634H37.3334V85.0604H32.0303ZM111.576 74.4543V79.7574H116.879V74.4543H111.576ZM10.8182 0.211914V5.51494H16.1213V0.211914H10.8182ZM53.2425 69.1513V74.4543H58.5455V69.1513H53.2425ZM10.8182 47.9392V53.2422H16.1213V47.9392H10.8182ZM10.8182 95.6665V100.969H16.1213V95.6665H10.8182ZM85.0606 58.5452V63.8483H90.3637V58.5452H85.0606ZM69.1516 127.485V132.788H74.4546V127.485H69.1516ZM127.485 127.485V132.788H132.788V127.485H127.485ZM85.0606 106.273V111.576H90.3637V106.273H85.0606ZM47.9394 42.6362V47.9392H53.2425V42.6362H47.9394ZM90.3637 111.576V116.879H95.6667V111.576H90.3637ZM32.0303 10.818V16.121H37.3334V10.818H32.0303ZM111.576 0.211914V5.51494H116.879V0.211914H111.576ZM111.576 47.9392V53.2422H116.879V47.9392H111.576ZM32.0303 106.273V111.576H37.3334V106.273H32.0303ZM106.273 116.879V122.182H111.576V116.879H106.273ZM10.8182 21.424V26.7271H16.1213V21.424H10.8182ZM69.1516 5.51494V10.818H74.4546V5.51494H69.1516ZM127.485 5.51494V10.818H132.788V5.51494H127.485ZM69.1516 53.2422V58.5452H74.4546V53.2422H69.1516ZM127.485 53.2422V58.5452H132.788V53.2422H127.485ZM85.0606 32.0301V37.3331H90.3637V32.0301H85.0606ZM69.1516 100.969V106.273H74.4546V100.969H69.1516ZM85.0606 127.485V132.788H90.3637V127.485H85.0606ZM47.9394 16.121V21.424H53.2425V16.121H47.9394ZM26.7273 74.4543V79.7574H32.0303V74.4543H26.7273ZM90.3637 85.0604V90.3634H95.6667V85.0604H90.3637ZM47.9394 63.8483V69.1513H53.2425V63.8483H47.9394ZM47.9394 111.576V116.879H53.2425V111.576H47.9394ZM32.0303 32.0301V37.3331H37.3334V32.0301H32.0303ZM111.576 21.424V26.7271H116.879V21.424H111.576ZM106.273 90.3634V95.6665H111.576V90.3634H106.273ZM63.8485 69.1513V74.4543H69.1516V69.1513H63.8485ZM122.182 69.1513V74.4543H127.485V69.1513H122.182ZM63.8485 116.879V122.182H69.1516V116.879H63.8485ZM122.182 116.879V122.182H127.485V116.879H122.182ZM21.4243 95.6665V100.969H26.7273V95.6665H21.4243ZM127.485 26.7271V32.0301H132.788V26.7271H127.485ZM85.0606 5.51494V10.818H90.3637V5.51494H85.0606ZM5.51519 63.8483V69.1513H10.8182V63.8483H5.51519ZM69.1516 74.4543V79.7574H74.4546V74.4543H69.1516ZM127.485 74.4543V79.7574H132.788V74.4543H127.485ZM85.0606 100.969V106.273H90.3637V100.969H85.0606ZM26.7273 0.211914V5.51494H32.0303V0.211914H26.7273ZM26.7273 47.9392V53.2422H32.0303V47.9392H26.7273ZM47.9394 37.3331V42.6362H53.2425V37.3331H47.9394ZM26.7273 95.6665V100.969H32.0303V95.6665H26.7273ZM32.0303 5.51494V10.818H37.3334V5.51494H32.0303ZM100.97 106.273V111.576H106.273V106.273H100.97ZM106.273 16.121V21.424H111.576V16.121H106.273ZM106.273 111.576V116.879H111.576V111.576H106.273ZM21.4243 21.424V26.7271H26.7273V21.424H21.4243ZM21.4243 69.1513V74.4543H26.7273V69.1513H21.4243ZM21.4243 116.879V122.182H26.7273V116.879H21.4243ZM69.1516 0.211914V5.51494H74.4546V0.211914H69.1516ZM127.485 0.211914V5.51494H132.788V0.211914H127.485ZM127.485 47.9392V53.2422H132.788V47.9392H127.485ZM5.51519 85.0604V90.3634H10.8182V85.0604H5.51519ZM127.485 95.6665V100.969H132.788V95.6665H127.485ZM85.0606 122.182V127.485H90.3637V122.182H85.0606ZM42.6364 32.0301V37.3331H47.9394V32.0301H42.6364ZM42.6364 79.7574V85.0604H47.9394V79.7574H42.6364ZM100.97 79.7574V85.0604H106.273V79.7574H100.97ZM42.6364 127.485V132.788H47.9394V127.485H42.6364ZM0.212158 106.273V111.576H5.51519V106.273H0.212158ZM58.5455 106.273V111.576H63.8485V106.273H58.5455ZM63.8485 16.121V21.424H69.1516V16.121H63.8485ZM106.273 85.0604V90.3634H111.576V85.0604H106.273ZM63.8485 63.8483V69.1513H69.1516V63.8483H63.8485ZM63.8485 111.576V116.879H69.1516V111.576H63.8485ZM122.182 111.576V116.879H127.485V111.576H122.182ZM127.485 21.424V26.7271H132.788V21.424H127.485ZM85.0606 47.9392V53.2422H90.3637V47.9392H85.0606ZM100.97 53.2422V58.5452H106.273V53.2422H100.97ZM0.212158 32.0301V37.3331H5.51519V32.0301H0.212158ZM58.5455 79.7574V85.0604H63.8485V79.7574H58.5455ZM0.212158 127.485V132.788H5.51519V127.485H0.212158ZM106.273 10.818V16.121H111.576V10.818H106.273ZM63.8485 37.3331V42.6362H69.1516V37.3331H63.8485ZM21.4243 16.121V21.424H26.7273V16.121H21.4243ZM122.182 85.0604V90.3634H127.485V85.0604H122.182ZM21.4243 111.576V116.879H26.7273V111.576H21.4243ZM5.51519 32.0301V37.3331H10.8182V32.0301H5.51519ZM79.7576 42.6362V47.9392H85.0606V42.6362H79.7576ZM37.3334 69.1513V74.4543H42.6364V69.1513H37.3334ZM95.6667 69.1513V74.4543H100.97V69.1513H95.6667ZM42.6364 26.7271V32.0301H47.9394V26.7271H42.6364ZM0.212158 5.51494V10.818H5.51519V5.51494H0.212158ZM0.212158 53.2422V58.5452H5.51519V53.2422H0.212158ZM100.97 122.182V127.485H106.273V122.182H100.97ZM0.212158 100.969V106.273H5.51519V100.969H0.212158ZM106.273 32.0301V37.3331H111.576V32.0301H106.273ZM63.8485 58.5452V63.8483H69.1516V58.5452H63.8485ZM21.4243 85.0604V90.3634H26.7273V85.0604H21.4243ZM16.1213 106.273V111.576H21.4243V106.273H16.1213ZM37.3334 42.6362V47.9392H42.6364V42.6362H37.3334Z" fill="#0088CC"/>
</svg>
