<svg width="330" height="211" viewBox="0 0 330 211" fill="none" xmlns="http://www.w3.org/2000/svg">
<path d="M303.785 118.556C298.641 111.554 294.797 104.271 294.955 96.4561C295.301 79.7999 314.955 66.1206 317.768 49.5821C319.737 37.9771 312.411 25.761 299.145 18.8709C288.905 13.5506 275.931 11.4707 263.256 11.2408C250.581 11.0109 237.69 7.31164 225.118 8.47773C210.198 9.85688 197.139 11.5198 182.141 10.0566C167.158 8.59892 150.861 9.16646 136.327 6.38574C115.459 2.39409 92.5832 2.65197 75.4104 13.0796C60.4511 22.1618 54.9842 36.7998 53.7711 50.2492C52.6604 62.6446 45.9094 73.4591 35.6372 83.3318C25.042 93.5128 11.414 102.802 4.73399 114.755C0.85038 121.707 -0.354851 129.303 0.0862797 136.776C0.511664 144.076 2.54407 151.442 7.47535 157.85C17.8736 171.356 39.6389 178.627 61.0104 181.021C83.3272 183.521 106.637 179.978 128.559 182.966C161.621 187.474 189.184 202.493 221.789 208.279C243.649 212.158 267.518 212.377 288.015 205.722C300.619 201.63 311.552 195.031 319.516 186.964C333.389 172.914 332.648 156.651 322.25 141.559C317.059 134.012 309.599 126.466 303.785 118.556Z" fill="#F9FCFF"/>
<path d="M180.548 107.171H147.525V165.639H180.548V107.171Z" fill="#D3DFFF"/>
<path opacity="0.3" d="M180.548 114.098H147.525V125.011H180.548V114.098Z" fill="#6793DC"/>
<path d="M164.037 117.363C168.912 117.363 172.863 113.408 172.863 108.529C172.863 103.65 168.912 99.6951 164.037 99.6951C159.163 99.6951 155.212 103.65 155.212 108.529C155.212 113.408 159.163 117.363 164.037 117.363Z" fill="white"/>
<path d="M245.48 0.553482H82.5936V108.016H245.48V0.553482Z" fill="#D3DFFF"/>
<path d="M240.011 4.6225H88.0632V101.872H240.011V4.6225Z" fill="white"/>
<path d="M198.101 158.074H129.764V165.848H198.101V158.074Z" fill="#67B7DC"/>
<path d="M128.631 53.4318L131.568 32.2164C130.182 31.9386 128.751 31.7906 127.283 31.7906C115.303 31.7906 105.591 41.5112 105.591 53.5031C105.591 65.495 115.303 75.2155 127.283 75.2155C139.264 75.2155 148.975 65.495 148.975 53.5031C148.975 52.7155 148.931 51.9374 148.849 51.1711L128.631 53.4318Z" fill="white" stroke="#67B7DC" stroke-width="2" stroke-miterlimit="10"/>
<path d="M152.464 47.3395C151.454 37.8723 144.367 30.2261 135.182 28.3837L132.245 49.6002L152.464 47.3395Z" fill="white" stroke="#67B7DC" stroke-width="2" stroke-miterlimit="10"/>
<path d="M121.584 60.998C121.584 60.0593 122.156 59.4633 122.966 59.4633C123.777 59.4633 124.341 60.0518 124.341 60.998C124.341 61.9442 123.777 62.5328 122.966 62.5328C122.156 62.5328 121.584 61.9368 121.584 60.998ZM123.546 60.998C123.546 60.402 123.315 60.1157 122.966 60.1157C122.625 60.1157 122.387 60.4105 122.387 60.998C122.387 61.5866 122.625 61.8814 122.966 61.8814C123.316 61.8804 123.546 61.5951 123.546 60.998ZM126.28 59.5271H127.225L123.427 65.0936H122.481L126.28 59.5271ZM125.365 63.6227C125.365 62.6839 125.937 62.0879 126.74 62.0879C127.55 62.0879 128.122 62.685 128.122 63.6227C128.122 64.5604 127.55 65.1575 126.74 65.1575C125.937 65.1575 125.365 64.5604 125.365 63.6227ZM127.32 63.6227C127.32 63.0341 127.089 62.7393 126.74 62.7393C126.399 62.7393 126.161 63.0256 126.161 63.6227C126.161 64.2187 126.399 64.505 126.74 64.505C127.09 64.505 127.32 64.2113 127.32 63.6227Z" fill="#67B7DC"/>
<path d="M220.369 33.1457H165.028V74.0034H220.369V33.1457Z" fill="white" stroke="#67B7DC" stroke-width="2" stroke-miterlimit="10"/>
<path d="M174.09 59.2583H170.475V65.9562H174.09V59.2583Z" fill="#D3DFFF"/>
<path d="M180.896 51.0725H177.281V65.9562H180.896V51.0725Z" fill="#D3DFFF"/>
<path d="M187.701 43.3367H184.086V65.956H187.701V43.3367Z" fill="#D3DFFF"/>
<path d="M194.507 49.1768H190.891V65.956H194.507V49.1768Z" fill="#D3DFFF"/>
<path d="M201.312 47.7943H197.696V65.9561H201.312V47.7943Z" fill="#D3DFFF"/>
<path d="M208.117 48.09H204.502V65.956H208.117V48.09Z" fill="#D3DFFF"/>
<path d="M214.922 40.2194H211.307V65.9561H214.922V40.2194Z" fill="#D3DFFF"/>
<path d="M172.21 63.6485L171.891 63.3676L179.138 55.152L186.421 50.1474L192.781 55.7693L197.531 51.2905L197.822 51.6003L192.789 56.3461L186.389 50.686L179.423 55.4734L172.21 63.6485Z" fill="#67B7DC"/>
<path d="M194.549 10.5327H134.944V17.2583H194.549V10.5327Z" fill="#67B7DC"/>
<path d="M214.084 23.9785H114.982V24.9119H214.084V23.9785Z" fill="#D3DFFF"/>
<path d="M214.084 21.2112H114.982V22.1446H214.084V21.2112Z" fill="#D3DFFF"/>
<path d="M214.084 88.4771H114.982V89.4105H214.084V88.4771Z" fill="#D3DFFF"/>
<path d="M214.084 91.3147H114.982V92.2481H214.084V91.3147Z" fill="#D3DFFF"/>
<path d="M214.084 94.1533H114.982V95.0867H214.084V94.1533Z" fill="#D3DFFF"/>
<path d="M138.13 78.7991H115.587V81.708H138.13V78.7991Z" fill="#D3DFFF"/>
<path d="M203.97 78.7991H181.427V81.708H203.97V78.7991Z" fill="#D3DFFF"/>
<path d="M43.7229 108.222H42.9949V147.546H43.7229V108.222Z" fill="#6793DC"/>
<path d="M36.649 113.48C40.7652 114.677 42.9184 113.08 43.9297 112.416C44.2816 112.185 44.3305 111.705 44.0477 111.325C43.0609 110.002 40.7705 107.579 37.3806 106.757C33.0018 105.694 28.9994 107.577 28.9994 107.577C28.9994 107.577 33.4696 112.555 36.649 113.48Z" fill="#35A696"/>
<path d="M39.8835 119.106C44.4867 116.331 45.2768 113.053 45.7106 111.586C45.8616 111.075 45.5564 110.636 45.0237 110.583C43.1671 110.397 39.0456 109.503 35.374 111.922C30.6304 115.047 28.6537 121.243 28.6537 121.243C28.6537 121.243 36.3278 121.249 39.8835 119.106Z" fill="#1DD5C5"/>
<path d="M40.9991 120.502C39.939 115.908 42.0774 113.332 42.978 112.131C43.2917 111.712 43.8765 111.62 44.3104 111.912C45.8192 112.934 48.5371 115.356 49.2113 119.151C50.0832 124.054 47.4227 128.757 47.4227 128.757C47.4227 128.757 41.8179 124.05 40.9991 120.502Z" fill="#35A696"/>
<path d="M37.8665 105.984C39.4328 110.053 42.4048 110.916 43.7159 111.369C44.1732 111.527 44.6687 111.295 44.8484 110.846C45.4757 109.281 46.303 106.016 44.8548 102.759C42.9833 98.5506 38.512 96.3293 38.512 96.3293C38.512 96.3293 36.6565 102.841 37.8665 105.984Z" fill="#6AFFF2"/>
<path d="M56.0271 109.048C51.3803 114.059 46.8431 113.831 44.7951 113.834C44.0816 113.836 43.5595 113.262 43.5978 112.536C43.7318 110.007 44.6558 104.967 48.638 101.051C53.7824 95.9909 61.1843 95.0234 61.1843 95.0234C61.1843 95.0234 59.6169 105.178 56.0271 109.048Z" fill="#1DD5C5"/>
<path d="M53.7666 113.398C49.6121 109.988 45.9 110.875 44.2168 111.187C43.6309 111.295 43.2406 111.847 43.3204 112.439C43.6 114.5 44.6985 118.505 48.233 121.117C52.8 124.491 58.9471 124.148 58.9471 124.148C58.9471 124.148 56.9757 116.031 53.7666 113.398Z" fill="#6AFFF2"/>
<path d="M50.9795 166.354H35.5803L32.4478 141.217H54.1121L50.9795 166.354Z" fill="white" stroke="#67B7DC" stroke-width="4" stroke-miterlimit="10"/>
<path d="M56.2347 145.393H30.3256L30.7509 141.217H55.8094L56.2347 145.393Z" fill="white" stroke="#67B7DC" stroke-width="4" stroke-miterlimit="10"/>
<path d="M52.096 166.55H34.4638C32.1171 166.55 30.2158 164.646 30.2158 162.298H56.3451C56.3451 164.646 54.4428 166.55 52.096 166.55Z" fill="#67B7DC"/>
<path d="M260.037 104.839L261.279 106.643C264.258 106.455 266.916 108.645 266.808 109.526H258.912L256.393 105.307L260.037 104.839Z" fill="#F9B384"/>
<path d="M207.266 74.5519L204.822 68.9301L199.443 67.9967C199.443 67.9967 199.509 69.4229 203.357 69.9189L204.127 70.9353L207.266 74.5519Z" fill="#E28B6D"/>
<path d="M205.492 73.7877L203.711 69.078L199.484 70.781C199.484 70.781 200.122 71.6857 202.94 71.2067L203.724 71.7687L205.492 73.7877Z" fill="#E28B6D"/>
<path d="M206.431 74.0399L203.693 69.8156L199.923 72.3763C199.923 72.3763 200.739 73.1256 203.391 72.0592L204.275 72.4423L206.431 74.0399Z" fill="#E28B6D"/>
<path d="M210.386 65.2633L198.48 69.6998L198.999 71.0933L210.905 66.6568L210.386 65.2633Z" fill="#67B7DC"/>
<path d="M198.473 69.7071L197.465 70.8363L198.992 71.1013" fill="#1A262D"/>
<path d="M207.265 74.5521C207.265 74.5521 205.36 71.6912 204.487 71.1068C203.614 70.5225 202.516 70.1181 202.163 69.3166C201.81 68.5152 201.202 69.2762 201.198 69.5838C201.189 70.3128 201.412 71.3474 202.645 72.1041C202.645 72.1041 203.694 75.4163 205.478 75.6622L207.265 74.5521Z" fill="#F9B384"/>
<path d="M207.265 74.5521L208.97 75.9293L209.692 78.8435L207.432 80.0409L204.269 74.4531L207.265 74.5521Z" fill="#F9B384"/>
<path d="M218.397 166.289C222.694 165.546 224.947 163.946 227.256 162.371V166.289H227.977L229.002 159.34C226.722 160.984 223.772 162.582 221.335 163.015L218.397 166.289Z" fill="#263238"/>
<path d="M225.505 134.531L224.784 159.174L221.337 163.014C223.774 162.58 226.723 160.983 229.003 159.339L233.18 131.025L225.505 134.531Z" fill="#F9B384"/>
<path d="M240.783 127.464L235.765 131.646L248.504 157.897L247.903 162.684C249.824 160.722 251.426 158.366 252.582 156.152C249.796 146.445 246.909 136.378 240.783 127.464Z" fill="#F9B384"/>
<path d="M247.902 162.683L247.454 166.249C251.027 163.748 251.551 162.044 252.099 159.737L253.763 163.283L254.416 162.977C253.838 160.695 253.231 158.419 252.58 156.151C251.426 158.365 249.824 160.721 247.902 162.683Z" fill="#263238"/>
<path d="M244.888 131.376C237.798 134.215 231.086 133.032 225.506 134.53C223.145 128.6 221.623 121.175 224.345 106.193C224.553 105.053 224.842 103.929 225.208 102.826L227.509 95.8354L227.564 95.6608L235.531 93.166L239.823 96.0738L239.895 96.2952L239.984 96.5591C240.852 99.2029 241.953 101.757 243.204 104.239C247.81 113.371 248.014 122.729 244.888 131.376Z" fill="#263238"/>
<path d="M261.251 105.146L256.407 107.828L243.221 87.2057C242.698 90.4285 241.601 93.2937 239.98 95.8268C239.929 95.9119 239.878 95.9928 239.823 96.0737C235.144 97.3509 231.589 97.4488 227.565 95.6607C227.51 95.5671 227.454 95.4734 227.399 95.3798C225.753 92.5784 224.536 89.0959 223.55 85.2473L218.918 88.138C217.127 89.2577 214.809 89.015 213.291 87.5505L204.852 79.419L208.199 75.2425L217.574 81.7903L223.435 77.5074C225.106 76.2856 227.008 75.4171 229.024 74.9488L232.201 74.2123L235.497 73.9057L239.593 75.3319C242.668 76.4091 245.276 78.5292 246.956 81.3263L261.251 105.146Z" fill="#6793DC"/>
<path d="M241.318 58.8805C241.23 60.6963 239.594 61.7766 237.884 61.6946C236.174 61.6127 235.569 60.1684 235.088 58.4154C234.546 56.4485 236.131 55.3948 237.842 55.3682C239.944 55.3352 241.404 57.0648 241.318 58.8805Z" fill="#263238"/>
<path d="M236.871 68.9247L236.586 73.8164C236.479 75.6683 234.914 77.0903 233.077 77.0009C231.848 76.9413 230.891 75.9238 230.891 74.6976C230.891 74.6593 230.895 74.6167 230.895 74.5784L230.899 74.5188L231.061 71.0534L233.115 70.2998L236.871 68.9247Z" fill="#F9B384"/>
<path d="M235.603 70.602C235.603 70.602 234.174 73.4928 230.899 74.5188L231.061 71.0533L233.115 70.2997L235.603 70.602Z" fill="#1A262D"/>
<path d="M237.849 64.2715L237.058 68.9844C237.058 68.9844 234.357 73.0033 230.495 72.6499C228.904 72.5052 228.164 71.4962 227.845 70.3637C227.599 69.4782 227.607 68.5118 227.667 67.8264C227.718 67.2516 227.798 66.8685 227.798 66.8685L227.28 64.4333L228.602 61.9214L233.732 60.2227L237.849 64.2715Z" fill="#F9B384"/>
<path d="M238.005 66.6193C238.383 65.7337 238.874 65.0994 238.889 62.8132C238.776 59.5617 235.958 57.0583 232.116 57.9024C231.881 57.9545 231.648 58.0279 231.422 58.1142C225.947 60.2183 225.948 64.2649 227.545 65.8178C228.456 63.1729 230.745 62.5375 233.333 62.5131C234.174 65.1345 236.098 66.6288 237.441 66.5256L238.005 66.6193Z" fill="#263238"/>
<path d="M238.65 67.7282C238.44 68.6063 237.767 69.3939 237.19 69.3141C236.612 69.2343 236.24 68.4797 236.358 67.6293C236.476 66.7789 237.04 66.1551 237.617 66.235C238.195 66.3148 238.9 66.6831 238.65 67.7282Z" fill="#F9B384"/>
<path d="M237.09 67.9156L236.878 67.8953C236.881 67.8655 236.952 67.162 237.373 66.9225C237.568 66.8118 237.799 66.8182 238.058 66.9396L237.968 67.1322C237.771 67.0396 237.611 67.0311 237.479 67.1067C237.209 67.261 237.107 67.7431 237.09 67.9156Z" fill="#E28B6D"/>
<path d="M229.435 67.2048C229.611 67.2048 229.754 66.9765 229.754 66.6949C229.754 66.4134 229.611 66.1851 229.435 66.1851C229.259 66.1851 229.116 66.4134 229.116 66.6949C229.116 66.9765 229.259 67.2048 229.435 67.2048Z" fill="#1A262D"/>
<path d="M232.873 67.0546C233.049 67.0546 233.192 66.8044 233.192 66.4958C233.192 66.1872 233.049 65.937 232.873 65.937C232.697 65.937 232.554 66.1872 232.554 66.4958C232.554 66.8044 232.697 67.0546 232.873 67.0546Z" fill="#1A262D"/>
<path d="M231.215 66.4521C231.138 66.732 230.983 66.98 230.825 67.2099C230.668 67.4408 230.492 67.6569 230.36 67.8793C230.296 67.99 230.241 68.1028 230.23 68.2072C230.213 68.3104 230.249 68.3966 230.322 68.486C230.497 68.6829 230.701 68.8638 230.92 69.0171L230.873 69.115C230.601 69.0139 230.359 68.8532 230.147 68.6542C230.089 68.5988 230.035 68.5275 229.999 68.4445C229.963 68.3615 229.953 68.2668 229.959 68.1816C229.976 68.0081 230.045 67.8655 230.12 67.7378C230.274 67.4855 230.458 67.2759 230.634 67.0651C230.809 66.8544 230.98 66.6468 231.113 66.4116L231.215 66.4521Z" fill="#1A262D"/>
<path d="M230.037 69.9826C230.229 70.0103 230.431 70.0103 230.622 69.9858C230.815 69.9603 231.001 69.9124 231.181 69.8421C231.267 69.7995 231.359 69.7687 231.441 69.7155C231.483 69.691 231.528 69.6718 231.569 69.6441C231.609 69.6175 231.65 69.5899 231.692 69.5643C231.736 69.5398 231.774 69.509 231.813 69.4792L231.935 69.3908C232.013 69.3291 232.089 69.261 232.174 69.2003L232.259 69.2727C232.201 69.3621 232.14 69.4494 232.073 69.5345C231.998 69.6111 231.929 69.6963 231.844 69.7633C231.681 69.9081 231.488 70.0199 231.285 70.105C231.078 70.1838 230.857 70.2295 230.636 70.2285C230.415 70.2274 230.197 70.1901 229.996 70.0869L230.037 69.9826Z" fill="#1A262D"/>
<path d="M228.462 65.8614C228.552 65.69 228.696 65.5495 228.862 65.442C229.029 65.3356 229.22 65.2664 229.418 65.2377C229.616 65.2089 229.82 65.2228 230.009 65.2813C230.198 65.3399 230.374 65.4388 230.506 65.5804L230.422 65.7241C230.248 65.689 230.091 65.6602 229.935 65.6485C229.778 65.6368 229.626 65.6389 229.475 65.6581C229.324 65.6772 229.174 65.7134 229.028 65.7667C228.879 65.8188 228.735 65.8901 228.583 65.9753L228.462 65.8614Z" fill="#1A262D"/>
<path d="M231.821 65.605C231.842 65.5582 231.869 65.5114 231.897 65.4635C231.93 65.422 231.969 65.3837 232.007 65.3432C232.048 65.3102 232.093 65.2804 232.138 65.2485C232.183 65.2219 232.231 65.2006 232.28 65.1772C232.476 65.0995 232.68 65.0739 232.878 65.0771C233.077 65.0814 233.27 65.1144 233.456 65.1793C233.503 65.1963 233.548 65.2155 233.593 65.2336C233.638 65.257 233.683 65.2783 233.726 65.3028C233.811 65.3581 233.899 65.4124 233.967 65.5093L233.855 65.6327C233.707 65.5912 233.534 65.5646 233.368 65.5423C233.2 65.522 233.032 65.5061 232.867 65.5007C232.702 65.4954 232.541 65.4997 232.388 65.5252C232.233 65.5497 232.092 65.5976 231.959 65.6976L231.821 65.605Z" fill="#1A262D"/>
<path opacity="0.6" d="M239.895 96.2951C238.085 99.9277 230.172 100.173 227.509 95.8353L227.565 95.6608C231.588 97.4489 235.144 97.351 239.823 96.0738L239.895 96.2951Z" fill="#1A262D"/>
<path d="M224.471 88.9404C223.661 87.197 223.169 84.7416 222.966 81.4326L223.284 81.4134C223.484 84.682 223.967 87.1002 224.759 88.8063L224.471 88.9404Z" fill="#1F2B31"/>
<path d="M242.633 90.4731L242.323 90.3954C242.37 90.2092 242.418 90.025 242.466 89.842C242.921 88.0879 243.391 86.2732 243.1 82.4289L243.419 82.4044C243.714 86.302 243.237 88.1422 242.776 89.9218C242.727 90.1049 242.68 90.2879 242.633 90.4731Z" fill="#1F2B31"/>
<path d="M111.28 81.1921C111.854 79.8968 111.611 78.2929 108.994 75.7906L108.781 79.1167L111.28 81.1921Z" fill="#1A262D"/>
<path d="M117.342 74.2366C117.224 74.2877 112.185 77.8713 111.953 77.9607C111.833 78.0065 109.847 76.7208 109.478 76.1343C109.409 76.0247 110.174 70.0038 110.844 70.2922C111.702 70.6604 111.264 72.3346 111.234 72.8721C111.393 72.8604 111.319 72.8551 111.481 72.8445C111.492 72.8434 111.5 72.8445 111.513 72.8455C112.26 71.5822 113.009 70.3177 113.757 69.0554C113.8 68.982 113.855 68.9309 113.917 68.899C114.137 68.7851 114.383 68.9628 114.4 69.2066C114.452 69.9399 113.718 71.5151 113.43 72.1292C114.232 71.4534 115.411 70.2379 116.241 69.594C116.627 69.297 117.004 69.7568 116.72 70.2113C116.453 70.637 115.005 72.3176 114.384 72.9466C115.059 72.6401 117.031 71.3065 117.136 71.398C117.408 71.4214 117.634 71.7503 117.38 72.0058C116.564 72.8328 115.93 73.4809 114.975 74.1217C115.796 74.0078 116.35 73.863 117.129 73.5267C117.575 73.333 117.788 74.045 117.342 74.2366Z" fill="#F9B384"/>
<path d="M109.833 74.6516L107.984 77.1784L109.06 82.9662L113.913 76.3067L109.833 74.6516Z" fill="#F9B384"/>
<path d="M111.947 75.0986L111.731 75.0071C112.129 74.0652 111.384 73.1594 111.377 73.1499L111.557 72.9987C111.592 73.0402 112.401 74.0269 111.947 75.0986Z" fill="#E28B6D"/>
<path d="M114.666 74.7037C114.268 73.6905 113.712 73.0391 112.966 72.7123L113.06 72.4973C113.855 72.8464 114.469 73.5596 114.885 74.6186L114.666 74.7037Z" fill="#E28B6D"/>
<path d="M87.3201 71.4833C88.6662 71.2736 90.8025 71.3843 92.8962 71.7292C95.5343 72.1634 97.8364 73.7706 99.2347 76.0514L102.862 81.9138L108.994 75.7907C109.311 77.9119 110.085 79.7032 111.28 81.1922L104.458 88.3786C103.3 89.4237 101.552 89.4567 100.354 88.4563L95.596 84.929L90.2793 83.2612L87.3201 71.4833Z" fill="#27BBFF"/>
<path d="M83.543 156.895L86.5426 152.264L82.7295 149.038L79.9244 153.323C80.8719 154.605 82.0947 155.82 83.543 156.895Z" fill="#E28B6D"/>
<path d="M83.5432 156.895C82.0949 155.82 80.8721 154.604 79.9246 153.323L76.6687 158.298L85.5571 166.243C86.1324 163.726 84.4544 159.619 83.0487 157.659L83.5432 156.895Z" fill="#1A262D"/>
<path d="M95.9506 166.209C94.2493 164.222 90.2086 162.874 87.9405 162.377L87.8948 161.287C86.4763 161.279 84.9919 161.113 83.6744 160.764L83.97 166.209H95.9506Z" fill="#1A262D"/>
<path d="M87.8946 161.287L87.6564 155.566L83.4031 155.778L83.6742 160.764C84.9917 161.113 86.4761 161.279 87.8946 161.287Z" fill="#F9B384"/>
<path d="M88.3658 129.987L88.3563 129.814L87.8433 131.199L88.3658 129.987Z" fill="#1A262D"/>
<path d="M99.039 118.147L96.1276 98.3757L85.4942 98.9079L87.6932 117.283L87.6943 117.306L90.1367 122.874C90.41 123.503 90.4313 124.214 90.1952 124.857L87.6932 131.601V131.546L79.3269 150.954L86.3449 156.382L97.2441 131.518C99.0858 127.317 99.7078 122.684 99.039 118.147Z" fill="#1A262D"/>
<path d="M79.0079 98.163L77.8329 105.575C77.2013 109.556 77.1098 113.603 77.5607 117.608L82.1266 158.687H89.57L88.8618 109.663L96.9431 104.057L96.0212 97.7426L79.0079 98.163Z" fill="#263238"/>
<path d="M76.8816 100.999C76.8816 100.999 75.6056 100.08 76.5626 98.4833C76.5923 98.4322 76.6221 98.3683 76.6476 98.2917C76.8773 97.6318 76.9071 96.0992 76.8348 94.277C76.6604 89.9643 75.9246 84.0083 75.9246 84.0083L77.7322 75.9194L81.4879 72.3347L90.7049 72.2623L95.3113 78.4354L96.5192 92.6294C96.5192 92.6294 96.7319 94.971 97.8633 97.3806C99.9389 101.791 78.6509 102.694 76.8816 100.999Z" fill="#27BBFF"/>
<path d="M94.4067 76.3826L94.0878 76.3984L94.4423 83.5656L94.7612 83.5498L94.4067 76.3826Z" fill="#1A262D"/>
<path d="M98.3905 93.7671L87.7178 95.27L87.8092 80.4235L98.483 78.9207L98.3905 93.7671Z" fill="#F6F5F5"/>
<path d="M89.7778 83.3911L89.7151 82.9207L96.9893 81.8872L97.0532 82.3577L89.7778 83.3911Z" fill="#67B7DC"/>
<path d="M89.769 85.4122L89.7052 84.9407L96.9805 83.9072L97.0433 84.3776L89.769 85.4122Z" fill="#67B7DC"/>
<path d="M89.8167 87.5513L89.7529 87.0798L97.0283 86.0463L97.091 86.5168L89.8167 87.5513Z" fill="#67B7DC"/>
<path d="M89.8061 89.8685L89.7423 89.397L97.0176 88.3635L97.0804 88.834L89.8061 89.8685Z" fill="#D3DFFF"/>
<path d="M89.7967 92.0076L89.7329 91.5361L97.0082 90.5027L97.071 90.9731L89.7967 92.0076Z" fill="#D3DFFF"/>
<path d="M84.484 94.2249C84.484 94.2249 87.3018 91.7653 85.7419 87.9507L82.7295 91.3491L84.484 94.2249Z" fill="#6F3428"/>
<path opacity="0.3" d="M78.1827 90.9594C78.584 90.7114 79.4748 90.9403 79.6994 90.4113C80.5913 88.3146 79.5983 83.7837 78.5276 81.4166L78.1827 90.9594Z" fill="#6F3428"/>
<path opacity="0.3" d="M84.4862 94.2259C84.4862 94.2259 83.0018 97.5466 76.6473 98.2916C76.877 97.6317 76.9068 96.0991 76.8345 94.2769L84.4862 94.2259Z" fill="#6F3428"/>
<path d="M87.6169 87.3778L82.683 89.2787L82.8733 93.6446L88.7993 91.1424L87.6169 87.3778Z" fill="#F9B384"/>
<path d="M93.2068 88.425C93.0314 88.4623 92.8517 88.4793 92.673 88.5059C92.9134 88.8263 92.7964 89.4404 92.2637 89.5266C92.2232 89.533 92.1828 89.5373 92.1424 89.5437C92.1914 89.7331 92.1797 89.8853 92.0467 90.0588C91.9574 90.1759 91.195 90.6878 90.8845 90.8358C86.225 93.056 85.4349 90.508 85.6593 89.6277C85.8347 88.9476 86.5599 88.1643 87.1522 87.5427C89.0439 85.9441 90.2295 85.2714 92.1392 84.9553C92.907 84.8276 92.8208 85.5652 92.186 85.9569C91.8936 86.1367 91.5619 86.2974 91.2418 86.3996C91.229 86.4145 91.2141 86.4273 91.1971 86.439C90.6899 86.8009 90.2104 87.1957 89.7595 87.6215C90.3699 87.6044 93.6439 87.2309 93.9799 87.7194C94.099 87.8886 93.6481 88.3314 93.2068 88.425Z" fill="#F9B384"/>
<path d="M92.661 88.3936L89.9871 88.6246L90.0074 88.86L92.6813 88.629L92.661 88.3936Z" fill="#E28B6D"/>
<path d="M92.1237 89.4248L89.98 89.742L90.0146 89.9758L92.1583 89.6585L92.1237 89.4248Z" fill="#E28B6D"/>
<path d="M84.1832 71.0574C81.6078 71.2649 79.3003 72.0834 77.3576 73.1946C74.2548 74.9699 72.3281 78.2598 72.2387 81.8359C72.1632 84.8618 72.0612 88.9489 71.9803 92.1823C71.9133 94.8517 74.3813 96.8654 76.9812 96.263L84.4851 94.2237C84.2395 92.2717 84.8212 90.1335 85.8675 87.8909L78.1051 89.1149L78.2997 81.4868L85.5304 80.0681L84.1832 71.0574Z" fill="#27BBFF"/>
<path d="M76.09 89.9197L75.9656 89.6259C78.3017 88.6382 82.4742 88.0954 85.8482 87.7336L85.8822 88.0507C82.5306 88.4105 78.3878 88.948 76.09 89.9197Z" fill="#1A262D"/>
<path d="M86.342 76.0554C85.3339 76.0554 84.3525 75.7158 83.5858 75.0889L83.7879 74.842C84.6247 75.5253 85.738 75.8404 86.8428 75.7063C87.8508 75.5839 88.7121 75.1102 89.2661 74.3727L89.5213 74.5642C88.9142 75.3721 87.9774 75.8893 86.8821 76.0224C86.7014 76.0447 86.5217 76.0554 86.342 76.0554Z" fill="#1A262D"/>
<path d="M88.65 66.9036V70.7299C88.65 70.8938 88.6373 71.0545 88.6107 71.2089C88.3927 72.6521 87.1954 73.7526 85.7535 73.7526C84.1553 73.7526 82.8623 72.4009 82.8623 70.7299V66.9036H88.65Z" fill="#F9B384"/>
<path d="M88.6502 68.2648V70.9342C88.6502 71.0875 88.6375 71.2365 88.612 71.3812C85.1965 71.4536 84.1119 68.5533 84.1119 68.5533L88.6502 68.2648Z" fill="#1A262D"/>
<path d="M91.0408 66.8046C90.9472 67.7966 90.5644 68.8141 89.5734 69.5463C88.1528 70.6021 85.0309 70.8618 82.062 66.0085L81.9855 59.2563L86.6982 58.4772L90.59 60.1163L90.4624 63.4157C90.4624 63.4157 90.6623 63.867 90.8324 64.5482C90.9855 65.1698 91.1174 65.9787 91.0408 66.8046Z" fill="#F9B384"/>
<path d="M82.8937 65.2411C82.5757 63.3413 83.3498 61.815 84.7183 61.0849C86.7185 61.7788 89.7139 62.0566 91.2047 60.6709C92.8018 59.4724 92.385 55.3385 88.8356 55.4492C87.5255 55.6312 87.0024 56.3326 86.8695 57.2937C80.902 53.7261 76.6072 62.2663 81.5294 64.9761L82.8937 65.2411Z" fill="#263238"/>
<path d="M83.6761 65.985C83.7261 66.9589 82.9711 67.5156 82.1927 67.5549C81.4144 67.5943 80.3861 66.5811 80.3361 65.6072C80.2862 64.6333 80.9497 64.1682 81.7281 64.1288C82.5064 64.0884 83.6261 65.0112 83.6761 65.985Z" fill="#F9B384"/>
<path d="M82.6023 65.7477C82.498 65.6083 82.3927 65.4678 82.282 65.3443C82.1702 65.2219 82.0521 65.1102 81.9254 65.0495C81.7998 64.9867 81.6785 64.9793 81.5423 65.0261C81.4071 65.0772 81.2687 65.1751 81.1293 65.2837L81.0314 65.206C81.1133 65.0378 81.2379 64.8803 81.422 64.7728C81.5156 64.7206 81.6274 64.6887 81.7423 64.6866C81.8573 64.6866 81.9712 64.7164 82.068 64.7664C82.2607 64.8686 82.3958 65.0208 82.4991 65.1815C82.6013 65.3433 82.6758 65.5146 82.7162 65.6998L82.6023 65.7477Z" fill="#E28B6D"/>
<path d="M89.1852 63.8798C89.2054 64.1555 89.3523 64.3694 89.513 64.3577C89.6737 64.3449 89.7866 64.1118 89.7663 63.8351C89.7461 63.5594 89.5992 63.3455 89.4385 63.3572C89.2778 63.37 89.165 63.6031 89.1852 63.8798Z" fill="#1A262D"/>
<path d="M86.0994 64.162C86.1196 64.4376 86.2665 64.6516 86.4272 64.6398C86.5879 64.6271 86.7007 64.394 86.6805 64.1173C86.6603 63.8416 86.5134 63.6277 86.3527 63.6394C86.192 63.6511 86.0781 63.8863 86.0994 64.162Z" fill="#1A262D"/>
<path d="M87.9774 64.2407C88.1158 64.4397 88.2861 64.6121 88.4595 64.7867C88.6341 64.9623 88.815 65.1358 88.9747 65.3529C89.0513 65.4626 89.1258 65.5881 89.1524 65.7478C89.1641 65.8266 89.1588 65.9149 89.1301 65.9947C89.1024 66.0735 89.0545 66.1416 89.0056 66.1948C88.8246 66.3875 88.616 66.545 88.3733 66.6503L88.3201 66.5556C88.5053 66.4013 88.6767 66.2257 88.8204 66.0384C88.881 65.9532 88.9044 65.8798 88.8842 65.7925C88.8693 65.7042 88.8129 65.6073 88.7469 65.5136C88.6139 65.3242 88.4404 65.1432 88.2818 64.9463C88.1232 64.7505 87.9657 64.5376 87.8784 64.2886L87.9774 64.2407Z" fill="#1A262D"/>
<path d="M89.2446 67.6721C89.0798 67.7967 88.8906 67.8648 88.6917 67.901C88.4929 67.9361 88.2876 67.9308 88.0888 67.8935C87.8921 67.8488 87.7007 67.7796 87.5316 67.6743C87.4444 67.6274 87.3689 67.5614 87.2902 67.504C87.2169 67.439 87.1477 67.3688 87.0829 67.2964L87.152 67.2123C87.2392 67.2517 87.3168 67.2996 87.3987 67.3411L87.522 67.3997C87.5624 67.4199 87.6018 67.4412 87.6443 67.4561C87.6858 67.472 87.7262 67.4901 87.7677 67.5072C87.8081 67.5242 87.8517 67.5348 87.8931 67.5497C87.975 67.5838 88.0622 67.5966 88.1452 67.621C88.3164 67.6562 88.4897 67.67 88.6651 67.6647C88.8395 67.6583 89.0203 67.6296 89.1893 67.5785L89.2446 67.6721Z" fill="#1A262D"/>
<path d="M89.9501 63.0134C89.8149 62.9687 89.6957 62.9314 89.5765 62.9133C89.4583 62.8931 89.3434 62.8889 89.2327 62.8995C89.122 62.9112 89.0145 62.9368 88.9102 62.9783C88.8059 63.0198 88.7058 63.0794 88.5962 63.1656L88.4493 63.0879C88.4717 62.9219 88.5749 62.7665 88.7133 62.659C88.8517 62.5504 89.0241 62.4887 89.1965 62.4759C89.5414 62.4472 89.8915 62.6111 90.0586 62.8867L89.9501 63.0134Z" fill="#1A262D"/>
<path d="M87.3454 63.3242C87.1753 63.2656 87.0222 63.2188 86.8648 63.1975C86.7085 63.173 86.5511 63.1773 86.3938 63.1922C86.2364 63.2092 86.0779 63.2422 85.9184 63.2837C85.76 63.3273 85.5963 63.3795 85.4453 63.4444L85.3262 63.3284C85.4399 63.1432 85.6048 63.0293 85.7792 62.9357C85.9557 62.8441 86.1513 62.7877 86.3534 62.7696C86.5554 62.7526 86.7659 62.7707 86.9584 62.8441C87.1509 62.9186 87.3231 63.0368 87.4465 63.1911L87.3454 63.3242Z" fill="#1A262D"/>
<path d="M282.105 110.294V165.639" stroke="#1A262D" stroke-width="2" stroke-miterlimit="10"/>
<path d="M306.419 109.3H257.789V111.833H306.419V109.3Z" fill="#D3DFFF"/>
<path d="M292.393 166.542H271.816C271.816 164.721 273.29 163.245 275.109 163.245H289.099C290.918 163.245 292.393 164.721 292.393 166.542Z" fill="#67B7DC"/>
<path d="M286.252 107.171H271.719V109.3H286.252V107.171Z" fill="#1A262D"/>
<path d="M293.154 109.3H276.576L283.388 93.1046H299.966L293.154 109.3Z" fill="#67B7DC"/>
<path d="M5.00024 166.286H324" stroke="#1A262D" stroke-width="2" stroke-miterlimit="10"/>
<path d="M272.159 41.7456C264.778 41.7456 258.794 47.7346 258.794 55.1233C258.794 57.2392 259.287 59.2401 260.161 61.0186L256.171 65.3079L261.925 63.7242C264.377 66.6436 268.051 68.5009 272.159 68.5009C279.541 68.5009 285.524 62.5119 285.524 55.1233C285.524 47.7346 279.54 41.7456 272.159 41.7456Z" fill="white" stroke="#67B7DC" stroke-width="2" stroke-miterlimit="10"/>
<path d="M267.105 56.4288C267.826 55.7085 267.826 54.5407 267.105 53.8204C266.385 53.1 265.217 53.1 264.497 53.8204C263.776 54.5407 263.776 55.7085 264.497 56.4288C265.217 57.1491 266.385 57.1492 267.105 56.4288Z" fill="#67B7DC"/>
<path d="M273.934 55.4171C274.097 54.4116 273.415 53.4641 272.41 53.3009C271.406 53.1377 270.459 53.8206 270.296 54.8262C270.133 55.8317 270.815 56.7792 271.82 56.9424C272.824 57.1055 273.771 56.4227 273.934 55.4171Z" fill="#D3DFFF"/>
<path d="M280.221 55.5648C280.455 54.5735 279.842 53.58 278.851 53.3459C277.861 53.1118 276.868 53.7257 276.635 54.7171C276.401 55.7085 277.014 56.7019 278.004 56.936C278.995 57.1701 279.987 56.5562 280.221 55.5648Z" fill="#D3DFFF"/>
<path d="M51.8846 38.3188C59.2662 38.3188 65.2496 44.3078 65.2496 51.6964C65.2496 53.8123 64.7573 55.8132 63.8832 57.5917L67.8729 61.881L62.1192 60.2973C59.6671 63.2168 55.9933 65.074 51.8846 65.074C44.5029 65.074 38.5195 59.085 38.5195 51.6964C38.5195 44.3078 44.5029 38.3188 51.8846 38.3188Z" fill="white" stroke="#67B7DC" stroke-width="2" stroke-miterlimit="10"/>
<path d="M58.1669 53.1823C59.1846 53.1823 60.0096 52.3565 60.0096 51.3378C60.0096 50.3191 59.1846 49.4933 58.1669 49.4933C57.1491 49.4933 56.3241 50.3191 56.3241 51.3378C56.3241 52.3565 57.1491 53.1823 58.1669 53.1823Z" fill="#67B7DC"/>
<path d="M53.701 51.3644C53.7164 50.3458 52.9039 49.5076 51.8863 49.4923C50.8686 49.4769 50.0312 50.2901 50.0159 51.3087C50.0005 52.3273 50.813 53.1655 51.8306 53.1809C52.8482 53.1963 53.6856 52.383 53.701 51.3644Z" fill="#D3DFFF"/>
<path d="M47.3919 51.347C47.3971 50.3283 46.5763 49.4982 45.5586 49.493C44.5409 49.4878 43.7116 50.3094 43.7064 51.328C43.7011 52.3467 44.5219 53.1768 45.5397 53.182C46.5574 53.1872 47.3867 52.3657 47.3919 51.347Z" fill="#D3DFFF"/>
</svg>
