<svg width="80" height="80" viewBox="0 0 80 80" fill="none" xmlns="http://www.w3.org/2000/svg">
<g clip-path="url(#clip0_97_3608)">
<path d="M44.7244 38.7109H22.1016C21.3896 38.7109 20.8125 39.2881 20.8125 40C20.8125 40.7119 21.3896 41.2891 22.1016 41.2891H44.7244C45.4363 41.2891 46.0134 40.7119 46.0134 40C46.0134 39.2881 45.4364 38.7109 44.7244 38.7109Z" fill="#AED4FF"/>
<path d="M22.6973 36.0067H32.6853C33.4323 36.0067 34.1511 35.7808 34.7637 35.3537L38.4979 32.7502C39.0818 32.343 39.2253 31.5396 38.818 30.9556C38.4108 30.3716 37.6073 30.2283 37.0234 30.6355L33.2893 33.2389C33.1111 33.363 32.9023 33.4286 32.6853 33.4286H22.6973C21.9854 33.4286 21.4082 34.0058 21.4082 34.7177C21.4082 35.4296 21.9852 36.0067 22.6973 36.0067Z" fill="#AED4FF"/>
<path d="M38.4984 47.2498L34.7642 44.6464C34.1514 44.2191 33.4327 43.9934 32.6858 43.9934H22.6978C21.9858 43.9934 21.4087 44.5706 21.4087 45.2825C21.4087 45.9944 21.9858 46.5715 22.6978 46.5715H32.6858C32.9029 46.5715 33.1117 46.6372 33.2897 46.7613L37.0239 49.3647C37.2486 49.5213 37.5056 49.5965 37.76 49.5965C38.1673 49.5965 38.568 49.404 38.8185 49.0445C39.2258 48.4605 39.0823 47.657 38.4984 47.2498Z" fill="#AED4FF"/>
<path d="M68.7109 32.7116H65.1118C64.5767 30.8639 63.8389 29.0835 62.9096 27.3977L65.4554 24.8519C65.9588 24.3484 65.9588 23.5322 65.4554 23.0288L56.9711 14.5446C56.4677 14.0413 55.6514 14.0412 55.148 14.5446L52.6023 17.0903C50.9164 16.1611 49.1361 15.4233 47.2884 14.8881V11.2891C47.2884 10.5771 46.7112 10 45.9993 10H34.0007C33.2888 10 32.7116 10.5771 32.7116 11.2891V14.8882C30.8639 15.4233 29.0836 16.1611 27.3977 17.0904L24.8519 14.5446C24.3484 14.0412 23.5322 14.0412 23.0288 14.5446L14.5446 23.0289C14.0413 23.5323 14.0413 24.3486 14.5446 24.852L17.0904 27.3978C16.1613 29.0836 15.4234 30.8641 14.8882 32.7118H11.2891C10.5771 32.7118 10 33.2889 10 34.0008V45.9994C10 46.7113 10.5771 47.2885 11.2891 47.2885H14.8882C15.4233 49.1362 16.1611 50.9166 17.0904 52.6025L14.5446 55.1482C14.0413 55.6517 14.0413 56.4679 14.5446 56.9713L23.0289 65.4556C23.5323 65.959 24.3486 65.959 24.852 65.4556L27.3978 62.9098C29.0836 63.839 30.8641 64.5768 32.7118 65.112V68.7109C32.7118 69.4229 33.2889 70 34.0008 70H45.9994C46.7113 70 47.2885 69.4229 47.2885 68.7109V65.1118C49.1362 64.5767 50.9165 63.8389 52.6025 62.9096L55.1482 65.4554C55.6518 65.9588 56.4678 65.9587 56.9713 65.4554L65.4555 56.9711C65.9589 56.4677 65.9589 55.6514 65.4555 55.148L62.9097 52.6022C63.839 50.9165 64.5768 49.1359 65.1119 47.2882H68.7109C69.4229 47.2882 70 46.7111 70 45.9992V34.0007C70 33.2888 69.4229 32.7116 68.7109 32.7116ZM67.4219 44.7102H64.1235C63.531 44.7102 63.0148 45.1141 62.8723 45.6892C62.308 47.9655 61.4073 50.1389 60.1952 52.1493C59.8892 52.6567 59.9685 53.3073 60.3876 53.7264L62.7207 56.0596L56.0595 62.7209L53.7263 60.3877C53.3075 59.9689 52.657 59.8893 52.1492 60.1953C50.1387 61.4075 47.9652 62.3082 45.6891 62.8723C45.1141 63.0148 44.7101 63.531 44.7101 64.1235V67.4219H35.2896V64.1235C35.2896 63.531 34.8858 63.0149 34.3107 62.8723C32.0345 62.3082 29.8611 61.4075 27.8506 60.1953C27.3433 59.8892 26.6925 59.9686 26.2735 60.3877L23.9403 62.7209L17.279 56.0596L19.6122 53.7264C20.0311 53.3073 20.1106 52.6567 19.8046 52.1493C18.5924 50.1388 17.6917 47.9654 17.1276 45.6892C16.9851 45.1142 16.4689 44.7102 15.8764 44.7102H12.5781V35.2898H15.8765C16.469 35.2898 16.9851 34.8859 17.1277 34.3108C17.6918 32.0346 18.5925 29.8611 19.8047 27.8507C20.1107 27.3433 20.0314 26.6927 19.6123 26.2736L17.2791 23.9404L23.9404 17.2791L26.2736 19.6123C26.6927 20.0312 27.3434 20.1108 27.8507 19.8047C29.8612 18.5925 32.0346 17.6918 34.3108 17.1277C34.8858 16.9852 35.2898 16.469 35.2898 15.8765V12.5781H44.7102V15.8765C44.7102 16.469 45.1141 16.9851 45.6892 17.1277C47.9654 17.6918 50.1388 18.5925 52.1493 19.8047C52.6571 20.1109 53.3076 20.0314 53.7264 19.6123L56.0596 17.2791L62.7208 23.9404L60.3877 26.2736C59.9688 26.6927 59.8893 27.3433 60.1953 27.8507C61.4075 29.8611 62.308 32.0346 62.8724 34.3108C63.0149 34.8858 63.5311 35.2898 64.1236 35.2898H67.4219V44.7102Z" fill="#003570"/>
<path d="M40 20.6953C29.3554 20.6953 20.6953 29.3554 20.6953 40C20.6953 50.6446 29.3554 59.3046 40 59.3046C50.6446 59.3046 59.3046 50.6446 59.3046 40C59.3046 29.3554 50.6446 20.6953 40 20.6953ZM40 56.7265C30.7768 56.7265 23.2734 49.223 23.2734 40C23.2734 30.777 30.7768 23.2734 40 23.2734C49.223 23.2734 56.7265 30.777 56.7265 40C56.7265 49.223 49.223 56.7265 40 56.7265Z" fill="#003570"/>
<path d="M47.6042 35.988C45.3921 35.988 43.5923 37.7878 43.5923 40C43.5923 42.2121 45.3921 44.0119 47.6042 44.0119C49.8163 44.0119 51.616 42.2121 51.616 40C51.616 37.7878 49.8163 35.988 47.6042 35.988ZM47.6042 41.4337C46.8135 41.4337 46.1704 40.7905 46.1704 40C46.1704 39.2094 46.8135 38.5662 47.6042 38.5662C48.3947 38.5662 49.0379 39.2094 49.0379 40C49.0379 40.7905 48.3947 41.4337 47.6042 41.4337Z" fill="#003570"/>
<path d="M40.2683 33.9567C42.4804 33.9567 44.2802 32.1569 44.2802 29.9448C44.2802 27.7326 42.4804 25.9329 40.2683 25.9329C38.0561 25.9329 36.2563 27.7326 36.2563 29.9448C36.2563 32.1569 38.0561 33.9567 40.2683 33.9567ZM40.2683 28.5109C41.0589 28.5109 41.7021 29.1541 41.7021 29.9447C41.7021 30.7352 41.0589 31.3784 40.2683 31.3784C39.4777 31.3784 38.8345 30.7352 38.8345 29.9447C38.8345 29.1541 39.4777 28.5109 40.2683 28.5109Z" fill="#003570"/>
<path d="M40.2683 46.0433C38.0561 46.0433 36.2563 47.8431 36.2563 50.0552C36.2563 52.2674 38.0561 54.0672 40.2683 54.0672C42.4804 54.0672 44.2802 52.2674 44.2802 50.0552C44.2802 47.8431 42.4804 46.0433 40.2683 46.0433ZM40.2683 51.489C39.4777 51.489 38.8345 50.8458 38.8345 50.0552C38.8345 49.2646 39.4777 48.6215 40.2683 48.6215C41.0589 48.6215 41.7021 49.2647 41.7021 50.0552C41.7021 50.8458 41.0589 51.489 40.2683 51.489Z" fill="#003570"/>
</g>
<defs>
<clipPath id="clip0_97_3608">
<rect width="60" height="60" fill="white" transform="translate(10 10)"/>
</clipPath>
</defs>
</svg>
