<svg width="80" height="80" viewBox="0 0 80 80" fill="none" xmlns="http://www.w3.org/2000/svg">
<g clip-path="url(#clip0_97_3609)">
<path d="M56.0178 45.0575H50.08C50.2615 44.506 50.3559 43.9228 50.3559 43.3243C50.3559 40.2805 47.8795 37.8042 44.8357 37.8042C41.792 37.8042 39.3156 40.2805 39.3156 43.3243C39.3156 43.9228 39.4098 44.506 39.5915 45.0575H34.9428V38.1252C34.9428 37.6015 34.6259 37.1297 34.141 36.9318C33.6558 36.7339 33.0996 36.8489 32.7329 37.223C32.1747 37.7926 31.4283 38.1064 30.6313 38.1064C29.0091 38.1064 27.6895 36.7867 27.6895 35.1644C27.6895 33.5422 29.0092 32.2225 30.6313 32.2225C31.4283 32.2225 32.1747 32.5362 32.7329 33.1059C33.0994 33.4799 33.6555 33.5952 34.141 33.3971C34.6259 33.1992 34.9428 32.7274 34.9428 32.2037V23.9823C34.9428 23.2704 34.3656 22.6932 33.6537 22.6932H22.1692C15.4589 22.6932 10 28.1522 10 34.8622V57.831C10 64.541 15.4589 70 22.169 70H45.1379C51.8479 70 57.3068 64.541 57.3068 57.831V46.3466C57.3068 45.6347 56.7297 45.0575 56.0178 45.0575ZM22.169 25.2714H32.3644V29.9201C31.8129 29.7385 31.2297 29.6442 30.6312 29.6442C27.5874 29.6442 25.1112 32.1205 25.1112 35.1643C25.1112 38.2082 27.5875 40.6844 30.6312 40.6844C31.2297 40.6844 31.8129 40.5902 32.3644 40.4086V45.0574H25.4321C24.9082 45.0574 24.4366 45.3744 24.2385 45.8593C24.0407 46.3443 24.1558 46.9008 24.5298 47.2673C25.0995 47.8254 25.4132 48.5718 25.4132 49.3687C25.4132 50.991 24.0934 52.3106 22.4713 52.3106C20.8492 52.3106 19.5293 50.9909 19.5293 49.3687C19.5293 48.5718 19.843 47.8254 20.4127 47.2673C20.7868 46.9008 20.902 46.3444 20.704 45.8593C20.5061 45.3744 20.0343 45.0574 19.5105 45.0574H12.5781V34.8621C12.5781 29.5738 16.8805 25.2714 22.169 25.2714ZM12.5781 57.831V47.6357H17.227C17.0453 48.1871 16.9511 48.7704 16.9511 49.3689C16.9511 52.4127 19.4275 54.8889 22.4712 54.8889C25.5149 54.8889 27.9912 52.4126 27.9912 49.3689C27.9912 48.7704 27.897 48.1871 27.7154 47.6357H32.3642V54.568C32.3642 55.0918 32.6811 55.5635 33.1661 55.7614C33.6507 55.9594 34.2074 55.8443 34.5741 55.4701C35.1323 54.9005 35.8785 54.5866 36.6755 54.5866C38.2977 54.5866 39.6174 55.9064 39.6174 57.5286C39.6174 59.1509 38.2976 60.4706 36.6755 60.4706C35.8785 60.4706 35.1323 60.1569 34.5741 59.5873C34.2075 59.213 33.6509 59.098 33.1661 59.2959C32.6811 59.4939 32.3642 59.9655 32.3642 60.4894V67.4218H22.1687C16.8805 67.4218 12.5781 63.1194 12.5781 57.831ZM54.7287 57.831C54.7287 63.1194 50.4263 67.4218 45.1379 67.4218H34.9425V62.7731C35.4939 62.9546 36.0771 63.0489 36.6756 63.0489C39.7195 63.0489 42.1956 60.5726 42.1956 57.5287C42.1956 54.4849 39.7193 52.0086 36.6756 52.0086C36.0773 52.0086 35.4939 52.1028 34.9425 52.2845V47.6358H41.8748C42.3986 47.6358 42.8702 47.3188 43.0682 46.834C43.2663 46.3492 43.1511 45.7925 42.777 45.426C42.2073 44.8678 41.8936 44.1214 41.8936 43.3244C41.8936 41.7022 43.2135 40.3825 44.8356 40.3825C46.4577 40.3825 47.7776 41.7022 47.7776 43.3244C47.7776 44.1213 47.4638 44.8677 46.8941 45.426C46.5201 45.7925 46.4049 46.3491 46.6029 46.834C46.801 47.3189 47.2725 47.6358 47.7964 47.6358H54.7287V57.831Z" fill="#003570"/>
<path d="M68.7108 34.9424H60.4895C59.9656 34.9424 59.494 34.6254 59.296 34.1406C59.0981 33.6557 59.2132 33.0992 59.5872 32.7326C60.1569 32.1745 60.4706 31.4282 60.4706 30.6312C60.4706 29.009 59.1507 27.6892 57.5286 27.6892C55.9065 27.6892 54.5867 29.009 54.5867 30.6312C54.5867 31.4282 54.9004 32.1745 55.4701 32.7326C55.8442 33.0992 55.9594 33.6557 55.7613 34.1406C55.5635 34.6255 55.0917 34.9424 54.5679 34.9424H46.3465C45.6345 34.9424 45.0574 34.3653 45.0574 33.6534V27.7156C44.506 27.8971 43.9227 27.9914 43.3243 27.9914C40.2805 27.9914 37.8042 25.5152 37.8042 22.4714C37.8042 19.4276 40.2806 16.9513 43.3243 16.9513C43.9227 16.9513 44.506 17.0457 45.0574 17.2272V11.2891C45.0574 10.5771 45.6345 10 46.3465 10H57.8308C64.5409 10 69.9998 15.4589 69.9998 22.169V33.6534C69.9998 34.3653 69.4227 34.9424 68.7108 34.9424ZM62.773 32.3643H67.4217V22.169C67.4217 16.8805 63.1193 12.5781 57.8308 12.5781H47.6355V19.5105C47.6355 20.0343 47.3187 20.506 46.8337 20.7039C46.3483 20.9017 45.7923 20.7868 45.4256 20.4127C44.8674 19.843 44.1212 19.5292 43.3242 19.5292C41.702 19.5292 40.3822 20.849 40.3822 22.4712C40.3822 24.0934 41.7021 25.4131 43.3242 25.4131C44.1212 25.4131 44.8674 25.0994 45.4256 24.5296C45.7924 24.1555 46.3487 24.0406 46.8337 24.2384C47.3187 24.4363 47.6355 24.908 47.6355 25.4318V32.3642H52.2844C52.1028 31.8127 52.0085 31.2295 52.0085 30.631C52.0085 27.5871 54.4848 25.1109 57.5285 25.1109C60.5722 25.1109 63.0486 27.5871 63.0486 30.631C63.0488 31.2296 62.9545 31.8128 62.773 32.3643Z" fill="#AED4FF"/>
</g>
<defs>
<clipPath id="clip0_97_3609">
<rect width="60" height="60" fill="white" transform="translate(10 10)"/>
</clipPath>
</defs>
</svg>
