<svg width="80" height="80" viewBox="0 0 80 80" fill="none" xmlns="http://www.w3.org/2000/svg">
<path d="M47.7379 58.6031H44.8779C44.166 58.6031 43.5889 58.026 43.5889 57.3141C43.5889 56.6022 44.166 56.025 44.8779 56.025H47.7379C48.4498 56.025 49.027 56.6022 49.027 57.3141C49.027 58.026 48.4498 58.6031 47.7379 58.6031Z" fill="#AED4FF"/>
<path d="M46.3079 45.7376C40.1515 45.7376 35.1431 40.7281 35.1431 34.5705C35.1431 28.4129 40.1515 23.4033 46.3079 23.4033C52.4642 23.4033 57.4727 28.413 57.4727 34.5705C57.4727 40.728 52.4642 45.7376 46.3079 45.7376ZM46.3079 25.9814C41.5731 25.9814 37.7212 29.8345 37.7212 34.5705C37.7212 39.3065 41.5731 43.1595 46.3079 43.1595C51.0426 43.1595 54.8946 39.3065 54.8946 34.5705C54.8946 29.8345 51.0426 25.9814 46.3079 25.9814Z" fill="#AED4FF"/>
<path d="M56.8251 10H35.7906C32.2088 10 29.2946 12.9147 29.2946 16.4972V24.1423C28.6128 23.7777 27.8347 23.5709 27.0092 23.5709C24.3275 23.5709 22.1457 25.753 22.1457 28.4354V39.6351L21.4124 42.406C20.0802 47.44 20.7364 52.8782 23.2053 57.4504L16.8617 68.0487C16.6233 68.447 16.6175 68.9426 16.8463 69.3464C17.0753 69.7503 17.5035 69.9998 17.9677 69.9998H39.52C39.6779 69.9998 39.8343 69.9708 39.9816 69.9143L43.5435 68.5484H48.2182C51.136 68.5484 53.5694 66.4343 54.0677 63.6573H56.8251C60.4069 63.6573 63.3211 60.7427 63.3211 57.1601V16.4972C63.321 12.9147 60.4069 10 56.8251 10ZM41.2239 12.5781H51.3918V13.3538C51.3918 14.5881 50.3881 15.5923 49.1542 15.5923H43.4616C42.2277 15.5923 41.224 14.5881 41.224 13.3538V12.5781H41.2239ZM31.8728 16.4972C31.8728 14.3362 33.6304 12.5781 35.7907 12.5781H38.6459V13.3538C38.6459 16.0097 40.8063 18.1704 43.4616 18.1704H49.1542C51.8097 18.1704 53.9699 16.0097 53.9699 13.3538V12.5781H56.8251C58.9854 12.5781 60.743 14.3362 60.743 16.4972V50.9705H31.8728V16.4972ZM48.2182 65.9704H43.3048C43.147 65.9704 42.9905 65.9993 42.8432 66.0558L39.2814 67.4219H20.2416L25.8024 58.1315C26.045 57.7261 26.0465 57.2206 25.8061 56.8137C23.3746 52.6981 22.6816 47.687 23.9047 43.0656L24.6809 40.1328C24.7094 40.0252 24.7238 39.9143 24.7238 39.803V28.4356C24.7238 27.1749 25.7491 26.1493 27.0092 26.1493C28.2693 26.1493 29.2946 27.1749 29.2946 28.4356V57.1605C29.2946 60.7431 32.2087 63.6577 35.7906 63.6577H51.4143C50.9715 64.9994 49.7062 65.9704 48.2182 65.9704ZM56.8251 61.0793H35.7906C33.6303 61.0793 31.8727 59.3213 31.8727 57.1602V53.5486H60.7428V57.1602C60.7429 59.3213 58.9854 61.0793 56.8251 61.0793Z" fill="#003570"/>
<path d="M42.361 35.6406L44.9085 37.9584C45.1464 38.1748 45.456 38.294 45.7759 38.294C45.7997 38.294 45.8233 38.2934 45.8473 38.292C46.1923 38.2729 46.5151 38.1161 46.7434 37.8568L50.471 33.6232C50.9415 33.0889 50.8897 32.2744 50.3553 31.8039C49.821 31.3334 49.0065 31.3852 48.536 31.9196L45.6743 35.1697L44.096 33.7338C43.5695 33.2546 42.7541 33.2931 42.275 33.8197C41.796 34.3462 41.8344 35.1615 42.361 35.6406Z" fill="#003570"/>
</svg>
