<svg width="80" height="80" viewBox="0 0 80 80" fill="none" xmlns="http://www.w3.org/2000/svg">
<g clip-path="url(#clip0_97_3614)">
<path d="M57.1995 29.1127C53.7106 29.1127 50.8721 26.2742 50.8721 22.7852C50.8721 19.2961 53.7106 16.4576 57.1995 16.4576C60.6885 16.4576 63.527 19.2961 63.527 22.7852C63.527 26.2742 60.6885 29.1127 57.1995 29.1127ZM57.1995 19.0358C55.1321 19.0358 53.4502 20.7177 53.4502 22.7852C53.4502 24.8526 55.1322 26.5346 57.1995 26.5346C59.267 26.5346 60.9489 24.8526 60.9489 22.7852C60.9489 20.7177 59.2669 19.0358 57.1995 19.0358Z" fill="#AED4FF"/>
<path d="M69.3554 24.7202L68.3981 24.1675C68.4544 23.7089 68.4829 23.2466 68.4829 22.7853C68.4829 22.3239 68.4545 21.8616 68.3981 21.4029L69.3554 20.8503C69.6514 20.6794 69.8675 20.3978 69.956 20.0676C70.0445 19.7374 69.9982 19.3854 69.8272 19.0894L66.714 13.6972C66.5431 13.4012 66.2616 13.1851 65.9312 13.0966C65.6011 13.0082 65.2492 13.0544 64.9531 13.2254L63.9953 13.7784C63.2555 13.2186 62.455 12.7561 61.6016 12.3952V11.2904C61.6016 10.5785 61.0245 10.0013 60.3126 10.0013H54.0862C53.3743 10.0013 52.7971 10.5785 52.7971 11.2904V12.3952C51.9438 12.7561 51.1433 13.2186 50.4035 13.7784L49.4456 13.2254C48.8291 12.8695 48.0406 13.0808 47.6847 13.6972L44.5717 19.0894C44.2158 19.706 44.427 20.4944 45.0435 20.8503L46.0008 21.4029C45.9445 21.8616 45.916 22.3238 45.916 22.7853C45.916 23.1421 45.9335 23.4994 45.9672 23.8552H19.8474C17.1533 23.8552 14.9614 26.0471 14.9614 28.7412V31.0497H17.5395V28.7412C17.5395 27.4687 18.5748 26.4333 19.8474 26.4333H44.5473C44.5556 26.4492 44.5628 26.4654 44.5718 26.4811L47.6849 31.8732C48.0406 32.4897 48.8289 32.7012 49.4457 32.345L50.4036 31.792C51.1433 32.3518 51.9439 32.8144 52.7973 33.1752V34.28C52.7973 34.9919 53.3744 35.5691 54.0863 35.5691H59.0238V51.6749H38.711V54.253H59.0238V55.5382C59.0238 56.8108 57.9885 57.8461 56.716 57.8461H19.8474C18.5749 57.8461 17.5395 56.8109 17.5395 55.5382V53.2444H14.9614V55.5382C14.9614 58.2324 17.1533 60.4242 19.8474 60.4242H32.3958V64.5337C32.3958 66.1256 31.1007 67.4208 29.5088 67.4208H27.7195C27.0076 67.4208 26.4304 67.9979 26.4304 68.7098C26.4304 69.4217 27.0076 69.9989 27.7195 69.9989H48.8437C49.5556 69.9989 50.1328 69.4217 50.1328 68.7098C50.1328 67.9979 49.5556 67.4208 48.8437 67.4208H47.0543C45.4624 67.4208 44.1672 66.1256 44.1672 64.5337V60.4242H56.7158C59.4099 60.4242 61.6016 58.2324 61.6016 55.5382L61.6015 33.1752C62.4549 32.8144 63.2553 32.352 63.9951 31.792L64.9529 32.345C65.249 32.5159 65.6009 32.5623 65.9311 32.4738C66.2613 32.3854 66.5429 32.1694 66.7139 31.8732L69.8271 26.4811C70.1831 25.8645 69.9721 25.0762 69.3554 24.7202ZM42.4171 67.4207H34.1461C34.6699 66.5823 34.9739 65.593 34.9739 64.5336V60.4241H41.5893V64.5336C41.5894 65.593 41.8932 66.5823 42.4171 67.4207ZM65.7201 20.9956C65.8426 21.5827 65.9047 22.1848 65.9047 22.7852C65.9047 23.3855 65.8426 23.9876 65.7201 24.5747C65.6063 25.1196 65.8552 25.6762 66.3374 25.9545L66.9502 26.3083L65.126 29.4678L64.5112 29.1127C64.0285 28.834 63.4213 28.8972 63.0062 29.2691C62.1026 30.079 61.0614 30.6806 59.9116 31.0574C59.3819 31.2308 59.0239 31.7251 59.0239 32.2823V32.9909H55.3756V32.2823C55.3756 31.7251 55.0175 31.2308 54.4879 31.0574C53.3381 30.6806 52.2967 30.079 51.3932 29.2691C50.9783 28.8973 50.3714 28.8339 49.8883 29.1127L49.2733 29.4678L47.4493 26.3084L48.0621 25.9546C48.5442 25.6763 48.7931 25.1198 48.6794 24.5748C48.5568 23.9877 48.4947 23.3856 48.4947 22.7853C48.4947 22.1849 48.5568 21.5828 48.6794 20.9957C48.7933 20.4508 48.5443 19.8943 48.0621 19.616L47.4493 19.2622L49.2733 16.1027L49.8883 16.4578C50.3711 16.7364 50.9782 16.6733 51.3932 16.3013C52.2967 15.4914 53.3381 14.8899 54.4879 14.513C55.0176 14.3396 55.3756 13.8453 55.3756 13.2881V12.5796H59.0239V13.2881C59.0239 13.8453 59.382 14.3396 59.9116 14.513C61.0614 14.8898 62.1026 15.4914 63.0062 16.3013C63.4213 16.6734 64.0286 16.7364 64.5112 16.4578L65.126 16.1027L66.9502 19.2622L66.3374 19.616C65.8552 19.8942 65.6063 20.4507 65.7201 20.9956Z" fill="#003570"/>
<path d="M44.0239 47.4879H55.0001C55.712 47.4879 56.2892 46.9108 56.2892 46.1988C56.2892 45.4869 55.712 44.9098 55.0001 44.9098H44.0239C43.312 44.9098 42.7349 45.4869 42.7349 46.1988C42.7349 46.9108 43.312 47.4879 44.0239 47.4879Z" fill="#003570"/>
<path d="M44.0239 42.3318H55.0001C55.712 42.3318 56.2892 41.7546 56.2892 41.0427C56.2892 40.3308 55.712 39.7537 55.0001 39.7537H44.0239C43.312 39.7537 42.7349 40.3308 42.7349 41.0427C42.7349 41.7546 43.312 42.3318 44.0239 42.3318Z" fill="#003570"/>
<path d="M38.7108 54.2552H11.2891C10.5771 54.2552 10 53.6781 10 52.9662V31.3176C10 30.6057 10.5771 30.0286 11.2891 30.0286H21.0342C21.5045 30.0286 21.9375 30.2847 22.164 30.6969L23.7436 33.5714H38.7108C39.4227 33.5714 39.9999 34.1485 39.9999 34.8604V52.9662C39.9999 53.6781 39.4227 54.2552 38.7108 54.2552ZM12.5781 51.6771H37.4218V36.1495H22.9809C22.5107 36.1495 22.0776 35.8933 21.8511 35.4812L20.2716 32.6067H12.5781V51.6771Z" fill="#AED4FF"/>
<path d="M30.7634 48.0341C30.4459 48.0341 30.1278 47.9175 29.8787 47.6823C29.3611 47.1935 29.3376 46.3777 29.8264 45.8601L31.6645 43.9135L29.8264 41.9669C29.3376 41.4492 29.3611 40.6334 29.8787 40.1446C30.3964 39.6559 31.2121 39.6793 31.7009 40.1969L34.3746 43.0285C34.8435 43.5252 34.8435 44.3017 34.3746 44.7985L31.7009 47.63C31.4473 47.8985 31.1057 48.0341 30.7634 48.0341Z" fill="#AED4FF"/>
<path d="M19.2363 48.0341C18.894 48.0341 18.5524 47.8986 18.2988 47.6301L15.6252 44.7985C15.1562 44.3017 15.1562 43.5252 15.6252 43.0285L18.2988 40.1969C18.7876 39.6791 19.6033 39.6557 20.1211 40.1446C20.6387 40.6334 20.6621 41.4493 20.1733 41.9669L18.3352 43.9135L20.1733 45.8601C20.6621 46.3777 20.6387 47.1935 20.1211 47.6823C19.872 47.9174 19.5539 48.0341 19.2363 48.0341Z" fill="#AED4FF"/>
<path d="M24.3937 48.4995C24.3162 48.4995 24.2375 48.4924 24.1587 48.4779C23.4585 48.3489 22.9956 47.6767 23.1246 46.9765L24.3397 40.3828C24.4689 39.6827 25.141 39.22 25.8411 39.3488C26.5413 39.4778 27.0042 40.15 26.8752 40.8502L25.6601 47.4438C25.5455 48.065 25.0035 48.4995 24.3937 48.4995Z" fill="#AED4FF"/>
</g>
<defs>
<clipPath id="clip0_97_3614">
<rect width="60" height="60" fill="white" transform="translate(10 10)"/>
</clipPath>
</defs>
</svg>
