<svg width="80" height="80" viewBox="0 0 80 80" fill="none" xmlns="http://www.w3.org/2000/svg">
<path d="M21.2749 46.9613V32.8633L20.9559 33.2277C20.7111 33.5076 20.3576 33.668 19.9858 33.668H18.6968V49.1008L19.397 49.0914L21.2749 46.9613Z" fill="#003570"/>
<path d="M33.3914 19.0159L32.0396 20.5609V34.7511L32.3617 34.3857C32.597 34.1188 32.9323 33.9609 33.2881 33.9498C33.6469 33.9395 33.9885 34.075 34.2401 34.3267L34.6177 34.7042V20.2421L33.3914 19.0159Z" fill="#003570"/>
<path d="M46.6922 31.7617C46.3437 31.7674 46.0066 31.6312 45.7599 31.3843L45.3823 31.0067V45.4688L46.6464 46.7329L47.9604 45.3459V30.9827L47.6118 31.3545C47.3731 31.6092 47.0413 31.7561 46.6922 31.7617Z" fill="#003570"/>
<path d="M63.8264 29.1837H58.108C57.3961 29.1837 56.819 29.7609 56.819 30.4728C56.819 31.1847 57.3961 31.7618 58.108 31.7618H60.8296L46.6465 46.733L34.2401 34.3266C33.9885 34.0751 33.6469 33.9394 33.2881 33.9497C32.9323 33.9609 32.597 34.1186 32.3617 34.3857L19.3969 49.0914L12.5781 49.1823V51.7607L20.0029 51.6617C20.3669 51.6569 20.712 51.4982 20.9526 51.2252L33.3876 37.1204L45.7598 49.4925C46.0059 49.7385 46.3404 49.8774 46.6887 49.87C47.0366 49.8653 47.3678 49.7202 47.6071 49.4676L62.5373 33.7079V36.1912C62.5373 36.9031 63.1144 37.4802 63.8263 37.4802C64.5382 37.4802 65.1154 36.9031 65.1154 36.1912V30.4728C65.1155 29.7609 64.5385 29.1837 63.8264 29.1837Z" fill="#AED4FF"/>
<path d="M20.9559 33.2277L33.3913 19.0158L45.7599 31.3844C46.0066 31.6313 46.3438 31.7674 46.6922 31.7618C47.0413 31.7561 47.3731 31.6092 47.6119 31.3545L59.6782 18.4838V20.9423C59.6782 21.6542 60.2554 22.2313 60.9673 22.2313C61.6792 22.2313 62.2564 21.6542 62.2564 20.9423V15.2239C62.2564 14.512 61.6792 13.9348 60.9673 13.9348H55.2489C54.537 13.9348 53.9598 14.512 53.9598 15.2239C53.9598 15.9358 54.537 16.5129 55.2489 16.5129H57.9919L46.6416 28.6199L34.2401 16.2186C33.9879 15.9664 33.6441 15.829 33.2856 15.8417C32.929 15.8536 32.5934 16.0127 32.3584 16.2813L19.4009 31.0899H12.5781V33.668H19.9858C20.3575 33.668 20.7111 33.5076 20.9559 33.2277Z" fill="#AED4FF"/>
<path d="M68.7109 56.8225H47.9605V49.0947L47.6072 49.4676C47.3679 49.7201 47.0368 49.8653 46.6888 49.87C46.3405 49.8774 46.006 49.7385 45.7599 49.4925L45.3823 49.115V56.8225H34.6176V38.3502L33.3877 37.1204L32.0395 38.6497V56.8225H21.2748V50.8598L20.9527 51.2252C20.712 51.4982 20.367 51.6569 20.003 51.6617L18.6968 51.679V56.8225H12.5781V15.2239C12.5781 14.512 12.001 13.9348 11.2891 13.9348C10.5771 13.9348 10 14.512 10 15.2239V58.1116C10 58.8235 10.5771 59.4006 11.2891 59.4006H68.7109C69.4229 59.4006 70 58.8235 70 58.1116C70 57.3997 69.4229 56.8225 68.7109 56.8225Z" fill="#003570"/>
<path d="M19.9856 63.4939C19.2737 63.4939 18.6965 64.071 18.6965 64.783C18.7644 66.4928 21.207 66.4924 21.2747 64.783C21.2747 64.071 20.6975 63.4939 19.9856 63.4939Z" fill="#003570"/>
<path d="M33.3284 63.4939C32.6165 63.4939 32.0393 64.071 32.0393 64.783C32.1072 66.4928 34.5498 66.4924 34.6174 64.783C34.6174 64.071 34.0404 63.4939 33.3284 63.4939Z" fill="#003570"/>
<path d="M46.6714 63.4939C45.9595 63.4939 45.3823 64.071 45.3823 64.783C45.4502 66.4928 47.8928 66.4924 47.9604 64.783C47.9604 64.071 47.3833 63.4939 46.6714 63.4939Z" fill="#003570"/>
<path d="M60.0142 63.4939C59.3022 63.4939 58.7251 64.071 58.7251 64.783C58.7929 66.4928 61.2356 66.4924 61.3032 64.783C61.3032 64.071 60.7261 63.4939 60.0142 63.4939Z" fill="#003570"/>
</svg>
