<svg width="80" height="80" viewBox="0 0 80 80" fill="none" xmlns="http://www.w3.org/2000/svg">
<path d="M56.5636 24.6872C58.062 25.4927 59.2799 26.7106 60.0856 28.209C60.3104 28.6269 60.7465 28.8876 61.2209 28.8876C61.6955 28.8876 62.1316 28.6269 62.3562 28.209C63.1618 26.7106 64.3797 25.4927 65.8781 24.6872C66.2959 24.4625 66.5567 24.0263 66.5567 23.5518C66.5567 23.0773 66.2959 22.6412 65.8781 22.4165C64.3797 21.6109 63.1618 20.3929 62.3562 18.8946C62.1316 18.4767 61.6954 18.2159 61.2209 18.2159C60.7464 18.2159 60.3102 18.4767 60.0856 18.8946C59.2799 20.3929 58.062 21.6109 56.5636 22.4165C56.1458 22.6413 55.885 23.0775 55.885 23.5518C55.885 24.0263 56.1456 24.4625 56.5636 24.6872ZM61.2209 21.8312C61.7303 22.4659 62.3068 23.0424 62.9415 23.5518C62.3069 24.0611 61.7302 24.6378 61.2209 25.2724C60.7115 24.6377 60.1349 24.0613 59.5002 23.5518C60.1349 23.0424 60.7115 22.4659 61.2209 21.8312Z" fill="#003570"/>
<path d="M21.7685 16.4713C23.2668 17.2769 24.4846 18.4948 25.2903 19.9932C25.515 20.4111 25.9511 20.6718 26.4256 20.6718C26.9001 20.6718 27.3363 20.4111 27.5609 19.9932C28.3666 18.4948 29.5844 17.2769 31.0828 16.4713C31.5007 16.2467 31.7614 15.8105 31.7614 15.336C31.7614 14.8615 31.5008 14.4254 31.0828 14.2007C29.5843 13.395 28.3665 12.1771 27.5608 10.6787C27.3364 10.2607 26.9002 10 26.4257 10C25.9512 10 25.5151 10.2607 25.2904 10.6786C24.4848 12.177 23.267 13.3949 21.7685 14.2006C21.3506 14.4254 21.0898 14.8615 21.0898 15.3359C21.0898 15.8105 21.3505 16.2467 21.7685 16.4713ZM26.4257 13.6154C26.9352 14.25 27.5116 14.8266 28.1463 15.336C27.5116 15.8454 26.9352 16.4219 26.4257 17.0566C25.9163 16.4219 25.3399 15.8454 24.7052 15.336C25.3398 14.8266 25.9163 14.25 26.4257 13.6154Z" fill="#003570"/>
<path d="M21.0846 51.0821C23.2687 48.8921 25.6663 46.4883 26.0427 46.1095C27.8565 44.2853 30.2771 43.2805 32.8587 43.2805C34.3936 43.2805 35.9196 43.7023 37.2715 44.5C38.9374 45.483 40.835 46.0024 42.7592 46.0023L46.9454 46.0019C47.5585 46.0018 48.1344 46.2408 48.5667 46.6746C49.0011 47.1107 49.2404 47.6931 49.2404 48.3148C49.2404 48.9234 49.0035 49.4958 48.5729 49.9261C48.1426 50.3565 47.5705 50.5934 46.9621 50.5934H46.9616L38.9765 50.5919H38.9763C38.2645 50.5919 37.6874 51.169 37.6872 51.8808C37.6871 52.5927 38.2642 53.17 38.9761 53.1701L46.9611 53.1715C46.9615 53.1715 46.9617 53.1715 46.9621 53.1715C48.2591 53.1715 49.4787 52.6663 50.3959 51.7492C51.2774 50.8678 51.7771 49.7069 51.8149 48.4666C54.4066 46.5095 56.8815 44.3603 59.1757 42.0661L62.3975 38.8443C63.2484 37.9934 64.6379 37.9992 65.4953 38.8564C65.9066 39.2678 66.133 39.8147 66.1329 40.3965C66.1326 40.9784 65.9059 41.5252 65.4946 41.9362L54.0914 53.3266C51.2449 56.1703 47.4613 57.7364 43.4376 57.7364H36.397C34.0059 57.7364 31.7579 58.6676 30.0671 60.3584L31.8902 62.1814C33.0941 60.9776 34.6946 60.3145 36.397 60.3145H43.4376C48.1494 60.3145 52.5801 58.4807 55.9134 55.1507L67.3166 43.7603C68.2155 42.8623 68.7106 41.668 68.711 40.3973C68.7114 39.1266 68.2167 37.9321 67.3182 37.0336C65.4555 35.171 62.4305 35.1655 60.5744 37.0214L57.3526 40.2432C55.3928 42.2031 53.2958 44.0529 51.1053 45.7619C50.9065 45.4363 50.6687 45.1316 50.3931 44.8549C49.4734 43.9322 48.2492 43.4239 46.9458 43.4239C46.9458 43.4239 46.9454 43.4239 46.9452 43.4239L42.7592 43.4243C41.2956 43.4244 39.8511 43.0285 38.5819 42.2796C36.8333 41.2478 34.8542 40.7024 32.8588 40.7024C29.5858 40.7024 26.516 41.9771 24.2146 44.2917C23.8383 44.6701 21.4421 47.0727 19.2593 49.2615L21.0846 51.0821Z" fill="#003570"/>
<path d="M19.3554 48.0895C18.8519 47.586 18.0358 47.5861 17.5323 48.0895L11.6666 53.9552C11.425 54.1969 11.2891 54.5249 11.2891 54.8667C11.2891 55.2086 11.4249 55.5364 11.6666 55.7782L25.5107 69.6224C25.7525 69.864 26.0804 70 26.4222 70C26.764 70 27.0919 69.8641 27.3337 69.6224L33.1994 63.7566C33.7027 63.2531 33.7027 62.4369 33.1994 61.9335L19.3554 48.0895ZM26.4222 66.8878L14.4011 54.8667L18.4438 50.8241L30.4649 62.8451L26.4222 66.8878Z" fill="#AED4FF"/>
<path d="M48.7809 23.571C49.684 22.4671 50.2268 21.0576 50.2268 19.5234V16.4034C50.2268 12.8725 47.3543 10 43.8234 10C40.2926 10 37.4201 12.8725 37.4201 16.4034V19.5234C37.4201 21.0576 37.9629 22.467 38.8659 23.571C34.346 24.5376 30.9458 28.561 30.9458 33.3652V36.7188C30.9458 37.4307 31.5229 38.0078 32.2349 38.0078H55.4121C56.124 38.0078 56.7012 37.4307 56.7012 36.7188V33.3652C56.7012 28.561 53.3008 24.5376 48.7809 23.571ZM39.9982 18.6961H47.6487V19.5234C47.6487 21.6326 45.9327 23.3486 43.8234 23.3486C41.7142 23.3486 39.9982 21.6326 39.9982 19.5234V18.6961ZM43.8234 12.5781C45.8366 12.5781 47.4903 14.1416 47.6368 16.118H40.0099C40.1565 14.1416 41.8103 12.5781 43.8234 12.5781ZM54.123 35.4297H51.0187V32.8347C51.0187 32.1228 50.4416 31.5456 49.7297 31.5456C49.0178 31.5456 48.4406 32.1228 48.4406 32.8347V35.4297H39.2062V32.8347C39.2062 32.1228 38.6291 31.5456 37.9172 31.5456C37.2053 31.5456 36.6281 32.1228 36.6281 32.8347V35.4297H33.5239V33.3652C33.5239 29.2635 36.8608 25.9266 40.9625 25.9266H42.5212V28.0451C42.5212 28.757 43.0984 29.3342 43.8103 29.3342C44.5222 29.3342 45.0994 28.757 45.0994 28.0451V25.9266H46.6844C50.7861 25.9266 54.1231 29.2635 54.1231 33.3652V35.4297H54.123Z" fill="#AED4FF"/>
</svg>
