<svg width="801" height="586" viewBox="0 0 801 586" fill="none" xmlns="http://www.w3.org/2000/svg">
<path d="M648.075 351.541C637.101 333.781 628.9 315.311 629.237 295.49C629.976 253.246 671.905 218.552 677.904 176.607C682.106 147.174 666.477 116.191 638.177 98.7161C616.33 85.2225 588.652 79.9473 561.612 79.3643C534.573 78.7813 507.073 69.399 480.252 72.3565C448.422 75.8543 420.564 80.0719 388.567 76.3608C356.604 72.6639 321.836 74.1033 290.83 67.0507C246.313 56.927 197.511 57.581 160.876 84.028C128.962 107.062 117.3 144.188 114.712 178.299C112.342 209.736 97.94 237.164 76.026 262.204C53.423 288.025 24.35 311.586 10.0991 341.9C1.81423 359.531 -0.757001 378.798 0.184098 397.752C1.09157 416.264 5.42738 434.948 15.9474 451.2C38.1303 485.453 84.5631 503.895 130.156 509.966C177.765 516.308 227.491 507.322 274.26 514.9C344.792 526.332 403.593 564.424 473.15 579.098C519.784 588.938 570.704 589.492 614.431 572.614C641.319 562.235 664.645 545.499 681.635 525.038C711.229 489.406 709.649 448.157 687.467 409.88C676.392 390.742 660.477 371.603 648.075 351.541Z" fill="#F9FCFF"/>
<path d="M449.879 260.57H369.095V403.466H449.879V260.57Z" fill="#D3DFFF"/>
<path opacity="0.3" d="M449.879 277.501H369.095V304.172H449.879V277.501Z" fill="#6793DC"/>
<path d="M409.49 285.481C421.413 285.481 431.08 275.814 431.08 263.891C431.08 251.967 421.413 242.3 409.49 242.3C397.566 242.3 387.899 251.967 387.899 263.891C387.899 275.814 397.566 285.481 409.49 285.481Z" fill="white"/>
<path d="M608.722 0H210.254V262.637H608.722V0Z" fill="#D3DFFF"/>
<path d="M595.344 9.94461H223.635V247.62H595.344V9.94461Z" fill="white"/>
<path d="M492.82 384.977H325.647V403.977H492.82V384.977Z" fill="#67B7DC"/>
<path d="M322.874 129.234L330.059 77.3835C326.669 76.7046 323.168 76.343 319.579 76.343C290.271 76.343 266.514 100.1 266.514 129.408C266.514 158.716 290.271 182.473 319.579 182.473C348.886 182.473 372.643 158.716 372.643 129.408C372.643 127.483 372.534 125.581 372.334 123.709L322.874 129.234Z" fill="white" stroke="#67B7DC" stroke-width="4" stroke-miterlimit="10"/>
<path d="M381.178 114.344C378.707 91.2064 361.37 72.5193 338.9 68.0166L331.716 119.869L381.178 114.344Z" fill="white" stroke="#67B7DC" stroke-width="4" stroke-miterlimit="10"/>
<path d="M305.636 147.725C305.636 145.431 307.035 143.974 309.018 143.974C311 143.974 312.381 145.413 312.381 147.725C312.381 150.038 311 151.476 309.018 151.476C307.035 151.476 305.636 150.02 305.636 147.725ZM310.435 147.725C310.435 146.269 309.871 145.569 309.018 145.569C308.183 145.569 307.6 146.29 307.6 147.725C307.6 149.164 308.183 149.884 309.018 149.884C309.873 149.882 310.435 149.185 310.435 147.725ZM317.123 144.13H319.435L310.144 157.735H307.831L317.123 144.13ZM314.886 154.14C314.886 151.846 316.285 150.389 318.249 150.389C320.231 150.389 321.631 151.848 321.631 154.14C321.631 156.432 320.231 157.891 318.249 157.891C316.285 157.891 314.886 156.432 314.886 154.14ZM319.667 154.14C319.667 152.702 319.102 151.981 318.249 151.981C317.414 151.981 316.832 152.681 316.832 154.14C316.832 155.597 317.414 156.296 318.249 156.296C319.105 156.296 319.667 155.578 319.667 154.14Z" fill="#67B7DC"/>
<path d="M547.292 79.6547H411.914V179.51H547.292V79.6547Z" fill="white" stroke="#67B7DC" stroke-width="4" stroke-miterlimit="10"/>
<path d="M434.082 143.474H425.238V159.843H434.082V143.474Z" fill="#D3DFFF"/>
<path d="M450.73 123.467H441.885V159.843H450.73V123.467Z" fill="#D3DFFF"/>
<path d="M467.378 104.561H458.533V159.842H467.378V104.561Z" fill="#D3DFFF"/>
<path d="M484.025 118.835H475.181V159.843H484.025V118.835Z" fill="#D3DFFF"/>
<path d="M500.673 115.456H491.829V159.843H500.673V115.456Z" fill="#D3DFFF"/>
<path d="M517.321 116.178H508.477V159.842H517.321V116.178Z" fill="#D3DFFF"/>
<path d="M533.968 96.9427H525.124V159.843H533.968V96.9427Z" fill="#D3DFFF"/>
<path d="M429.48 154.203L428.7 153.516L446.43 133.438L464.246 121.207L479.803 134.946L491.423 124L492.136 124.757L479.824 136.356L464.168 122.523L447.127 134.223L429.48 154.203Z" fill="#67B7DC"/>
<path d="M484.129 24.389H338.318V40.8261H484.129V24.389Z" fill="#67B7DC"/>
<path d="M531.919 57.2503H289.485V59.5315H531.919V57.2503Z" fill="#D3DFFF"/>
<path d="M531.919 50.4871H289.485V52.7684H531.919V50.4871Z" fill="#D3DFFF"/>
<path d="M531.919 214.884H289.485V217.165H531.919V214.884Z" fill="#D3DFFF"/>
<path d="M531.919 221.819H289.485V224.1H531.919V221.819Z" fill="#D3DFFF"/>
<path d="M531.919 228.756H289.485V231.037H531.919V228.756Z" fill="#D3DFFF"/>
<path d="M346.111 191.231H290.965V198.34H346.111V191.231Z" fill="#D3DFFF"/>
<path d="M507.176 191.231H452.03V198.34H507.176V191.231Z" fill="#D3DFFF"/>
<path d="M115.164 263.141H113.385V359.248H115.164V263.141Z" fill="#6793DC"/>
<path d="M97.8611 275.99C107.93 278.917 113.198 275.012 115.672 273.389C116.533 272.825 116.652 271.652 115.96 270.723C113.546 267.49 107.943 261.569 99.6507 259.559C88.9389 256.963 79.1479 261.564 79.1479 261.564C79.1479 261.564 90.0835 273.73 97.8611 275.99Z" fill="#35A696"/>
<path d="M105.774 289.741C117.035 282.959 118.967 274.948 120.029 271.361C120.398 270.112 119.651 269.04 118.348 268.91C113.806 268.455 103.724 266.27 94.7422 272.182C83.1382 279.82 78.3025 294.964 78.3025 294.964C78.3025 294.964 97.0755 294.977 105.774 289.741Z" fill="#1DD5C5"/>
<path d="M108.503 293.151C105.909 281.924 111.14 275.629 113.344 272.692C114.111 271.67 115.542 271.444 116.603 272.159C120.294 274.656 126.943 280.574 128.592 289.85C130.725 301.834 124.217 313.326 124.217 313.326C124.217 313.326 110.506 301.823 108.503 293.151Z" fill="#35A696"/>
<path d="M100.84 257.67C104.671 267.615 111.942 269.724 115.149 270.832C116.267 271.217 117.479 270.65 117.919 269.552C119.454 265.729 121.478 257.748 117.935 249.788C113.357 239.503 102.418 234.074 102.418 234.074C102.418 234.074 97.8793 249.989 100.84 257.67Z" fill="#6AFFF2"/>
<path d="M145.265 265.159C133.898 277.406 122.799 276.849 117.789 276.857C116.043 276.859 114.766 275.457 114.86 273.683C115.188 267.503 117.448 255.186 127.19 245.614C139.774 233.247 157.881 230.883 157.881 230.883C157.881 230.883 154.047 255.701 145.265 265.159Z" fill="#1DD5C5"/>
<path d="M139.735 275.79C129.572 267.456 120.492 269.623 116.374 270.385C114.941 270.65 113.986 272.001 114.181 273.447C114.865 278.483 117.552 288.271 126.199 294.655C137.371 302.9 152.409 302.063 152.409 302.063C152.409 302.063 147.586 282.226 139.735 275.79Z" fill="#6AFFF2"/>
<path d="M132.918 405.214H95.2472L87.584 343.778H140.581L132.918 405.214Z" fill="white" stroke="#67B7DC" stroke-width="4" stroke-miterlimit="10"/>
<path d="M145.773 353.985H82.3918L83.4323 343.778H144.733L145.773 353.985Z" fill="white" stroke="#67B7DC" stroke-width="4" stroke-miterlimit="10"/>
<path d="M135.649 405.692H92.5156C86.7748 405.692 82.1238 401.039 82.1238 395.3H146.043C146.043 401.039 141.39 405.692 135.649 405.692Z" fill="#67B7DC"/>
<path d="M644.333 254.871L647.371 259.28C654.657 258.822 661.16 264.173 660.895 266.327H641.581L635.418 256.015L644.333 254.871Z" fill="#F9B384"/>
<path d="M515.237 180.851L509.259 167.111L496.1 164.83C496.1 164.83 496.261 168.316 505.675 169.528L507.558 172.012L515.237 180.851Z" fill="#E28B6D"/>
<path d="M510.898 178.983L506.541 167.473L496.201 171.635C496.201 171.635 497.762 173.846 504.655 172.675L506.572 174.049L510.898 178.983Z" fill="#E28B6D"/>
<path d="M513.195 179.6L506.497 169.275L497.275 175.534C497.275 175.534 499.271 177.365 505.758 174.759L507.922 175.695L513.195 179.6Z" fill="#E28B6D"/>
<path d="M522.871 158.15L493.746 168.992L495.014 172.398L524.139 161.555L522.871 158.15Z" fill="#67B7DC"/>
<path d="M493.725 169.01L491.261 171.77L494.994 172.418" fill="#1A262D"/>
<path d="M515.237 180.851C515.237 180.851 510.576 173.859 508.44 172.431C506.304 171.003 503.62 170.015 502.756 168.056C501.893 166.097 500.405 167.957 500.394 168.709C500.374 170.491 500.917 173.019 503.935 174.869C503.935 174.869 506.499 182.964 510.864 183.564L515.237 180.851Z" fill="#F9B384"/>
<path d="M515.237 180.851L519.407 184.217L521.173 191.339L515.645 194.266L507.907 180.609L515.237 180.851Z" fill="#F9B384"/>
<path d="M542.469 405.054C552.981 403.239 558.492 399.329 564.14 395.479V405.054H565.903L568.411 388.071C562.834 392.09 555.618 395.994 549.656 397.053L542.469 405.054Z" fill="#263238"/>
<path d="M559.856 327.439L558.092 387.665L549.659 397.051C555.621 395.989 562.837 392.088 568.414 388.069L578.631 318.871L559.856 327.439Z" fill="#F9B384"/>
<path d="M597.23 310.167L584.955 320.387L616.117 384.544L614.648 396.244C619.348 391.45 623.266 385.691 626.093 380.281C619.278 356.557 612.216 331.952 597.23 310.167Z" fill="#F9B384"/>
<path d="M614.645 396.241L613.55 404.958C622.29 398.845 623.573 394.681 624.912 389.041L628.983 397.708L630.58 396.959C629.168 391.382 627.683 385.821 626.091 380.278C623.266 385.688 619.348 391.447 614.645 396.241Z" fill="#263238"/>
<path d="M607.273 319.727C589.928 326.667 573.509 323.775 559.858 327.437C554.083 312.943 550.358 294.797 557.017 258.182C557.527 255.394 558.235 252.647 559.13 249.952L564.759 232.867L564.894 232.441L584.382 226.343L594.881 233.45L595.058 233.991L595.276 234.636C597.399 241.097 600.094 247.34 603.153 253.406C614.421 275.725 614.921 298.595 607.273 319.727Z" fill="#263238"/>
<path d="M647.301 255.623L635.45 262.178L603.195 211.776C601.915 219.653 599.23 226.655 595.266 232.846C595.141 233.054 595.016 233.252 594.881 233.45C583.436 236.571 574.737 236.81 564.894 232.44C564.759 232.212 564.624 231.983 564.488 231.754C560.462 224.907 557.486 216.396 555.072 206.99L543.741 214.055C539.361 216.792 533.69 216.198 529.976 212.619L509.332 192.746L517.521 182.539L540.453 198.541L554.791 188.074C558.88 185.088 563.531 182.965 568.463 181.821L576.236 180.021L584.299 179.272L594.319 182.757C601.842 185.39 608.22 190.571 612.33 197.407L647.301 255.623Z" fill="#6793DC"/>
<path d="M598.538 142.55C598.325 146.988 594.322 149.628 590.139 149.428C585.956 149.227 584.476 145.698 583.298 141.413C581.974 136.606 585.849 134.031 590.035 133.966C595.177 133.885 598.749 138.112 598.538 142.55Z" fill="#263238"/>
<path d="M587.66 167.098L586.963 179.053C586.703 183.579 582.874 187.055 578.379 186.836C575.372 186.69 573.031 184.204 573.031 181.207C573.031 181.113 573.041 181.009 573.041 180.916L573.052 180.77L573.447 172.3L578.472 170.459L587.66 167.098Z" fill="#F9B384"/>
<path d="M584.559 171.197C584.559 171.197 581.063 178.262 573.052 180.77L573.447 172.3L578.472 170.459L584.559 171.197Z" fill="#1A262D"/>
<path d="M590.053 155.726L588.118 167.244C588.118 167.244 581.51 177.066 572.063 176.202C568.171 175.849 566.361 173.383 565.581 170.615C564.977 168.451 564.998 166.089 565.144 164.414C565.269 163.009 565.466 162.073 565.466 162.073L564.197 156.121L567.433 149.982L579.981 145.831L590.053 155.726Z" fill="#F9B384"/>
<path d="M590.435 161.464C591.359 159.299 592.561 157.749 592.597 152.162C592.321 144.215 585.428 138.097 576.03 140.16C575.455 140.287 574.883 140.467 574.331 140.677C560.938 145.82 560.94 155.71 564.847 159.505C567.076 153.041 572.674 151.488 579.006 151.428C581.063 157.835 585.769 161.487 589.054 161.235L590.435 161.464Z" fill="#263238"/>
<path d="M592.012 164.174C591.499 166.32 589.853 168.245 588.44 168.05C587.028 167.855 586.117 166.01 586.406 163.932C586.695 161.854 588.074 160.329 589.486 160.524C590.899 160.719 592.623 161.62 592.012 164.174Z" fill="#F9B384"/>
<path d="M588.196 164.632L587.678 164.582C587.686 164.509 587.86 162.79 588.888 162.205C589.364 161.934 589.928 161.95 590.563 162.246L590.342 162.717C589.86 162.491 589.47 162.47 589.148 162.655C588.487 163.032 588.237 164.21 588.196 164.632Z" fill="#E28B6D"/>
<path d="M569.47 162.894C569.901 162.894 570.25 162.337 570.25 161.648C570.25 160.96 569.901 160.402 569.47 160.402C569.039 160.402 568.689 160.96 568.689 161.648C568.689 162.337 569.039 162.894 569.47 162.894Z" fill="#1A262D"/>
<path d="M577.879 162.528C578.31 162.528 578.66 161.916 578.66 161.162C578.66 160.408 578.31 159.796 577.879 159.796C577.448 159.796 577.099 160.408 577.099 161.162C577.099 161.916 577.448 162.528 577.879 162.528Z" fill="#1A262D"/>
<path d="M573.821 161.055C573.634 161.739 573.254 162.345 572.869 162.907C572.484 163.472 572.055 164 571.732 164.543C571.576 164.814 571.441 165.09 571.415 165.344C571.373 165.597 571.459 165.807 571.639 166.026C572.065 166.507 572.565 166.949 573.101 167.324L572.986 167.563C572.32 167.316 571.73 166.923 571.212 166.437C571.069 166.302 570.936 166.127 570.851 165.924C570.762 165.722 570.736 165.49 570.752 165.282C570.793 164.858 570.963 164.509 571.145 164.197C571.522 163.581 571.972 163.068 572.401 162.553C572.83 162.038 573.246 161.531 573.572 160.956L573.821 161.055Z" fill="#1A262D"/>
<path d="M570.942 169.683C571.413 169.751 571.907 169.751 572.375 169.691C572.846 169.629 573.301 169.512 573.741 169.34C573.952 169.236 574.178 169.161 574.378 169.031C574.48 168.971 574.591 168.924 574.69 168.856C574.789 168.791 574.888 168.724 574.992 168.661C575.099 168.601 575.192 168.526 575.289 168.453L575.585 168.237C575.778 168.086 575.962 167.92 576.17 167.772L576.378 167.948C576.238 168.167 576.087 168.38 575.923 168.588C575.741 168.776 575.572 168.984 575.364 169.148C574.966 169.501 574.493 169.775 573.996 169.983C573.488 170.175 572.95 170.287 572.409 170.284C571.868 170.282 571.335 170.191 570.843 169.938L570.942 169.683Z" fill="#1A262D"/>
<path d="M567.089 159.611C567.31 159.193 567.662 158.849 568.067 158.586C568.476 158.326 568.944 158.157 569.428 158.087C569.912 158.017 570.411 158.051 570.874 158.194C571.337 158.337 571.766 158.579 572.089 158.925L571.883 159.276C571.459 159.19 571.074 159.12 570.692 159.091C570.31 159.062 569.938 159.068 569.568 159.114C569.199 159.161 568.832 159.25 568.473 159.38C568.109 159.507 567.758 159.682 567.386 159.89L567.089 159.611Z" fill="#1A262D"/>
<path d="M575.307 158.985C575.359 158.87 575.424 158.756 575.494 158.639C575.575 158.537 575.668 158.444 575.762 158.345C575.863 158.264 575.973 158.192 576.082 158.113C576.194 158.048 576.311 157.996 576.43 157.939C576.909 157.749 577.408 157.687 577.892 157.695C578.379 157.705 578.852 157.786 579.307 157.944C579.422 157.986 579.531 158.033 579.643 158.077C579.752 158.134 579.861 158.186 579.968 158.246C580.176 158.381 580.389 158.514 580.556 158.751L580.283 159.052C579.921 158.951 579.497 158.886 579.091 158.831C578.68 158.782 578.269 158.743 577.866 158.73C577.463 158.717 577.068 158.727 576.693 158.79C576.316 158.85 575.97 158.967 575.645 159.211L575.307 158.985Z" fill="#1A262D"/>
<path opacity="0.6" d="M595.058 233.991C590.631 242.869 571.272 243.467 564.759 232.867L564.894 232.441C574.737 236.811 583.436 236.571 594.881 233.45L595.058 233.991Z" fill="#1A262D"/>
<path d="M557.322 216.016C555.343 211.755 554.141 205.754 553.644 197.667L554.422 197.62C554.911 205.609 556.092 211.519 558.027 215.688L557.322 216.016Z" fill="#1F2B31"/>
<path d="M601.756 219.762L600.999 219.572C601.113 219.117 601.231 218.667 601.348 218.219C602.458 213.933 603.608 209.498 602.898 200.102L603.676 200.042C604.396 209.568 603.231 214.065 602.105 218.415C601.985 218.862 601.87 219.309 601.756 219.762Z" fill="#1F2B31"/>
<path d="M280.43 197.079C281.835 193.914 281.239 189.994 274.838 183.878L274.317 192.007L280.43 197.079Z" fill="#1A262D"/>
<path d="M295.26 180.08C294.971 180.205 282.644 188.963 282.077 189.182C281.783 189.294 276.924 186.152 276.021 184.718C275.852 184.45 277.725 169.735 279.364 170.44C281.463 171.34 280.391 175.432 280.318 176.746C280.706 176.717 280.526 176.704 280.922 176.678C280.948 176.675 280.969 176.678 281 176.68C282.829 173.593 284.66 170.503 286.488 167.418C286.595 167.238 286.73 167.113 286.881 167.035C287.42 166.757 288.021 167.191 288.062 167.787C288.19 169.579 286.395 173.429 285.69 174.93C287.651 173.278 290.536 170.308 292.565 168.734C293.509 168.008 294.433 169.132 293.738 170.242C293.085 171.283 289.542 175.39 288.023 176.928C289.675 176.178 294.498 172.919 294.755 173.143C295.421 173.2 295.973 174.004 295.353 174.628C293.356 176.649 291.805 178.233 289.469 179.799C291.478 179.521 292.833 179.167 294.74 178.345C295.829 177.872 296.35 179.612 295.26 180.08Z" fill="#F9B384"/>
<path d="M276.89 181.095L272.366 187.27L274.999 201.415L286.871 185.139L276.89 181.095Z" fill="#F9B384"/>
<path d="M282.061 182.187L281.533 181.963C282.506 179.661 280.685 177.448 280.667 177.424L281.106 177.055C281.192 177.156 283.169 179.568 282.061 182.187Z" fill="#E28B6D"/>
<path d="M288.71 181.222C287.737 178.745 286.379 177.153 284.553 176.355L284.784 175.829C286.728 176.683 288.229 178.425 289.246 181.014L288.71 181.222Z" fill="#E28B6D"/>
<path d="M221.817 173.351C225.11 172.839 230.336 173.109 235.458 173.952C241.911 175.013 247.543 178.941 250.964 184.516L259.836 198.843L274.838 183.878C275.613 189.063 277.506 193.44 280.43 197.08L263.741 214.643C260.908 217.197 256.632 217.278 253.703 214.833L242.062 206.212L229.056 202.136L221.817 173.351Z" fill="#27BBFF"/>
<path d="M212.578 382.096L219.916 370.778L210.588 362.894L203.726 373.366C206.043 376.498 209.035 379.469 212.578 382.096Z" fill="#E28B6D"/>
<path d="M212.578 382.096C209.035 379.469 206.043 376.496 203.726 373.366L195.761 385.524L217.504 404.943C218.912 398.791 214.807 388.753 211.368 383.964L212.578 382.096Z" fill="#1A262D"/>
<path d="M242.929 404.859C238.767 400.003 228.882 396.709 223.334 395.495L223.222 392.831C219.752 392.81 216.12 392.404 212.897 391.551L213.621 404.859H242.929Z" fill="#1A262D"/>
<path d="M223.222 392.831L222.639 378.847L212.234 379.367L212.897 391.551C216.12 392.404 219.752 392.81 223.222 392.831Z" fill="#F9B384"/>
<path d="M224.374 316.332L224.35 315.911L223.097 319.295L224.374 316.332Z" fill="#1A262D"/>
<path d="M250.485 287.396L243.363 239.076L217.351 240.376L222.73 285.284L222.733 285.341L228.708 298.948C229.376 300.485 229.428 302.223 228.851 303.797L222.73 320.278V320.143L202.264 367.576L219.432 380.842L246.094 320.075C250.599 309.808 252.121 298.485 250.485 287.396Z" fill="#1A262D"/>
<path d="M201.483 238.556L198.609 256.671C197.064 266.399 196.84 276.292 197.943 286.08L209.113 386.477H227.321L225.589 266.662L245.358 252.961L243.103 237.528L201.483 238.556Z" fill="#263238"/>
<path d="M196.281 245.488C196.281 245.488 193.16 243.24 195.501 239.339C195.574 239.214 195.646 239.058 195.709 238.87C196.271 237.258 196.343 233.512 196.167 229.059C195.74 218.518 193.94 203.962 193.94 203.962L198.362 184.193L207.55 175.432L230.097 175.255L241.365 190.342L244.32 225.032C244.32 225.032 244.841 230.755 247.608 236.644C252.686 247.423 200.609 249.629 196.281 245.488Z" fill="#27BBFF"/>
<path d="M239.153 185.325L238.374 185.363L239.24 202.88L240.019 202.841L239.153 185.325Z" fill="#1A262D"/>
<path d="M248.898 227.812L222.79 231.485L223.014 195.201L249.125 191.528L248.898 227.812Z" fill="#F6F5F5"/>
<path d="M227.829 202.454L227.675 201.304L245.47 198.778L245.626 199.928L227.829 202.454Z" fill="#67B7DC"/>
<path d="M227.808 207.393L227.652 206.241L245.449 203.715L245.603 204.865L227.808 207.393Z" fill="#67B7DC"/>
<path d="M227.925 212.621L227.769 211.469L245.566 208.943L245.72 210.093L227.925 212.621Z" fill="#67B7DC"/>
<path d="M227.899 218.284L227.743 217.132L245.54 214.606L245.694 215.756L227.899 218.284Z" fill="#D3DFFF"/>
<path d="M227.875 223.512L227.719 222.36L245.517 219.834L245.67 220.984L227.875 223.512Z" fill="#D3DFFF"/>
<path d="M214.88 228.931C214.88 228.931 221.773 222.92 217.957 213.597L210.588 221.903L214.88 228.931Z" fill="#6F3428"/>
<path opacity="0.3" d="M199.465 220.951C200.446 220.344 202.623 220.904 203.172 219.611C205.351 214.487 202.924 203.413 200.308 197.628L199.465 220.951Z" fill="#6F3428"/>
<path opacity="0.3" d="M214.885 228.934C214.885 228.934 211.254 237.049 195.709 238.87C196.271 237.258 196.343 233.512 196.167 229.058L214.885 228.934Z" fill="#6F3428"/>
<path d="M222.543 212.197L210.473 216.843L210.939 227.513L225.435 221.397L222.543 212.197Z" fill="#F9B384"/>
<path d="M236.217 214.757C235.788 214.848 235.349 214.889 234.912 214.954C235.499 215.737 235.213 217.238 233.91 217.449C233.811 217.464 233.712 217.475 233.614 217.49C233.733 217.953 233.705 218.325 233.379 218.749C233.161 219.036 231.296 220.287 230.536 220.648C219.138 226.074 217.205 219.847 217.754 217.696C218.183 216.034 219.957 214.119 221.406 212.6C226.034 208.693 228.934 207.049 233.606 206.277C235.484 205.964 235.273 207.767 233.72 208.724C233.005 209.164 232.193 209.557 231.41 209.806C231.379 209.843 231.343 209.874 231.301 209.903C230.06 210.787 228.887 211.752 227.784 212.793C229.277 212.751 237.286 211.838 238.108 213.032C238.4 213.446 237.297 214.528 236.217 214.757Z" fill="#F9B384"/>
<path d="M234.883 214.679L228.342 215.244L228.391 215.82L234.932 215.254L234.883 214.679Z" fill="#E28B6D"/>
<path d="M233.568 217.199L228.323 217.975L228.408 218.546L233.652 217.77L233.568 217.199Z" fill="#E28B6D"/>
<path d="M214.143 172.31C207.843 172.818 202.199 174.818 197.446 177.534C189.856 181.872 185.142 189.913 184.924 198.653C184.739 206.048 184.49 216.037 184.292 223.939C184.128 230.463 190.165 235.385 196.525 233.912L214.882 228.928C214.281 224.158 215.704 218.932 218.264 213.451L199.275 216.443L199.751 197.8L217.439 194.332L214.143 172.31Z" fill="#27BBFF"/>
<path d="M194.346 218.409L194.041 217.691C199.756 215.278 209.963 213.951 218.217 213.067L218.3 213.842C210.101 214.721 199.967 216.035 194.346 218.409Z" fill="#1A262D"/>
<path d="M219.424 184.525C216.958 184.525 214.557 183.695 212.682 182.163L213.176 181.56C215.223 183.23 217.947 184 220.649 183.672C223.115 183.373 225.222 182.215 226.577 180.413L227.202 180.881C225.716 182.855 223.425 184.119 220.745 184.445C220.303 184.499 219.864 184.525 219.424 184.525Z" fill="#1A262D"/>
<path d="M225.071 162.159V171.51C225.071 171.911 225.04 172.303 224.975 172.68C224.442 176.208 221.513 178.897 217.985 178.897C214.076 178.897 210.913 175.594 210.913 171.51V162.159H225.071Z" fill="#F9B384"/>
<path d="M225.071 165.485V172.009C225.071 172.384 225.04 172.748 224.978 173.102C216.622 173.278 213.969 166.19 213.969 166.19L225.071 165.485Z" fill="#1A262D"/>
<path d="M230.919 161.917C230.69 164.341 229.753 166.828 227.329 168.617C223.854 171.198 216.216 171.832 208.954 159.971L208.767 143.469L220.295 141.565L229.816 145.571L229.503 153.634C229.503 153.634 229.993 154.737 230.409 156.402C230.783 157.921 231.106 159.898 230.919 161.917Z" fill="#F9B384"/>
<path d="M210.988 158.095C210.21 153.452 212.104 149.722 215.452 147.938C220.345 149.634 227.672 150.313 231.319 146.926C235.226 143.997 234.207 133.894 225.524 134.164C222.319 134.609 221.039 136.323 220.714 138.672C206.116 129.953 195.61 150.825 207.651 157.448L210.988 158.095Z" fill="#263238"/>
<path d="M212.903 159.914C213.025 162.294 211.178 163.654 209.274 163.75C207.37 163.847 204.855 161.37 204.732 158.99C204.61 156.61 206.233 155.473 208.137 155.377C210.041 155.278 212.78 157.534 212.903 159.914Z" fill="#F9B384"/>
<path d="M210.273 159.334C210.018 158.993 209.76 158.649 209.49 158.348C209.217 158.049 208.928 157.775 208.618 157.627C208.311 157.474 208.015 157.456 207.682 157.57C207.352 157.695 207.013 157.934 206.673 158.199L206.433 158.01C206.634 157.599 206.938 157.214 207.388 156.951C207.617 156.823 207.89 156.745 208.171 156.74C208.452 156.74 208.73 156.813 208.967 156.935C209.438 157.185 209.768 157.557 210.02 157.95C210.27 158.345 210.452 158.764 210.551 159.217L210.273 159.334Z" fill="#E28B6D"/>
<path d="M226.38 154.768C226.429 155.442 226.788 155.965 227.181 155.936C227.574 155.905 227.849 155.335 227.8 154.659C227.751 153.985 227.392 153.463 226.999 153.491C226.606 153.522 226.33 154.092 226.38 154.768Z" fill="#1A262D"/>
<path d="M218.831 155.458C218.88 156.132 219.239 156.654 219.632 156.626C220.025 156.595 220.301 156.025 220.251 155.349C220.202 154.675 219.843 154.152 219.45 154.181C219.057 154.209 218.779 154.784 218.831 155.458Z" fill="#1A262D"/>
<path d="M223.425 155.65C223.763 156.137 224.179 156.558 224.603 156.985C225.029 157.414 225.472 157.838 225.862 158.369C226.049 158.637 226.231 158.944 226.296 159.334C226.325 159.526 226.312 159.742 226.242 159.937C226.174 160.13 226.057 160.296 225.937 160.426C225.495 160.897 224.985 161.282 224.392 161.54L224.262 161.308C224.715 160.931 225.134 160.502 225.485 160.044C225.633 159.836 225.69 159.656 225.641 159.443C225.604 159.227 225.466 158.99 225.305 158.761C224.98 158.298 224.556 157.856 224.168 157.375C223.781 156.896 223.396 156.376 223.183 155.767L223.425 155.65Z" fill="#1A262D"/>
<path d="M226.525 164.037C226.122 164.341 225.659 164.508 225.172 164.596C224.686 164.682 224.184 164.669 223.698 164.578C223.216 164.469 222.748 164.299 222.335 164.042C222.121 163.928 221.937 163.766 221.744 163.626C221.565 163.467 221.395 163.295 221.237 163.119L221.406 162.913C221.619 163.009 221.809 163.126 222.009 163.228L222.311 163.371C222.41 163.42 222.506 163.472 222.61 163.509C222.712 163.548 222.811 163.592 222.912 163.634C223.011 163.675 223.117 163.701 223.219 163.738C223.419 163.821 223.633 163.852 223.835 163.912C224.254 163.998 224.678 164.032 225.107 164.019C225.534 164.003 225.976 163.933 226.39 163.808L226.525 164.037Z" fill="#1A262D"/>
<path d="M228.247 152.651C227.917 152.542 227.626 152.451 227.334 152.406C227.046 152.357 226.765 152.347 226.494 152.373C226.224 152.401 225.961 152.464 225.706 152.565C225.451 152.667 225.206 152.812 224.939 153.023L224.58 152.833C224.634 152.427 224.887 152.047 225.225 151.785C225.563 151.519 225.984 151.369 226.406 151.337C227.248 151.267 228.104 151.668 228.513 152.341L228.247 152.651Z" fill="#1A262D"/>
<path d="M221.88 153.41C221.463 153.267 221.089 153.153 220.704 153.101C220.322 153.041 219.937 153.051 219.552 153.088C219.167 153.13 218.779 153.21 218.389 153.312C218.001 153.418 217.601 153.546 217.231 153.704L216.94 153.421C217.218 152.968 217.621 152.69 218.048 152.461C218.48 152.237 218.958 152.099 219.453 152.055C219.947 152.014 220.462 152.058 220.933 152.237C221.404 152.419 221.825 152.708 222.127 153.085L221.88 153.41Z" fill="#1A262D"/>
<path d="M698.316 268.203V403.466" stroke="#1A262D" stroke-width="4" stroke-miterlimit="10"/>
<path d="M757.795 265.774H638.834V271.964H757.795V265.774Z" fill="#D3DFFF"/>
<path d="M723.485 405.672H673.146C673.146 401.221 676.754 397.616 681.202 397.616H715.426C719.877 397.616 723.485 401.221 723.485 405.672Z" fill="#67B7DC"/>
<path d="M708.46 260.571H672.91V265.773H708.46V260.571Z" fill="#1A262D"/>
<path d="M725.345 265.773H684.792L701.455 226.193H742.011L725.345 265.773Z" fill="#67B7DC"/>
<path d="M20.4385 405.047H800.804" stroke="#1A262D" stroke-width="4.8" stroke-miterlimit="10"/>
<path d="M673.987 100.673C655.929 100.673 641.292 115.31 641.292 133.368C641.292 138.539 642.497 143.429 644.635 147.776L634.875 158.259L648.95 154.388C654.949 161.523 663.936 166.062 673.987 166.062C692.045 166.062 706.682 151.425 706.682 133.368C706.682 115.31 692.042 100.673 673.987 100.673Z" fill="white" stroke="#67B7DC" stroke-width="4" stroke-miterlimit="10"/>
<path d="M661.613 136.558C663.374 134.798 663.374 131.944 661.613 130.183C659.853 128.423 656.998 128.423 655.238 130.183C653.478 131.944 653.478 134.798 655.238 136.558C656.999 138.319 659.853 138.319 661.613 136.558Z" fill="#67B7DC"/>
<path d="M678.328 134.086C678.727 131.628 677.058 129.313 674.6 128.914C672.143 128.515 669.827 130.184 669.428 132.641C669.029 135.099 670.698 137.415 673.156 137.813C675.613 138.212 677.929 136.543 678.328 134.086Z" fill="#D3DFFF"/>
<path d="M693.708 134.447C694.28 132.024 692.78 129.596 690.357 129.024C687.934 128.452 685.506 129.952 684.934 132.375C684.362 134.798 685.862 137.226 688.285 137.798C690.708 138.37 693.136 136.87 693.708 134.447Z" fill="#D3DFFF"/>
<path d="M135.131 92.2976C153.189 92.2976 167.826 106.935 167.826 124.992C167.826 130.164 166.622 135.054 164.484 139.4L174.243 149.883L160.168 146.013C154.17 153.148 145.183 157.687 135.131 157.687C117.074 157.687 102.437 143.05 102.437 124.992C102.437 106.935 117.074 92.2976 135.131 92.2976Z" fill="white" stroke="#67B7DC" stroke-width="4" stroke-miterlimit="10"/>
<path d="M150.5 128.624C152.989 128.624 155.008 126.606 155.008 124.116C155.008 121.626 152.989 119.608 150.5 119.608C148.01 119.608 145.992 121.626 145.992 124.116C145.992 126.606 148.01 128.624 150.5 128.624Z" fill="#67B7DC"/>
<path d="M139.575 124.181C139.613 121.692 137.625 119.643 135.136 119.605C132.646 119.568 130.598 121.555 130.56 124.045C130.523 126.534 132.51 128.583 135 128.62C137.489 128.658 139.538 126.67 139.575 124.181Z" fill="#D3DFFF"/>
<path d="M124.142 124.138C124.155 121.649 122.147 119.62 119.657 119.607C117.168 119.595 115.139 121.602 115.126 124.092C115.113 126.582 117.121 128.61 119.611 128.623C122.101 128.636 124.129 126.628 124.142 124.138Z" fill="#D3DFFF"/>
</svg>
