<svg width="141" height="141" viewBox="0 0 141 141" fill="none" xmlns="http://www.w3.org/2000/svg">
<path d="M29.9513 72.6342V76.9025H34.2196V72.6342H29.9513ZM76.9025 72.6342V76.9025H81.1708V72.6342H76.9025ZM76.9025 111.049V115.317H81.1708V111.049H76.9025ZM128.122 0.0732422V4.34153H132.39V0.0732422H128.122ZM81.1708 38.4879V42.7562H85.4391V38.4879H81.1708ZM128.122 38.4879V42.7562H132.39V38.4879H128.122ZM0.0732422 21.4147V25.683H4.34153V21.4147H0.0732422ZM81.1708 76.9025V81.1708H85.4391V76.9025H81.1708ZM128.122 76.9025V81.1708H132.39V76.9025H128.122ZM0.0732422 59.8293V64.0976H4.34153V59.8293H0.0732422ZM47.0245 59.8293V64.0976H51.2928V59.8293H47.0245ZM0.0732422 98.244V102.512H4.34153V98.244H0.0732422ZM47.0245 98.244V102.512H51.2928V98.244H47.0245ZM42.7562 115.317V119.585H47.0245V115.317H42.7562ZM17.1464 8.60983V12.8781H21.4147V8.60983H17.1464ZM8.60983 136.659V140.927H12.8781V136.659H8.60983ZM93.9757 42.7562V47.0245H98.244V42.7562H93.9757ZM12.8781 25.683V29.9513H17.1464V25.683H12.8781ZM93.9757 81.1708V85.4391H98.244V81.1708H93.9757ZM12.8781 64.0976V68.3659H17.1464V64.0976H12.8781ZM12.8781 102.512V106.781H17.1464V102.512H12.8781ZM59.8293 102.512V106.781H64.0976V102.512H59.8293ZM76.9025 51.2928V55.561H81.1708V51.2928H76.9025ZM64.0976 106.781V111.049H68.3659V106.781H64.0976ZM76.9025 89.7074V93.9757H81.1708V89.7074H76.9025ZM123.854 115.317V119.585H128.122V115.317H123.854ZM128.122 17.1464V21.4147H132.39V17.1464H128.122ZM0.0732422 0.0732422V4.34153H4.34153V0.0732422H0.0732422ZM128.122 55.561V59.8293H132.39V55.561H128.122ZM47.0245 38.4879V42.7562H51.2928V38.4879H47.0245ZM106.781 47.0245V51.2928H111.049V47.0245H106.781ZM42.7562 93.9757V98.244H47.0245V93.9757H42.7562ZM106.781 123.854V128.122H111.049V123.854H106.781ZM59.8293 4.34153V8.60983H64.0976V4.34153H59.8293ZM93.9757 59.8293V64.0976H98.244V59.8293H93.9757ZM12.8781 42.7562V47.0245H17.1464V42.7562H12.8781ZM93.9757 98.244V102.512H98.244V98.244H93.9757ZM93.9757 136.659V140.927H98.244V136.659H93.9757ZM12.8781 119.585V123.854H17.1464V119.585H12.8781ZM64.0976 8.60983V12.8781H68.3659V8.60983H64.0976ZM111.049 8.60983V12.8781H115.317V8.60983H111.049ZM64.0976 47.0245V51.2928H68.3659V47.0245H64.0976ZM111.049 47.0245V51.2928H115.317V47.0245H111.049ZM29.9513 68.3659V72.6342H34.2196V68.3659H29.9513ZM123.854 93.9757V98.244H128.122V93.9757H123.854ZM89.7074 76.9025V81.1708H93.9757V76.9025H89.7074ZM25.683 123.854V128.122H29.9513V123.854H25.683ZM123.854 132.39V136.659H128.122V132.39H123.854ZM42.7562 34.2196V38.4879H47.0245V34.2196H42.7562ZM42.7562 72.6342V76.9025H47.0245V72.6342H42.7562ZM8.60983 55.561V59.8293H12.8781V55.561H8.60983ZM106.781 64.0976V68.3659H111.049V64.0976H106.781ZM106.781 102.512V106.781H111.049V102.512H106.781ZM59.8293 21.4147V25.683H64.0976V21.4147H59.8293ZM93.9757 115.317V119.585H98.244V115.317H93.9757ZM12.8781 98.244V102.512H17.1464V98.244H12.8781ZM59.8293 136.659V140.927H64.0976V136.659H59.8293ZM111.049 25.683V29.9513H115.317V25.683H111.049ZM119.585 106.781V111.049H123.854V106.781H119.585ZM76.9025 8.60983V12.8781H81.1708V8.60983H76.9025ZM123.854 34.2196V38.4879H128.122V34.2196H123.854ZM123.854 72.6342V76.9025H128.122V72.6342H123.854ZM25.683 102.512V106.781H29.9513V102.512H25.683ZM42.7562 12.8781V17.1464H47.0245V12.8781H42.7562ZM42.7562 51.2928V55.561H47.0245V51.2928H42.7562ZM106.781 81.1708V85.4391H111.049V81.1708H106.781ZM42.7562 128.122V132.39H47.0245V128.122H42.7562ZM8.60983 111.049V115.317H12.8781V111.049H8.60983ZM106.781 119.585V123.854H111.049V119.585H106.781ZM12.8781 0.0732422V4.34153H17.1464V0.0732422H12.8781ZM59.8293 0.0732422V4.34153H64.0976V0.0732422H59.8293ZM93.9757 55.561V59.8293H98.244V55.561H93.9757ZM102.512 136.659V140.927H106.781V136.659H102.512ZM12.8781 38.4879V42.7562H17.1464V38.4879H12.8781ZM12.8781 76.9025V81.1708H17.1464V76.9025H12.8781ZM59.8293 76.9025V81.1708H64.0976V76.9025H59.8293ZM111.049 4.34153V8.60983H115.317V4.34153H111.049ZM119.585 123.854V128.122H123.854V123.854H119.585ZM123.854 12.8781V17.1464H128.122V12.8781H123.854ZM25.683 42.7562V47.0245H29.9513V42.7562H25.683ZM25.683 119.585V123.854H29.9513V119.585H25.683ZM123.854 128.122V132.39H128.122V128.122H123.854ZM89.7074 111.049V115.317H93.9757V111.049H89.7074ZM8.60983 12.8781V17.1464H12.8781V12.8781H8.60983ZM42.7562 68.3659V72.6342H47.0245V68.3659H42.7562ZM106.781 59.8293V64.0976H111.049V59.8293H106.781ZM42.7562 106.781V111.049H47.0245V106.781H42.7562ZM8.60983 128.122V132.39H12.8781V128.122H8.60983ZM93.9757 34.2196V38.4879H98.244V34.2196H93.9757ZM102.512 115.317V119.585H106.781V115.317H102.512ZM12.8781 17.1464V21.4147H17.1464V17.1464H12.8781ZM119.585 25.683V29.9513H123.854V25.683H119.585ZM119.585 102.512V106.781H123.854V102.512H119.585ZM25.683 21.4147V25.683H29.9513V21.4147H25.683ZM25.683 59.8293V64.0976H29.9513V59.8293H25.683ZM123.854 68.3659V72.6342H128.122V68.3659H123.854ZM89.7074 89.7074V93.9757H93.9757V89.7074H89.7074ZM25.683 136.659V140.927H29.9513V136.659H25.683ZM42.7562 8.60983V12.8781H47.0245V8.60983H42.7562ZM42.7562 47.0245V51.2928H47.0245V47.0245H42.7562ZM136.659 72.6342V76.9025H140.927V72.6342H136.659ZM102.512 55.561V59.8293H106.781V55.561H102.512ZM102.512 93.9757V98.244H106.781V93.9757H102.512ZM68.3659 76.9025V81.1708H72.6342V76.9025H68.3659ZM72.6342 4.34153V8.60983H76.9025V4.34153H72.6342ZM119.585 42.7562V47.0245H123.854V42.7562H119.585ZM21.4147 72.6342V76.9025H25.683V72.6342H21.4147ZM72.6342 81.1708V85.4391H76.9025V81.1708H72.6342ZM119.585 81.1708V85.4391H123.854V81.1708H119.585ZM21.4147 111.049V115.317H25.683V111.049H21.4147ZM119.585 119.585V123.854H123.854V119.585H119.585ZM38.4879 102.512V106.781H42.7562V102.512H38.4879ZM25.683 0.0732422V4.34153H29.9513V0.0732422H25.683ZM123.854 8.60983V12.8781H128.122V8.60983H123.854ZM123.854 47.0245V51.2928H128.122V47.0245H123.854ZM25.683 76.9025V81.1708H29.9513V76.9025H25.683ZM85.4391 85.4391V89.7074H89.7074V85.4391H85.4391ZM85.4391 123.854V128.122H89.7074V123.854H85.4391ZM132.39 123.854V128.122H136.659V123.854H132.39ZM42.7562 25.683V29.9513H47.0245V25.683H42.7562ZM98.244 106.781V111.049H102.512V106.781H98.244ZM8.60983 8.60983V12.8781H12.8781V8.60983H8.60983ZM136.659 12.8781V17.1464H140.927V12.8781H136.659ZM17.1464 128.122V132.39H21.4147V128.122H17.1464ZM55.561 34.2196V38.4879H59.8293V34.2196H55.561ZM102.512 72.6342V76.9025H106.781V72.6342H102.512ZM136.659 128.122V132.39H140.927V128.122H136.659ZM68.3659 55.561V59.8293H72.6342V55.561H68.3659ZM4.34153 102.512V106.781H8.60983V102.512H4.34153ZM102.512 111.049V115.317H106.781V111.049H102.512ZM68.3659 93.9757V98.244H72.6342V93.9757H68.3659ZM68.3659 132.39V136.659H72.6342V132.39H68.3659ZM38.4879 4.34153V8.60983H42.7562V4.34153H38.4879ZM21.4147 51.2928V55.561H25.683V51.2928H21.4147ZM72.6342 59.8293V64.0976H76.9025V59.8293H72.6342ZM21.4147 89.7074V93.9757H25.683V89.7074H21.4147ZM119.585 98.244V102.512H123.854V98.244H119.585ZM38.4879 119.585V123.854H42.7562V119.585H38.4879ZM25.683 17.1464V21.4147H29.9513V17.1464H25.683ZM123.854 25.683V29.9513H128.122V25.683H123.854ZM89.7074 8.60983V12.8781H93.9757V8.60983H89.7074ZM34.2196 136.659V140.927H38.4879V136.659H34.2196ZM81.1708 136.659V140.927H85.4391V136.659H81.1708ZM85.4391 102.512V106.781H89.7074V102.512H85.4391ZM51.2928 85.4391V89.7074H55.561V85.4391H51.2928ZM98.244 123.854V128.122H102.512V123.854H98.244ZM136.659 68.3659V72.6342H140.927V68.3659H136.659ZM4.34153 42.7562V47.0245H8.60983V42.7562H4.34153ZM55.561 51.2928V55.561H59.8293V51.2928H55.561ZM136.659 106.781V111.049H140.927V106.781H136.659ZM55.561 89.7074V93.9757H59.8293V89.7074H55.561ZM68.3659 72.6342V76.9025H72.6342V72.6342H68.3659ZM55.561 128.122V132.39H59.8293V128.122H55.561ZM102.512 128.122V132.39H106.781V128.122H102.512ZM68.3659 111.049V115.317H72.6342V111.049H68.3659ZM119.585 0.0732422V4.34153H123.854V0.0732422H119.585ZM119.585 38.4879V42.7562H123.854V38.4879H119.585ZM21.4147 68.3659V72.6342H25.683V68.3659H21.4147ZM115.317 93.9757V98.244H119.585V93.9757H115.317ZM115.317 132.39V136.659H119.585V132.39H115.317ZM81.1708 115.317V119.585H85.4391V115.317H81.1708ZM128.122 115.317V119.585H132.39V115.317H128.122ZM85.4391 4.34153V8.60983H89.7074V4.34153H85.4391ZM0.0732422 136.659V140.927H4.34153V136.659H0.0732422ZM85.4391 42.7562V47.0245H89.7074V42.7562H85.4391ZM51.2928 25.683V29.9513H55.561V25.683H51.2928ZM85.4391 81.1708V85.4391H89.7074V81.1708H85.4391ZM51.2928 64.0976V68.3659H55.561V64.0976H51.2928ZM98.244 64.0976V68.3659H102.512V64.0976H98.244ZM51.2928 102.512V106.781H55.561V102.512H51.2928ZM136.659 8.60983V12.8781H140.927V8.60983H136.659ZM136.659 47.0245V51.2928H140.927V47.0245H136.659ZM17.1464 123.854V128.122H21.4147V123.854H17.1464ZM102.512 29.9513V34.2196H106.781V29.9513H102.512ZM4.34153 59.8293V64.0976H8.60983V59.8293H4.34153ZM102.512 68.3659V72.6342H106.781V68.3659H102.512ZM68.3659 51.2928V55.561H72.6342V51.2928H68.3659ZM102.512 106.781V111.049H106.781V106.781H102.512ZM68.3659 89.7074V93.9757H72.6342V89.7074H68.3659ZM4.34153 136.659V140.927H8.60983V136.659H4.34153ZM68.3659 128.122V132.39H72.6342V128.122H68.3659ZM72.6342 17.1464V21.4147H76.9025V17.1464H72.6342ZM119.585 17.1464V21.4147H123.854V17.1464H119.585ZM38.4879 0.0732422V4.34153H42.7562V0.0732422H38.4879ZM34.2196 93.9757V98.244H38.4879V93.9757H34.2196ZM128.122 93.9757V98.244H132.39V93.9757H128.122ZM0.0732422 76.9025V81.1708H4.34153V76.9025H0.0732422ZM47.0245 76.9025V81.1708H51.2928V76.9025H47.0245ZM81.1708 132.39V136.659H85.4391V132.39H81.1708ZM0.0732422 115.317V119.585H4.34153V115.317H0.0732422ZM47.0245 115.317V119.585H51.2928V115.317H47.0245ZM85.4391 21.4147V25.683H89.7074V21.4147H85.4391ZM51.2928 4.34153V8.60983H55.561V4.34153H51.2928ZM132.39 59.8293V64.0976H136.659V59.8293H132.39ZM51.2928 42.7562V47.0245H55.561V42.7562H51.2928ZM132.39 98.244V102.512H136.659V98.244H132.39ZM17.1464 25.683V29.9513H21.4147V25.683H17.1464ZM98.244 81.1708V85.4391H102.512V81.1708H98.244ZM132.39 136.659V140.927H136.659V136.659H132.39ZM51.2928 119.585V123.854H55.561V119.585H51.2928ZM136.659 25.683V29.9513H140.927V25.683H136.659ZM17.1464 102.512V106.781H21.4147V102.512H17.1464ZM4.34153 0.0732422V4.34153H8.60983V0.0732422H4.34153ZM55.561 8.60983V12.8781H59.8293V8.60983H55.561ZM4.34153 38.4879V42.7562H8.60983V38.4879H4.34153ZM4.34153 76.9025V81.1708H8.60983V76.9025H4.34153ZM21.4147 25.683V29.9513H25.683V25.683H21.4147ZM76.9025 106.781V111.049H81.1708V106.781H76.9025ZM34.2196 34.2196V38.4879H38.4879V34.2196H34.2196ZM128.122 34.2196V38.4879H132.39V34.2196H128.122ZM0.0732422 17.1464V21.4147H4.34153V17.1464H0.0732422ZM81.1708 72.6342V76.9025H85.4391V72.6342H81.1708ZM128.122 72.6342V76.9025H132.39V72.6342H128.122ZM115.317 128.122V132.39H119.585V128.122H115.317ZM47.0245 55.561V59.8293H51.2928V55.561H47.0245ZM128.122 111.049V115.317H132.39V111.049H128.122ZM0.0732422 93.9757V98.244H4.34153V93.9757H0.0732422ZM47.0245 93.9757V98.244H51.2928V93.9757H47.0245ZM132.39 0.0732422V4.34153H136.659V0.0732422H132.39ZM0.0732422 132.39V136.659H4.34153V132.39H0.0732422ZM47.0245 132.39V136.659H51.2928V132.39H47.0245ZM132.39 38.4879V42.7562H136.659V38.4879H132.39ZM51.2928 21.4147V25.683H55.561V21.4147H51.2928ZM85.4391 76.9025V81.1708H89.7074V76.9025H85.4391ZM132.39 76.9025V81.1708H136.659V76.9025H132.39ZM17.1464 42.7562V47.0245H21.4147V42.7562H17.1464ZM51.2928 98.244V102.512H55.561V98.244H51.2928ZM136.659 4.34153V8.60983H140.927V4.34153H136.659ZM17.1464 119.585V123.854H21.4147V119.585H17.1464ZM102.512 25.683V29.9513H106.781V25.683H102.512ZM12.8781 136.659V140.927H17.1464V136.659H12.8781ZM64.0976 64.0976V68.3659H68.3659V64.0976H64.0976ZM64.0976 102.512V106.781H68.3659V102.512H64.0976ZM111.049 102.512V106.781H115.317V102.512H111.049ZM34.2196 12.8781V17.1464H38.4879V12.8781H34.2196ZM81.1708 12.8781V17.1464H85.4391V12.8781H81.1708ZM128.122 12.8781V17.1464H132.39V12.8781H128.122ZM115.317 68.3659V72.6342H119.585V68.3659H115.317ZM81.1708 51.2928V55.561H85.4391V51.2928H81.1708ZM0.0732422 34.2196V38.4879H4.34153V34.2196H0.0732422ZM34.2196 89.7074V93.9757H38.4879V89.7074H34.2196ZM128.122 89.7074V93.9757H132.39V89.7074H128.122ZM0.0732422 72.6342V76.9025H4.34153V72.6342H0.0732422ZM128.122 128.122V132.39H132.39V128.122H128.122ZM0.0732422 111.049V115.317H4.34153V111.049H0.0732422ZM47.0245 111.049V115.317H51.2928V111.049H47.0245ZM51.2928 0.0732422V4.34153H55.561V0.0732422H51.2928ZM85.4391 55.561V59.8293H89.7074V55.561H85.4391ZM132.39 55.561V59.8293H136.659V55.561H132.39ZM51.2928 38.4879V42.7562H55.561V38.4879H51.2928ZM98.244 38.4879V42.7562H102.512V38.4879H98.244ZM98.244 76.9025V81.1708H102.512V76.9025H98.244ZM93.9757 93.9757V98.244H98.244V93.9757H93.9757ZM59.8293 115.317V119.585H64.0976V115.317H59.8293ZM64.0976 42.7562V47.0245H68.3659V42.7562H64.0976ZM76.9025 25.683V29.9513H81.1708V25.683H76.9025ZM64.0976 81.1708V85.4391H68.3659V81.1708H64.0976ZM111.049 81.1708V85.4391H115.317V81.1708H111.049ZM64.0976 119.585V123.854H68.3659V119.585H64.0976ZM111.049 119.585V123.854H115.317V119.585H111.049ZM115.317 47.0245V51.2928H119.585V47.0245H115.317ZM34.2196 29.9513V34.2196H38.4879V29.9513H34.2196ZM115.317 85.4391V89.7074H119.585V85.4391H115.317ZM0.0732422 12.8781V17.1464H4.34153V12.8781H0.0732422ZM47.0245 12.8781V17.1464H51.2928V12.8781H47.0245ZM81.1708 68.3659V72.6342H85.4391V68.3659H81.1708ZM128.122 68.3659V72.6342H132.39V68.3659H128.122ZM47.0245 51.2928V55.561H51.2928V51.2928H47.0245ZM81.1708 106.781V111.049H85.4391V106.781H81.1708ZM128.122 106.781V111.049H132.39V106.781H128.122ZM0.0732422 89.7074V93.9757H4.34153V89.7074H0.0732422ZM47.0245 89.7074V93.9757H51.2928V89.7074H47.0245ZM47.0245 128.122V132.39H51.2928V128.122H47.0245ZM106.781 98.244V102.512H111.049V98.244H106.781ZM17.1464 0.0732422V4.34153H21.4147V0.0732422H17.1464ZM17.1464 38.4879V42.7562H21.4147V38.4879H17.1464ZM12.8781 55.561V59.8293H17.1464V55.561H12.8781ZM59.8293 55.561V59.8293H64.0976V55.561H59.8293ZM12.8781 93.9757V98.244H17.1464V93.9757H12.8781ZM111.049 21.4147V25.683H115.317V21.4147H111.049ZM111.049 59.8293V64.0976H115.317V59.8293H111.049ZM29.9513 42.7562V47.0245H34.2196V42.7562H29.9513ZM76.9025 42.7562V47.0245H81.1708V42.7562H76.9025ZM111.049 98.244V102.512H115.317V98.244H111.049ZM29.9513 81.1708V85.4391H34.2196V81.1708H29.9513ZM76.9025 81.1708V85.4391H81.1708V81.1708H76.9025ZM76.9025 119.585V123.854H81.1708V119.585H76.9025ZM115.317 25.683V29.9513H119.585V25.683H115.317ZM34.2196 8.60983V12.8781H38.4879V8.60983H34.2196ZM81.1708 8.60983V12.8781H85.4391V8.60983H81.1708ZM128.122 8.60983V12.8781H132.39V8.60983H128.122ZM81.1708 47.0245V51.2928H85.4391V47.0245H81.1708ZM128.122 47.0245V51.2928H132.39V47.0245H128.122ZM47.0245 29.9513V34.2196H51.2928V29.9513H47.0245ZM0.0732422 68.3659V72.6342H4.34153V68.3659H0.0732422ZM42.7562 85.4391V89.7074H47.0245V85.4391H42.7562ZM106.781 76.9025V81.1708H111.049V76.9025H106.781ZM93.9757 12.8781V17.1464H98.244V12.8781H93.9757ZM59.8293 34.2196V38.4879H64.0976V34.2196H59.8293ZM93.9757 89.7074V93.9757H98.244V89.7074H93.9757ZM93.9757 128.122V132.39H98.244V128.122H93.9757ZM12.8781 111.049V115.317H17.1464V111.049H12.8781ZM59.8293 111.049V115.317H64.0976V111.049H59.8293ZM111.049 0.0732422V4.34153H115.317V0.0732422H111.049ZM64.0976 38.4879V42.7562H68.3659V38.4879H64.0976ZM64.0976 76.9025V81.1708H68.3659V76.9025H64.0976ZM111.049 76.9025V81.1708H115.317V76.9025H111.049ZM29.9513 98.244V102.512H34.2196V98.244H29.9513ZM123.854 85.4391V89.7074H128.122V85.4391H123.854ZM25.683 115.317V119.585H29.9513V115.317H25.683ZM123.854 123.854V128.122H128.122V123.854H123.854ZM128.122 25.683V29.9513H132.39V25.683H128.122ZM0.0732422 8.60983V12.8781H4.34153V8.60983H0.0732422ZM8.60983 85.4391V89.7074H12.8781V85.4391H8.60983ZM106.781 93.9757V98.244H111.049V93.9757H106.781ZM8.60983 123.854V128.122H12.8781V123.854H8.60983ZM12.8781 12.8781V17.1464H17.1464V12.8781H12.8781ZM93.9757 68.3659V72.6342H98.244V68.3659H93.9757ZM59.8293 51.2928V55.561H64.0976V51.2928H59.8293ZM93.9757 106.781V111.049H98.244V106.781H93.9757ZM12.8781 128.122V132.39H17.1464V128.122H12.8781ZM64.0976 17.1464V21.4147H68.3659V17.1464H64.0976ZM111.049 17.1464V21.4147H115.317V17.1464H111.049ZM76.9025 0.0732422V4.34153H81.1708V0.0732422H76.9025ZM72.6342 136.659V140.927H76.9025V136.659H72.6342ZM76.9025 38.4879V42.7562H81.1708V38.4879H76.9025ZM89.7074 47.0245V51.2928H93.9757V47.0245H89.7074ZM25.683 93.9757V98.244H29.9513V93.9757H25.683ZM123.854 102.512V106.781H128.122V102.512H123.854ZM89.7074 85.4391V89.7074H93.9757V85.4391H89.7074ZM25.683 132.39V136.659H29.9513V132.39H25.683ZM42.7562 42.7562V47.0245H47.0245V42.7562H42.7562ZM8.60983 25.683V29.9513H12.8781V25.683H8.60983ZM106.781 34.2196V38.4879H111.049V34.2196H106.781ZM42.7562 81.1708V85.4391H47.0245V81.1708H42.7562ZM8.60983 64.0976V68.3659H12.8781V64.0976H8.60983ZM106.781 72.6342V76.9025H111.049V72.6342H106.781ZM42.7562 119.585V123.854H47.0245V119.585H42.7562ZM8.60983 102.512V106.781H12.8781V102.512H8.60983ZM93.9757 8.60983V12.8781H98.244V8.60983H93.9757ZM93.9757 47.0245V51.2928H98.244V47.0245H93.9757ZM59.8293 29.9513V34.2196H64.0976V29.9513H59.8293ZM119.585 115.317V119.585H123.854V115.317H119.585ZM76.9025 17.1464V21.4147H81.1708V17.1464H76.9025ZM25.683 34.2196V38.4879H29.9513V34.2196H25.683ZM123.854 81.1708V85.4391H128.122V81.1708H123.854ZM25.683 111.049V115.317H29.9513V111.049H25.683ZM123.854 119.585V123.854H128.122V119.585H123.854ZM42.7562 21.4147V25.683H47.0245V21.4147H42.7562ZM42.7562 59.8293V64.0976H47.0245V59.8293H42.7562ZM8.60983 42.7562V47.0245H12.8781V42.7562H8.60983ZM8.60983 81.1708V85.4391H12.8781V81.1708H8.60983ZM106.781 89.7074V93.9757H111.049V89.7074H106.781ZM42.7562 136.659V140.927H47.0245V136.659H42.7562ZM8.60983 119.585V123.854H12.8781V119.585H8.60983ZM93.9757 25.683V29.9513H98.244V25.683H93.9757ZM55.561 106.781V111.049H59.8293V106.781H55.561ZM12.8781 8.60983V12.8781H17.1464V8.60983H12.8781ZM12.8781 47.0245V51.2928H17.1464V47.0245H12.8781ZM59.8293 47.0245V51.2928H64.0976V47.0245H59.8293ZM72.6342 55.561V59.8293H76.9025V55.561H72.6342ZM119.585 132.39V136.659H123.854V132.39H119.585ZM25.683 12.8781V17.1464H29.9513V12.8781H25.683ZM89.7074 4.34153V8.60983H93.9757V4.34153H89.7074ZM25.683 51.2928V55.561H29.9513V51.2928H25.683ZM89.7074 42.7562V47.0245H93.9757V42.7562H89.7074ZM123.854 98.244V102.512H128.122V98.244H123.854ZM89.7074 81.1708V85.4391H93.9757V81.1708H89.7074ZM25.683 128.122V132.39H29.9513V128.122H25.683ZM89.7074 119.585V123.854H93.9757V119.585H89.7074ZM42.7562 38.4879V42.7562H47.0245V38.4879H42.7562ZM42.7562 76.9025V81.1708H47.0245V76.9025H42.7562ZM106.781 68.3659V72.6342H111.049V68.3659H106.781ZM136.659 64.0976V68.3659H140.927V64.0976H136.659ZM8.60983 98.244V102.512H12.8781V98.244H8.60983ZM93.9757 4.34153V8.60983H98.244V4.34153H93.9757ZM55.561 85.4391V89.7074H59.8293V85.4391H55.561ZM102.512 85.4391V89.7074H106.781V85.4391H102.512ZM59.8293 25.683V29.9513H64.0976V25.683H59.8293ZM68.3659 106.781V111.049H72.6342V106.781H68.3659ZM72.6342 34.2196V38.4879H76.9025V34.2196H72.6342ZM21.4147 64.0976V68.3659H25.683V64.0976H21.4147ZM72.6342 72.6342V76.9025H76.9025V72.6342H72.6342ZM21.4147 102.512V106.781H25.683V102.512H21.4147ZM119.585 111.049V115.317H123.854V111.049H119.585ZM123.854 0.0732422V4.34153H128.122V0.0732422H123.854ZM38.4879 132.39V136.659H42.7562V132.39H38.4879ZM123.854 38.4879V42.7562H128.122V38.4879H123.854ZM25.683 68.3659V72.6342H29.9513V68.3659H25.683ZM123.854 76.9025V81.1708H128.122V76.9025H123.854ZM85.4391 115.317V119.585H89.7074V115.317H85.4391ZM132.39 115.317V119.585H136.659V115.317H132.39ZM42.7562 17.1464V21.4147H47.0245V17.1464H42.7562ZM8.60983 0.0732422V4.34153H12.8781V0.0732422H8.60983ZM8.60983 38.4879V42.7562H12.8781V38.4879H8.60983ZM136.659 42.7562V47.0245H140.927V42.7562H136.659ZM8.60983 76.9025V81.1708H12.8781V76.9025H8.60983ZM55.561 64.0976V68.3659H59.8293V64.0976H55.561ZM55.561 102.512V106.781H59.8293V102.512H55.561ZM102.512 102.512V106.781H106.781V102.512H102.512ZM68.3659 85.4391V89.7074H72.6342V85.4391H68.3659ZM68.3659 123.854V128.122H72.6342V123.854H68.3659ZM119.585 12.8781V17.1464H123.854V12.8781H119.585ZM21.4147 42.7562V47.0245H25.683V42.7562H21.4147ZM72.6342 51.2928V55.561H76.9025V51.2928H72.6342ZM119.585 51.2928V55.561H123.854V51.2928H119.585ZM119.585 128.122V132.39H123.854V128.122H119.585ZM38.4879 111.049V115.317H42.7562V111.049H38.4879ZM25.683 8.60983V12.8781H29.9513V8.60983H25.683ZM123.854 17.1464V21.4147H128.122V17.1464H123.854ZM25.683 85.4391V89.7074H29.9513V85.4391H25.683ZM85.4391 93.9757V98.244H89.7074V93.9757H85.4391ZM132.39 93.9757V98.244H136.659V93.9757H132.39ZM85.4391 132.39V136.659H89.7074V132.39H85.4391ZM51.2928 115.317V119.585H55.561V115.317H51.2928ZM98.244 115.317V119.585H102.512V115.317H98.244ZM8.60983 17.1464V21.4147H12.8781V17.1464H8.60983ZM136.659 21.4147V25.683H140.927V21.4147H136.659ZM17.1464 98.244V102.512H21.4147V98.244H17.1464ZM55.561 4.34153V8.60983H59.8293V4.34153H55.561ZM17.1464 136.659V140.927H21.4147V136.659H17.1464ZM102.512 42.7562V47.0245H106.781V42.7562H102.512ZM136.659 98.244V102.512H140.927V98.244H136.659ZM68.3659 25.683V29.9513H72.6342V25.683H68.3659ZM4.34153 72.6342V76.9025H8.60983V72.6342H4.34153ZM55.561 81.1708V85.4391H59.8293V81.1708H55.561ZM4.34153 111.049V115.317H8.60983V111.049H4.34153ZM102.512 119.585V123.854H106.781V119.585H102.512ZM68.3659 102.512V106.781H72.6342V102.512H68.3659ZM38.4879 12.8781V17.1464H42.7562V12.8781H38.4879ZM72.6342 68.3659V72.6342H76.9025V68.3659H72.6342ZM119.585 68.3659V72.6342H123.854V68.3659H119.585ZM38.4879 51.2928V55.561H42.7562V51.2928H38.4879ZM38.4879 89.7074V93.9757H42.7562V89.7074H38.4879ZM21.4147 136.659V140.927H25.683V136.659H21.4147ZM115.317 123.854V128.122H119.585V123.854H115.317ZM25.683 25.683V29.9513H29.9513V25.683H25.683ZM34.2196 106.781V111.049H38.4879V106.781H34.2196ZM89.7074 17.1464V21.4147H93.9757V17.1464H89.7074ZM0.0732422 128.122V132.39H4.34153V128.122H0.0732422ZM132.39 34.2196V38.4879H136.659V34.2196H132.39ZM85.4391 72.6342V76.9025H89.7074V72.6342H85.4391ZM85.4391 111.049V115.317H89.7074V111.049H85.4391ZM51.2928 93.9757V98.244H55.561V93.9757H51.2928ZM98.244 93.9757V98.244H102.512V93.9757H98.244ZM136.659 0.0732422V4.34153H140.927V0.0732422H136.659ZM98.244 132.39V136.659H102.512V132.39H98.244ZM136.659 38.4879V42.7562H140.927V38.4879H136.659ZM102.512 21.4147V25.683H106.781V21.4147H102.512ZM68.3659 4.34153V8.60983H72.6342V4.34153H68.3659ZM4.34153 51.2928V55.561H8.60983V51.2928H4.34153ZM55.561 59.8293V64.0976H59.8293V59.8293H55.561ZM68.3659 42.7562V47.0245H72.6342V42.7562H68.3659ZM102.512 98.244V102.512H106.781V98.244H102.512ZM68.3659 81.1708V85.4391H72.6342V81.1708H68.3659ZM21.4147 0.0732422V4.34153H25.683V0.0732422H21.4147ZM72.6342 8.60983V12.8781H76.9025V8.60983H72.6342ZM119.585 8.60983V12.8781H123.854V8.60983H119.585ZM21.4147 38.4879V42.7562H25.683V38.4879H21.4147ZM119.585 47.0245V51.2928H123.854V47.0245H119.585ZM115.317 102.512V106.781H119.585V102.512H115.317ZM25.683 4.34153V8.60983H29.9513V4.34153H25.683ZM81.1708 85.4391V89.7074H85.4391V85.4391H81.1708ZM128.122 123.854V128.122H132.39V123.854H128.122ZM85.4391 51.2928V55.561H89.7074V51.2928H85.4391ZM51.2928 34.2196V38.4879H55.561V34.2196H51.2928ZM85.4391 89.7074V93.9757H89.7074V89.7074H85.4391ZM17.1464 17.1464V21.4147H21.4147V17.1464H17.1464ZM98.244 72.6342V76.9025H102.512V72.6342H98.244ZM85.4391 128.122V132.39H89.7074V128.122H85.4391ZM132.39 128.122V132.39H136.659V128.122H132.39ZM98.244 111.049V115.317H102.512V111.049H98.244ZM136.659 17.1464V21.4147H140.927V17.1464H136.659ZM17.1464 93.9757V98.244H21.4147V93.9757H17.1464ZM136.659 55.561V59.8293H140.927V55.561H136.659ZM68.3659 21.4147V25.683H72.6342V21.4147H68.3659ZM4.34153 68.3659V72.6342H8.60983V68.3659H4.34153ZM55.561 76.9025V81.1708H59.8293V76.9025H55.561ZM21.4147 55.561V59.8293H25.683V55.561H21.4147ZM34.2196 25.683V29.9513H38.4879V25.683H34.2196ZM34.2196 64.0976V68.3659H38.4879V64.0976H34.2196ZM81.1708 64.0976V68.3659H85.4391V64.0976H81.1708ZM128.122 64.0976V68.3659H132.39V64.0976H128.122ZM0.0732422 47.0245V51.2928H4.34153V47.0245H0.0732422ZM115.317 119.585V123.854H119.585V119.585H115.317ZM81.1708 102.512V106.781H85.4391V102.512H81.1708ZM0.0732422 85.4391V89.7074H4.34153V85.4391H0.0732422ZM47.0245 85.4391V89.7074H51.2928V85.4391H47.0245ZM0.0732422 123.854V128.122H4.34153V123.854H0.0732422ZM47.0245 123.854V128.122H51.2928V123.854H47.0245ZM51.2928 12.8781V17.1464H55.561V12.8781H51.2928ZM51.2928 51.2928V55.561H55.561V51.2928H51.2928ZM51.2928 89.7074V93.9757H55.561V89.7074H51.2928ZM17.1464 72.6342V76.9025H21.4147V72.6342H17.1464ZM17.1464 111.049V115.317H21.4147V111.049H17.1464ZM64.0976 93.9757V98.244H68.3659V93.9757H64.0976ZM29.9513 76.9025V81.1708H34.2196V76.9025H29.9513ZM64.0976 132.39V136.659H68.3659V132.39H64.0976ZM34.2196 4.34153V8.60983H38.4879V4.34153H34.2196ZM34.2196 42.7562V47.0245H38.4879V42.7562H34.2196ZM128.122 42.7562V47.0245H132.39V42.7562H128.122ZM115.317 98.244V102.512H119.585V98.244H115.317ZM0.0732422 25.683V29.9513H4.34153V25.683H0.0732422ZM81.1708 81.1708V85.4391H85.4391V81.1708H81.1708ZM128.122 81.1708V85.4391H132.39V81.1708H128.122ZM115.317 136.659V140.927H119.585V136.659H115.317ZM81.1708 119.585V123.854H85.4391V119.585H81.1708ZM0.0732422 102.512V106.781H4.34153V102.512H0.0732422ZM85.4391 8.60983V12.8781H89.7074V8.60983H85.4391ZM132.39 47.0245V51.2928H136.659V47.0245H132.39ZM17.1464 12.8781V17.1464H21.4147V12.8781H17.1464ZM51.2928 68.3659V72.6342H55.561V68.3659H51.2928ZM4.34153 25.683V29.9513H8.60983V25.683H4.34153ZM64.0976 34.2196V38.4879H68.3659V34.2196H64.0976ZM111.049 34.2196V38.4879H115.317V34.2196H111.049ZM111.049 72.6342V76.9025H115.317V72.6342H111.049ZM64.0976 72.6342V76.9025H68.3659V72.6342H64.0976ZM29.9513 55.561V59.8293H34.2196V55.561H29.9513ZM64.0976 111.049V115.317H68.3659V111.049H64.0976ZM111.049 111.049V115.317H115.317V111.049H111.049ZM76.9025 93.9757V98.244H81.1708V93.9757H76.9025ZM115.317 0.0732422V4.34153H119.585V0.0732422H115.317ZM115.317 76.9025V81.1708H119.585V76.9025H115.317ZM0.0732422 4.34153V8.60983H4.34153V4.34153H0.0732422ZM81.1708 59.8293V64.0976H85.4391V59.8293H81.1708ZM128.122 59.8293V64.0976H132.39V59.8293H128.122ZM34.2196 98.244V102.512H38.4879V98.244H34.2196ZM0.0732422 81.1708V85.4391H4.34153V81.1708H0.0732422ZM0.0732422 119.585V123.854H4.34153V119.585H0.0732422ZM85.4391 25.683V29.9513H89.7074V25.683H85.4391ZM132.39 25.683V29.9513H136.659V25.683H132.39ZM98.244 47.0245V51.2928H102.512V47.0245H98.244ZM17.1464 68.3659V72.6342H21.4147V68.3659H17.1464ZM59.8293 85.4391V89.7074H64.0976V85.4391H59.8293ZM12.8781 123.854V128.122H17.1464V123.854H12.8781ZM59.8293 123.854V128.122H64.0976V123.854H59.8293ZM64.0976 12.8781V17.1464H68.3659V12.8781H64.0976ZM111.049 12.8781V17.1464H115.317V12.8781H111.049ZM64.0976 51.2928V55.561H68.3659V51.2928H64.0976ZM76.9025 34.2196V38.4879H81.1708V34.2196H76.9025Z" fill="black"/>
</svg>
