<svg width="139" height="139" viewBox="0 0 139 139" fill="none" xmlns="http://www.w3.org/2000/svg">
<path d="M34.0271 81.3244V86.0541H38.7568V81.3244H34.0271ZM86.0541 81.3244V86.0541H90.7838V81.3244H86.0541ZM86.0541 123.892V128.622H90.7838V123.892H86.0541ZM38.7568 0.918945V5.64868H43.4865V0.918945H38.7568ZM90.7838 0.918945V5.64868H95.5135V0.918945H90.7838ZM128.622 62.4054V67.1352H133.351V62.4054H128.622ZM38.7568 43.4865V48.2162H43.4865V43.4865H38.7568ZM90.7838 43.4865V48.2162H95.5135V43.4865H90.7838ZM0.918945 24.5676V29.2973H5.64868V24.5676H0.918945ZM52.946 24.5676V29.2973H57.6757V24.5676H52.946ZM90.7838 86.0541V90.7838H95.5135V86.0541H90.7838ZM0.918945 67.1352V71.8649H5.64868V67.1352H0.918945ZM0.918945 109.703V114.432H5.64868V109.703H0.918945ZM48.2162 128.622V133.351H52.946V128.622H48.2162ZM19.8379 10.3784V15.1081H24.5676V10.3784H19.8379ZM104.973 48.2162V52.946H109.703V48.2162H104.973ZM15.1081 29.2973V34.0271H19.8379V29.2973H15.1081ZM104.973 90.7838V95.5135H109.703V90.7838H104.973ZM15.1081 114.432V119.162H19.8379V114.432H15.1081ZM71.8649 34.0271V38.7568H76.5946V34.0271H71.8649ZM34.0271 57.6757V62.4054H38.7568V57.6757H34.0271ZM71.8649 119.162V123.892H76.5946V119.162H71.8649ZM38.7568 19.8379V24.5676H43.4865V19.8379H38.7568ZM0.918945 0.918945V5.64868H5.64868V0.918945H0.918945ZM52.946 0.918945V5.64868H57.6757V0.918945H52.946ZM52.946 43.4865V48.2162H57.6757V43.4865H52.946ZM119.162 52.946V57.6757H123.892V52.946H119.162ZM119.162 95.5135V100.243H123.892V95.5135H119.162ZM104.973 24.5676V29.2973H109.703V24.5676H104.973ZM67.1352 48.2162V52.946H71.8649V48.2162H67.1352ZM15.1081 90.7838V95.5135H19.8379V90.7838H15.1081ZM15.1081 133.351V138.081H19.8379V133.351H15.1081ZM67.1352 133.351V138.081H71.8649V133.351H67.1352ZM71.8649 10.3784V15.1081H76.5946V10.3784H71.8649ZM123.892 10.3784V15.1081H128.622V10.3784H123.892ZM71.8649 52.946V57.6757H76.5946V52.946H71.8649ZM86.0541 76.5946V81.3244H90.7838V76.5946H86.0541ZM100.243 86.0541V90.7838H104.973V86.0541H100.243ZM52.946 19.8379V24.5676H57.6757V19.8379H52.946ZM48.2162 38.7568V43.4865H52.946V38.7568H48.2162ZM119.162 29.2973V34.0271H123.892V29.2973H119.162ZM48.2162 81.3244V86.0541H52.946V81.3244H48.2162ZM10.3784 62.4054V67.1352H15.1081V62.4054H10.3784ZM10.3784 104.973V109.703H15.1081V104.973H10.3784ZM119.162 114.432V119.162H123.892V114.432H119.162ZM104.973 0.918945V5.64868H109.703V0.918945H104.973ZM104.973 43.4865V48.2162H109.703V43.4865H104.973ZM67.1352 24.5676V29.2973H71.8649V24.5676H67.1352ZM104.973 86.0541V90.7838H109.703V86.0541H104.973ZM123.892 29.2973V34.0271H128.622V29.2973H123.892ZM133.351 119.162V123.892H138.081V119.162H133.351ZM86.0541 10.3784V15.1081H90.7838V10.3784H86.0541ZM86.0541 52.946V57.6757H90.7838V52.946H86.0541ZM29.2973 114.432V119.162H34.0271V114.432H29.2973ZM48.2162 57.6757V62.4054H52.946V57.6757H48.2162ZM10.3784 81.3244V86.0541H15.1081V81.3244H10.3784ZM10.3784 123.892V128.622H15.1081V123.892H10.3784ZM104.973 19.8379V24.5676H109.703V19.8379H104.973ZM15.1081 0.918945V5.64868H19.8379V0.918945H15.1081ZM104.973 62.4054V67.1352H109.703V62.4054H104.973ZM133.351 95.5135V100.243H138.081V95.5135H133.351ZM43.4865 119.162V123.892H48.2162V119.162H43.4865ZM29.2973 48.2162V52.946H34.0271V48.2162H29.2973ZM100.243 38.7568V43.4865H104.973V38.7568H100.243ZM100.243 81.3244V86.0541H104.973V81.3244H100.243ZM29.2973 133.351V138.081H34.0271V133.351H29.2973ZM48.2162 34.0271V38.7568H52.946V34.0271H48.2162ZM10.3784 15.1081V19.8379H15.1081V15.1081H10.3784ZM119.162 67.1352V71.8649H123.892V67.1352H119.162ZM48.2162 119.162V123.892H52.946V119.162H48.2162ZM104.973 38.7568V43.4865H109.703V38.7568H104.973ZM114.432 128.622V133.351H119.162V128.622H114.432ZM15.1081 19.8379V24.5676H19.8379V19.8379H15.1081ZM133.351 29.2973V34.0271H138.081V29.2973H133.351ZM133.351 71.8649V76.5946H138.081V71.8649H133.351ZM24.5676 104.973V109.703H29.2973V104.973H24.5676ZM81.3244 114.432V119.162H86.0541V114.432H81.3244ZM133.351 114.432V119.162H138.081V114.432H133.351ZM29.2973 24.5676V29.2973H34.0271V24.5676H29.2973ZM29.2973 67.1352V71.8649H34.0271V67.1352H29.2973ZM29.2973 109.703V114.432H34.0271V109.703H29.2973ZM48.2162 10.3784V15.1081H52.946V10.3784H48.2162ZM119.162 0.918945V5.64868H123.892V0.918945H119.162ZM119.162 43.4865V48.2162H123.892V43.4865H119.162ZM10.3784 76.5946V81.3244H15.1081V76.5946H10.3784ZM62.4054 62.4054V67.1352H67.1352V62.4054H62.4054ZM114.432 62.4054V67.1352H119.162V62.4054H114.432ZM62.4054 104.973V109.703H67.1352V104.973H62.4054ZM114.432 104.973V109.703H119.162V104.973H114.432ZM76.5946 86.0541V90.7838H81.3244V86.0541H76.5946ZM76.5946 128.622V133.351H81.3244V128.622H76.5946ZM133.351 5.64868V10.3784H138.081V5.64868H133.351ZM133.351 48.2162V52.946H138.081V48.2162H133.351ZM133.351 90.7838V95.5135H138.081V90.7838H133.351ZM43.4865 114.432V119.162H48.2162V114.432H43.4865ZM29.2973 0.918945V5.64868H34.0271V0.918945H29.2973ZM29.2973 86.0541V90.7838H34.0271V86.0541H29.2973ZM100.243 76.5946V81.3244H104.973V76.5946H100.243ZM95.5135 95.5135V100.243H100.243V95.5135H95.5135ZM48.2162 29.2973V34.0271H52.946V29.2973H48.2162ZM57.6757 119.162V123.892H62.4054V119.162H57.6757ZM10.3784 10.3784V15.1081H15.1081V10.3784H10.3784ZM10.3784 52.946V57.6757H15.1081V52.946H10.3784ZM114.432 38.7568V43.4865H119.162V38.7568H114.432ZM5.64868 71.8649V76.5946H10.3784V71.8649H5.64868ZM62.4054 81.3244V86.0541H67.1352V81.3244H62.4054ZM114.432 81.3244V86.0541H119.162V81.3244H114.432ZM76.5946 62.4054V67.1352H81.3244V62.4054H76.5946ZM62.4054 123.892V128.622H67.1352V123.892H62.4054ZM133.351 24.5676V29.2973H138.081V24.5676H133.351ZM43.4865 5.64868V10.3784H48.2162V5.64868H43.4865ZM24.5676 57.6757V62.4054H29.2973V57.6757H24.5676ZM81.3244 67.1352V71.8649H86.0541V67.1352H81.3244ZM133.351 67.1352V71.8649H138.081V67.1352H133.351ZM133.351 109.703V114.432H138.081V109.703H133.351ZM43.4865 90.7838V95.5135H48.2162V90.7838H43.4865ZM43.4865 133.351V138.081H48.2162V133.351H43.4865ZM29.2973 19.8379V24.5676H34.0271V19.8379H29.2973ZM95.5135 114.432V119.162H100.243V114.432H95.5135ZM109.703 95.5135V100.243H114.432V95.5135H109.703ZM19.8379 119.162V123.892H24.5676V119.162H19.8379ZM114.432 15.1081V19.8379H119.162V15.1081H114.432ZM62.4054 57.6757V62.4054H67.1352V57.6757H62.4054ZM114.432 100.243V104.973H119.162V100.243H114.432ZM5.64868 133.351V138.081H10.3784V133.351H5.64868ZM76.5946 123.892V128.622H81.3244V123.892H76.5946ZM133.351 0.918945V5.64868H138.081V0.918945H133.351ZM81.3244 43.4865V48.2162H86.0541V43.4865H81.3244ZM133.351 43.4865V48.2162H138.081V43.4865H133.351ZM43.4865 24.5676V29.2973H48.2162V24.5676H43.4865ZM24.5676 76.5946V81.3244H29.2973V76.5946H24.5676ZM133.351 86.0541V90.7838H138.081V86.0541H133.351ZM90.7838 128.622V133.351H95.5135V128.622H90.7838ZM57.6757 29.2973V34.0271H62.4054V29.2973H57.6757ZM109.703 29.2973V34.0271H114.432V29.2973H109.703ZM95.5135 90.7838V95.5135H100.243V90.7838H95.5135ZM57.6757 71.8649V76.5946H62.4054V71.8649H57.6757ZM19.8379 52.946V57.6757H24.5676V52.946H19.8379ZM57.6757 114.432V119.162H62.4054V114.432H57.6757ZM109.703 114.432V119.162H114.432V114.432H109.703ZM19.8379 95.5135V100.243H24.5676V95.5135H19.8379ZM62.4054 34.0271V38.7568H67.1352V34.0271H62.4054ZM76.5946 57.6757V62.4054H81.3244V57.6757H76.5946ZM76.5946 100.243V104.973H81.3244V100.243H76.5946ZM133.351 19.8379V24.5676H138.081V19.8379H133.351ZM24.5676 52.946V57.6757H29.2973V52.946H24.5676ZM128.622 81.3244V86.0541H133.351V81.3244H128.622ZM38.7568 62.4054V67.1352H43.4865V62.4054H38.7568ZM128.622 123.892V128.622H133.351V123.892H128.622ZM38.7568 104.973V109.703H43.4865V104.973H38.7568ZM90.7838 104.973V109.703H95.5135V104.973H90.7838ZM0.918945 128.622V133.351H5.64868V128.622H0.918945ZM52.946 128.622V133.351H57.6757V128.622H52.946ZM95.5135 24.5676V29.2973H100.243V24.5676H95.5135ZM57.6757 5.64868V10.3784H62.4054V5.64868H57.6757ZM95.5135 109.703V114.432H100.243V109.703H95.5135ZM19.8379 29.2973V34.0271H24.5676V29.2973H19.8379ZM109.703 90.7838V95.5135H114.432V90.7838H109.703ZM57.6757 133.351V138.081H62.4054V133.351H57.6757ZM109.703 133.351V138.081H114.432V133.351H109.703ZM19.8379 114.432V119.162H24.5676V114.432H19.8379ZM5.64868 0.918945V5.64868H10.3784V0.918945H5.64868ZM62.4054 10.3784V15.1081H67.1352V10.3784H62.4054ZM114.432 10.3784V15.1081H119.162V10.3784H114.432ZM62.4054 52.946V57.6757H67.1352V52.946H62.4054ZM114.432 52.946V57.6757H119.162V52.946H114.432ZM76.5946 76.5946V81.3244H81.3244V76.5946H76.5946ZM24.5676 29.2973V34.0271H29.2973V29.2973H24.5676ZM128.622 57.6757V62.4054H133.351V57.6757H128.622ZM38.7568 38.7568V43.4865H43.4865V38.7568H38.7568ZM90.7838 38.7568V43.4865H95.5135V38.7568H90.7838ZM0.918945 19.8379V24.5676H5.64868V19.8379H0.918945ZM90.7838 81.3244V86.0541H95.5135V81.3244H90.7838ZM0.918945 62.4054V67.1352H5.64868V62.4054H0.918945ZM52.946 62.4054V67.1352H57.6757V62.4054H52.946ZM0.918945 104.973V109.703H5.64868V104.973H0.918945ZM52.946 104.973V109.703H57.6757V104.973H52.946ZM109.703 67.1352V71.8649H114.432V67.1352H109.703ZM19.8379 48.2162V52.946H24.5676V48.2162H19.8379ZM19.8379 90.7838V95.5135H24.5676V90.7838H19.8379ZM19.8379 133.351V138.081H24.5676V133.351H19.8379ZM114.432 29.2973V34.0271H119.162V29.2973H114.432ZM76.5946 10.3784V15.1081H81.3244V10.3784H76.5946ZM5.64868 62.4054V67.1352H10.3784V62.4054H5.64868ZM71.8649 71.8649V76.5946H76.5946V71.8649H71.8649ZM71.8649 114.432V119.162H76.5946V114.432H71.8649ZM34.0271 95.5135V100.243H38.7568V95.5135H34.0271ZM38.7568 15.1081V19.8379H43.4865V15.1081H38.7568ZM128.622 76.5946V81.3244H133.351V76.5946H128.622ZM38.7568 57.6757V62.4054H43.4865V57.6757H38.7568ZM0.918945 38.7568V43.4865H5.64868V38.7568H0.918945ZM52.946 38.7568V43.4865H57.6757V38.7568H52.946ZM38.7568 100.243V104.973H43.4865V100.243H38.7568ZM0.918945 81.3244V86.0541H5.64868V81.3244H0.918945ZM0.918945 123.892V128.622H5.64868V123.892H0.918945ZM52.946 123.892V128.622H57.6757V123.892H52.946ZM95.5135 19.8379V24.5676H100.243V19.8379H95.5135ZM57.6757 0.918945V5.64868H62.4054V0.918945H57.6757ZM109.703 0.918945V5.64868H114.432V0.918945H109.703ZM95.5135 62.4054V67.1352H100.243V62.4054H95.5135ZM57.6757 43.4865V48.2162H62.4054V43.4865H57.6757ZM109.703 43.4865V48.2162H114.432V43.4865H109.703ZM104.973 104.973V109.703H109.703V104.973H104.973ZM67.1352 128.622V133.351H71.8649V128.622H67.1352ZM71.8649 5.64868V10.3784H76.5946V5.64868H71.8649ZM86.0541 29.2973V34.0271H90.7838V29.2973H86.0541ZM71.8649 90.7838V95.5135H76.5946V90.7838H71.8649ZM34.0271 71.8649V76.5946H38.7568V71.8649H34.0271ZM86.0541 71.8649V76.5946H90.7838V71.8649H86.0541ZM86.0541 114.432V119.162H90.7838V114.432H86.0541ZM128.622 52.946V57.6757H133.351V52.946H128.622ZM38.7568 34.0271V38.7568H43.4865V34.0271H38.7568ZM0.918945 15.1081V19.8379H5.64868V15.1081H0.918945ZM90.7838 76.5946V81.3244H95.5135V76.5946H90.7838ZM52.946 57.6757V62.4054H57.6757V57.6757H52.946ZM90.7838 119.162V123.892H95.5135V119.162H90.7838ZM19.8379 0.918945V5.64868H24.5676V0.918945H19.8379ZM15.1081 104.973V109.703H19.8379V104.973H15.1081ZM67.1352 104.973V109.703H71.8649V104.973H67.1352ZM71.8649 24.5676V29.2973H76.5946V24.5676H71.8649ZM86.0541 5.64868V10.3784H90.7838V5.64868H86.0541ZM123.892 67.1352V71.8649H128.622V67.1352H123.892ZM86.0541 48.2162V52.946H90.7838V48.2162H86.0541ZM128.622 29.2973V34.0271H133.351V29.2973H128.622ZM38.7568 52.946V57.6757H43.4865V52.946H38.7568ZM0.918945 76.5946V81.3244H5.64868V76.5946H0.918945ZM52.946 76.5946V81.3244H57.6757V76.5946H52.946ZM48.2162 95.5135V100.243H52.946V95.5135H48.2162ZM10.3784 119.162V123.892H15.1081V119.162H10.3784ZM119.162 128.622V133.351H123.892V128.622H119.162ZM104.973 15.1081V19.8379H109.703V15.1081H104.973ZM67.1352 38.7568V43.4865H71.8649V38.7568H67.1352ZM15.1081 123.892V128.622H19.8379V123.892H15.1081ZM67.1352 123.892V128.622H71.8649V123.892H67.1352ZM71.8649 0.918945V5.64868H76.5946V0.918945H71.8649ZM123.892 0.918945V5.64868H128.622V0.918945H123.892ZM123.892 43.4865V48.2162H128.622V43.4865H123.892ZM86.0541 24.5676V29.2973H90.7838V24.5676H86.0541ZM123.892 86.0541V90.7838H128.622V86.0541H123.892ZM29.2973 128.622V133.351H34.0271V128.622H29.2973ZM0.918945 10.3784V15.1081H5.64868V10.3784H0.918945ZM119.162 19.8379V24.5676H123.892V19.8379H119.162ZM119.162 62.4054V67.1352H123.892V62.4054H119.162ZM119.162 104.973V109.703H123.892V104.973H119.162ZM15.1081 15.1081V19.8379H19.8379V15.1081H15.1081ZM67.1352 15.1081V19.8379H71.8649V15.1081H67.1352ZM104.973 76.5946V81.3244H109.703V76.5946H104.973ZM15.1081 57.6757V62.4054H19.8379V57.6757H15.1081ZM104.973 119.162V123.892H109.703V119.162H104.973ZM67.1352 100.243V104.973H71.8649V100.243H67.1352ZM123.892 19.8379V24.5676H128.622V19.8379H123.892ZM123.892 62.4054V67.1352H128.622V62.4054H123.892ZM29.2973 104.973V109.703H34.0271V104.973H29.2973ZM100.243 95.5135V100.243H104.973V95.5135H100.243ZM10.3784 29.2973V34.0271H15.1081V29.2973H10.3784ZM119.162 38.7568V43.4865H123.892V38.7568H119.162ZM10.3784 71.8649V76.5946H15.1081V71.8649H10.3784ZM119.162 81.3244V86.0541H123.892V81.3244H119.162ZM48.2162 133.351V138.081H52.946V133.351H48.2162ZM10.3784 114.432V119.162H15.1081V114.432H10.3784ZM119.162 123.892V128.622H123.892V123.892H119.162ZM104.973 10.3784V15.1081H109.703V10.3784H104.973ZM104.973 52.946V57.6757H109.703V52.946H104.973ZM104.973 95.5135V100.243H109.703V95.5135H104.973ZM15.1081 76.5946V81.3244H19.8379V76.5946H15.1081ZM67.1352 76.5946V81.3244H71.8649V76.5946H67.1352ZM15.1081 119.162V123.892H19.8379V119.162H15.1081ZM67.1352 119.162V123.892H71.8649V119.162H67.1352ZM133.351 128.622V133.351H138.081V128.622H133.351ZM86.0541 19.8379V24.5676H90.7838V19.8379H86.0541ZM43.4865 109.703V114.432H48.2162V109.703H43.4865ZM29.2973 38.7568V43.4865H34.0271V38.7568H29.2973ZM29.2973 123.892V128.622H34.0271V123.892H29.2973ZM100.243 114.432V119.162H104.973V114.432H100.243ZM48.2162 24.5676V29.2973H52.946V24.5676H48.2162ZM119.162 15.1081V19.8379H123.892V15.1081H119.162ZM10.3784 48.2162V52.946H15.1081V48.2162H10.3784ZM48.2162 109.703V114.432H52.946V109.703H48.2162ZM10.3784 90.7838V95.5135H15.1081V90.7838H10.3784ZM10.3784 133.351V138.081H15.1081V133.351H10.3784ZM104.973 29.2973V34.0271H109.703V29.2973H104.973ZM62.4054 119.162V123.892H67.1352V119.162H62.4054ZM15.1081 10.3784V15.1081H19.8379V10.3784H15.1081ZM15.1081 52.946V57.6757H19.8379V52.946H15.1081ZM67.1352 52.946V57.6757H71.8649V52.946H67.1352ZM133.351 62.4054V67.1352H138.081V62.4054H133.351ZM81.3244 104.973V109.703H86.0541V104.973H81.3244ZM133.351 104.973V109.703H138.081V104.973H133.351ZM43.4865 86.0541V90.7838H48.2162V86.0541H43.4865ZM29.2973 15.1081V19.8379H34.0271V15.1081H29.2973ZM29.2973 57.6757V62.4054H34.0271V57.6757H29.2973ZM100.243 90.7838V95.5135H104.973V90.7838H100.243ZM100.243 133.351V138.081H104.973V133.351H100.243ZM48.2162 0.918945V5.64868H52.946V0.918945H48.2162ZM48.2162 86.0541V90.7838H52.946V86.0541H48.2162ZM104.973 5.64868V10.3784H109.703V5.64868H104.973ZM114.432 95.5135V100.243H119.162V95.5135H114.432ZM62.4054 95.5135V100.243H67.1352V95.5135H62.4054ZM67.1352 29.2973V34.0271H71.8649V29.2973H67.1352ZM133.351 38.7568V43.4865H138.081V38.7568H133.351ZM24.5676 71.8649V76.5946H29.2973V71.8649H24.5676ZM133.351 81.3244V86.0541H138.081V81.3244H133.351ZM43.4865 62.4054V67.1352H48.2162V62.4054H43.4865ZM81.3244 123.892V128.622H86.0541V123.892H81.3244ZM133.351 123.892V128.622H138.081V123.892H133.351ZM43.4865 104.973V109.703H48.2162V104.973H43.4865ZM29.2973 76.5946V81.3244H34.0271V76.5946H29.2973ZM29.2973 119.162V123.892H34.0271V119.162H29.2973ZM48.2162 19.8379V24.5676H52.946V19.8379H48.2162ZM10.3784 0.918945V5.64868H15.1081V0.918945H10.3784ZM119.162 10.3784V15.1081H123.892V10.3784H119.162ZM10.3784 43.4865V48.2162H15.1081V43.4865H10.3784ZM114.432 71.8649V76.5946H119.162V71.8649H114.432ZM62.4054 71.8649V76.5946H67.1352V71.8649H62.4054ZM76.5946 52.946V57.6757H81.3244V52.946H76.5946ZM5.64868 104.973V109.703H10.3784V104.973H5.64868ZM62.4054 114.432V119.162H67.1352V114.432H62.4054ZM114.432 114.432V119.162H119.162V114.432H114.432ZM76.5946 95.5135V100.243H81.3244V95.5135H76.5946ZM81.3244 15.1081V19.8379H86.0541V15.1081H81.3244ZM133.351 15.1081V19.8379H138.081V15.1081H133.351ZM24.5676 48.2162V52.946H29.2973V48.2162H24.5676ZM24.5676 90.7838V95.5135H29.2973V90.7838H24.5676ZM133.351 100.243V104.973H138.081V100.243H133.351ZM43.4865 81.3244V86.0541H48.2162V81.3244H43.4865ZM24.5676 133.351V138.081H29.2973V133.351H24.5676ZM43.4865 123.892V128.622H48.2162V123.892H43.4865ZM29.2973 10.3784V15.1081H34.0271V10.3784H29.2973ZM29.2973 95.5135V100.243H34.0271V95.5135H29.2973ZM95.5135 104.973V109.703H100.243V104.973H95.5135ZM57.6757 86.0541V90.7838H62.4054V86.0541H57.6757ZM10.3784 19.8379V24.5676H15.1081V19.8379H10.3784ZM76.5946 29.2973V34.0271H81.3244V29.2973H76.5946ZM62.4054 133.351V138.081H67.1352V133.351H62.4054ZM114.432 133.351V138.081H119.162V133.351H114.432ZM76.5946 114.432V119.162H81.3244V114.432H76.5946ZM81.3244 34.0271V38.7568H86.0541V34.0271H81.3244ZM43.4865 15.1081V19.8379H48.2162V15.1081H43.4865ZM24.5676 67.1352V71.8649H29.2973V67.1352H24.5676ZM43.4865 100.243V104.973H48.2162V100.243H43.4865ZM29.2973 29.2973V34.0271H34.0271V29.2973H29.2973ZM57.6757 62.4054V67.1352H62.4054V62.4054H57.6757ZM109.703 62.4054V67.1352H114.432V62.4054H109.703ZM57.6757 104.973V109.703H62.4054V104.973H57.6757ZM62.4054 24.5676V29.2973H67.1352V24.5676H62.4054ZM5.64868 57.6757V62.4054H10.3784V57.6757H5.64868ZM114.432 67.1352V71.8649H119.162V67.1352H114.432ZM62.4054 109.703V114.432H67.1352V109.703H62.4054ZM114.432 109.703V114.432H119.162V109.703H114.432ZM76.5946 90.7838V95.5135H81.3244V90.7838H76.5946ZM76.5946 133.351V138.081H81.3244V133.351H76.5946ZM24.5676 0.918945V5.64868H29.2973V0.918945H24.5676ZM133.351 10.3784V15.1081H138.081V10.3784H133.351ZM24.5676 43.4865V48.2162H29.2973V43.4865H24.5676ZM133.351 52.946V57.6757H138.081V52.946H133.351ZM43.4865 34.0271V38.7568H48.2162V34.0271H43.4865ZM43.4865 76.5946V81.3244H48.2162V76.5946H43.4865ZM128.622 71.8649V76.5946H133.351V71.8649H128.622ZM29.2973 5.64868V10.3784H34.0271V5.64868H29.2973ZM0.918945 119.162V123.892H5.64868V119.162H0.918945ZM95.5135 15.1081V19.8379H100.243V15.1081H95.5135ZM109.703 38.7568V43.4865H114.432V38.7568H109.703ZM95.5135 100.243V104.973H100.243V100.243H95.5135ZM19.8379 19.8379V24.5676H24.5676V19.8379H19.8379ZM57.6757 81.3244V86.0541H62.4054V81.3244H57.6757ZM19.8379 104.973V109.703H24.5676V104.973H19.8379ZM114.432 0.918945V5.64868H119.162V0.918945H114.432ZM114.432 43.4865V48.2162H119.162V43.4865H114.432ZM76.5946 109.703V114.432H81.3244V109.703H76.5946ZM71.8649 128.622V133.351H76.5946V128.622H71.8649ZM43.4865 10.3784V15.1081H48.2162V10.3784H43.4865ZM38.7568 29.2973V34.0271H43.4865V29.2973H38.7568ZM128.622 90.7838V95.5135H133.351V90.7838H128.622ZM128.622 133.351V138.081H133.351V133.351H128.622ZM0.918945 52.946V57.6757H5.64868V52.946H0.918945ZM52.946 52.946V57.6757H57.6757V52.946H52.946ZM38.7568 114.432V119.162H43.4865V114.432H38.7568ZM0.918945 95.5135V100.243H5.64868V95.5135H0.918945ZM52.946 95.5135V100.243H57.6757V95.5135H52.946ZM57.6757 15.1081V19.8379H62.4054V15.1081H57.6757ZM57.6757 57.6757V62.4054H62.4054V57.6757H57.6757ZM95.5135 119.162V123.892H100.243V119.162H95.5135ZM19.8379 38.7568V43.4865H24.5676V38.7568H19.8379ZM57.6757 100.243V104.973H62.4054V100.243H57.6757ZM19.8379 123.892V128.622H24.5676V123.892H19.8379ZM62.4054 19.8379V24.5676H67.1352V19.8379H62.4054ZM114.432 19.8379V24.5676H119.162V19.8379H114.432ZM5.64868 52.946V57.6757H10.3784V52.946H5.64868ZM5.64868 95.5135V100.243H10.3784V95.5135H5.64868ZM123.892 104.973V109.703H128.622V104.973H123.892ZM34.0271 86.0541V90.7838H38.7568V86.0541H34.0271ZM86.0541 128.622V133.351H90.7838V128.622H86.0541ZM90.7838 48.2162V52.946H95.5135V48.2162H90.7838ZM0.918945 29.2973V34.0271H5.64868V29.2973H0.918945ZM38.7568 90.7838V95.5135H43.4865V90.7838H38.7568ZM90.7838 90.7838V95.5135H95.5135V90.7838H90.7838ZM0.918945 71.8649V76.5946H5.64868V71.8649H0.918945ZM38.7568 133.351V138.081H43.4865V133.351H38.7568ZM0.918945 114.432V119.162H5.64868V114.432H0.918945ZM52.946 114.432V119.162H57.6757V114.432H52.946ZM95.5135 10.3784V15.1081H100.243V10.3784H95.5135ZM95.5135 52.946V57.6757H100.243V52.946H95.5135ZM19.8379 15.1081V19.8379H24.5676V15.1081H19.8379ZM5.64868 29.2973V34.0271H10.3784V29.2973H5.64868ZM76.5946 19.8379V24.5676H81.3244V19.8379H76.5946ZM71.8649 81.3244V86.0541H76.5946V81.3244H71.8649ZM34.0271 62.4054V67.1352H38.7568V62.4054H34.0271ZM123.892 123.892V128.622H128.622V123.892H123.892ZM128.622 0.918945V5.64868H133.351V0.918945H128.622ZM128.622 43.4865V48.2162H133.351V43.4865H128.622ZM38.7568 24.5676V29.2973H43.4865V24.5676H38.7568ZM0.918945 5.64868V10.3784H5.64868V5.64868H0.918945ZM52.946 5.64868V10.3784H57.6757V5.64868H52.946ZM38.7568 67.1352V71.8649H43.4865V67.1352H38.7568ZM90.7838 67.1352V71.8649H95.5135V67.1352H90.7838ZM128.622 128.622V133.351H133.351V128.622H128.622ZM0.918945 48.2162V52.946H5.64868V48.2162H0.918945ZM52.946 90.7838V95.5135H57.6757V90.7838H52.946ZM0.918945 133.351V138.081H5.64868V133.351H0.918945ZM95.5135 29.2973V34.0271H100.243V29.2973H95.5135ZM19.8379 76.5946V81.3244H24.5676V76.5946H19.8379ZM104.973 114.432V119.162H109.703V114.432H104.973ZM15.1081 95.5135V100.243H19.8379V95.5135H15.1081ZM67.1352 95.5135V100.243H71.8649V95.5135H67.1352ZM71.8649 15.1081V19.8379H76.5946V15.1081H71.8649ZM123.892 15.1081V19.8379H128.622V15.1081H123.892ZM34.0271 38.7568V43.4865H38.7568V38.7568H34.0271Z" fill="#25D366"/>
</svg>
