<svg width="249" height="483" viewBox="0 0 249 483" fill="none" xmlns="http://www.w3.org/2000/svg">
<path d="M184.773 45.3381L130.378 28.2296V62.4632L184.773 45.3381Z" fill="#FF3E99"/>
<path d="M130.696 106.714C130.374 106.714 130.112 106.046 130.112 105.226V24.9852C130.112 24.1658 130.374 23.4968 130.696 23.4968C131.017 23.4968 131.28 24.1658 131.28 24.9852V105.243C131.273 106.046 131.017 106.714 130.696 106.714Z" fill="#003570"/>
<path d="M90.9987 211.757H89.7444V297.081H90.9987V211.757Z" fill="#003570"/>
<path d="M65.7157 0H64.4614V129.576H65.7157V0Z" fill="#003570"/>
<path d="M190.224 126.415H188.97V207.325H190.224V126.415Z" fill="#003570"/>
<path d="M14.5145 199.114H13.2603V304.674H14.5145V199.114Z" fill="#003570"/>
<path d="M1.25429 367.874H0V436.14H1.25429V367.874Z" fill="#003570"/>
<path d="M249 207.325H247.746V365.348H249V207.325Z" fill="#003570"/>
<path d="M204.12 322.368H202.865V369.144H204.12V322.368Z" fill="#003570"/>
<path d="M232.563 21.49H231.309V175.717H232.563V21.49Z" fill="#003570"/>
<path d="M235.088 356.501H233.834V456.995H235.088V356.501Z" fill="#003570"/>
<path d="M90.3632 53.0981H89.1089V128.322H90.3632V53.0981Z" fill="#003570"/>
<path d="M37.2724 113.153H36.0181V178.259H37.2724V113.153Z" fill="#003570"/>
<path d="M112.051 482.984H128.773V422.025L64.4618 294.205V197.207H47.7402V298.169L112.051 426.006V482.984Z" fill="#27BBFF"/>
<path d="M81.1161 204.532L56.1007 161.201L31.1021 204.532H81.1161Z" fill="#27BBFF"/>
<g opacity="0.4">
<path d="M118.572 482.984L188.819 377.273V275.776H172.098V372.222L98.5066 482.984H118.572Z" fill="#1DD5C5"/>
<path d="M205.474 283.101L180.459 239.77L155.443 283.101H205.474Z" fill="#1DD5C5"/>
</g>
<path d="M180.693 163.943L130.662 77.2971L80.631 163.943H113.94V318.806L67.1033 391.855V482.983H100.546V401.655L147.383 328.606V163.943H180.693Z" fill="#6793DC"/>
<path d="M170.526 482.983L229.085 401.521V231.708H212.363V396.136L149.942 482.983H170.526Z" fill="#27BBFF"/>
<path d="M245.739 239.033L220.724 195.702L195.708 239.033H245.739Z" fill="#27BBFF"/>
<g opacity="0.4">
<path d="M38.1082 328.355H21.3867V483H38.1082V328.355Z" fill="#1DD5C5"/>
<path d="M54.7628 335.663L29.7474 292.349L4.74878 335.663H54.7628Z" fill="#1DD5C5"/>
</g>
</svg>
