<svg width="162" height="247" viewBox="0 0 162 247" fill="none" xmlns="http://www.w3.org/2000/svg">
<path d="M119.753 16.8427L84.4988 7.8457V25.8485L119.753 16.8427Z" fill="#FF3E99"/>
<path d="M84.7049 49.1192C84.4965 49.1192 84.3264 48.7674 84.3264 48.3364V6.13942C84.3264 5.70848 84.4965 5.35669 84.7049 5.35669C84.9134 5.35669 85.0835 5.70848 85.0835 6.13942V48.3452C85.0792 48.7674 84.9134 49.1192 84.7049 49.1192Z" fill="#003570"/>
<path d="M58.977 104.359H58.1641V149.229H58.977V104.359Z" fill="#003570"/>
<path d="M42.549 0H41.8196V61.1414H42.549V0Z" fill="#003570"/>
<path d="M123.286 59.4792H122.473V102.028H123.286V59.4792Z" fill="#003570"/>
<path d="M9.40691 97.71H8.59399V153.222H9.40691V97.71Z" fill="#003570"/>
<path d="M0.812913 186.458H0V222.358H0.812913V186.458Z" fill="#003570"/>
<path d="M161.38 102.028H160.567V185.129H161.38V102.028Z" fill="#003570"/>
<path d="M132.292 162.527H131.479V187.125H132.292V162.527Z" fill="#003570"/>
<path d="M150.81 10H150V85H150.81V10Z" fill="#003570"/>
<path d="M152.363 180.477H151.55V233.324H152.363V180.477Z" fill="#003570"/>
<path d="M58.5654 20.9233H57.7524V60.482H58.5654V20.9233Z" fill="#003570"/>
<path d="M24.1564 52.5049H23.3435V86.7427H24.1564V52.5049Z" fill="#003570"/>
<path d="M72.6214 246.992H83.4588V214.935L41.7783 147.717V96.7075H30.9409V149.801L72.6214 217.028V246.992Z" fill="#27BBFF"/>
<path d="M52.572 100.559L36.3593 77.7722L20.1575 100.559H52.572Z" fill="#27BBFF"/>
<g opacity="0.4">
<path d="M76.8478 246.991L122.376 191.4V138.025H111.538V188.744L63.843 246.991H76.8478Z" fill="#1DD5C5"/>
<path d="M133.17 141.877L116.957 119.09L100.744 141.877H133.17Z" fill="#1DD5C5"/>
</g>
<path d="M117.108 79.2143L84.683 33.6489L52.2577 79.2143H73.8457V160.653L43.4902 199.069V246.991H65.165V204.222L95.5204 165.807V79.2143H117.108Z" fill="#6793DC"/>
<path d="M110.519 246.991L148.472 204.152V114.851H137.634V201.32L97.1785 246.991H110.519Z" fill="#27BBFF"/>
<path d="M159.266 118.703L143.053 95.9158L126.84 118.703H159.266Z" fill="#27BBFF"/>
<g opacity="0.4">
<path d="M24.6982 165.675H13.8608V247H24.6982V165.675Z" fill="#1DD5C5"/>
<path d="M35.4924 169.519L19.2797 146.74L3.07788 169.519H35.4924Z" fill="#1DD5C5"/>
</g>
</svg>
